<svg width="18" height="18" viewBox="0 0 18 18" fill="none" xmlns="http://www.w3.org/2000/svg">
<g clip-path="url(#clip0_11722_9409)">
<path d="M11.9108 3.29615C11.7843 3.34396 11.6999 3.4649 11.6999 3.5999C11.6999 3.7349 11.7843 3.85584 11.9108 3.90365L13.4999 4.4999L14.0962 6.08897C14.144 6.21553 14.2649 6.2999 14.3999 6.2999C14.5349 6.2999 14.6558 6.21553 14.7037 6.08897L15.2999 4.4999L16.889 3.90365C17.0155 3.85584 17.0999 3.7349 17.0999 3.5999C17.0999 3.4649 17.0155 3.34396 16.889 3.29615L15.2999 2.6999L14.7037 1.11084C14.6558 0.984277 14.5349 0.899902 14.3999 0.899902C14.2649 0.899902 14.144 0.984277 14.0962 1.11084L13.4999 2.6999L11.9108 3.29615ZM6.70772 3.86147C6.63459 3.70115 6.47428 3.5999 6.2999 3.5999C6.12553 3.5999 5.96522 3.70115 5.89209 3.86147L4.39865 7.09584L1.16428 8.58928C1.00115 8.66521 0.899902 8.82553 0.899902 8.9999C0.899902 9.17428 1.00115 9.33459 1.16146 9.40772L4.39584 10.9012L5.88928 14.1355C5.9624 14.2958 6.12271 14.3971 6.29709 14.3971C6.47146 14.3971 6.63178 14.2958 6.7049 14.1355L8.19834 10.9012L11.4327 9.40772C11.593 9.33459 11.6943 9.17428 11.6943 8.9999C11.6943 8.82553 11.593 8.66522 11.4327 8.59209L8.19834 7.09865L6.7049 3.86428L6.70772 3.86147ZM12.5999 13.4999L11.0108 14.0962C10.8843 14.144 10.7999 14.2649 10.7999 14.3999C10.7999 14.5349 10.8843 14.6558 11.0108 14.7037L12.5999 15.2999L13.1962 16.889C13.244 17.0155 13.3649 17.0999 13.4999 17.0999C13.6349 17.0999 13.7558 17.0155 13.8037 16.889L14.3999 15.2999L15.989 14.7037C16.1155 14.6558 16.1999 14.5349 16.1999 14.3999C16.1999 14.2649 16.1155 14.144 15.989 14.0962L14.3999 13.4999L13.8037 11.9108C13.7558 11.7843 13.6349 11.6999 13.4999 11.6999C13.3649 11.6999 13.244 11.7843 13.1962 11.9108L12.5999 13.4999Z" fill="black"/>
</g>
<defs>
<clipPath id="clip0_11722_9409">
<rect width="18" height="18" fill="white"/>
</clipPath>
</defs>
</svg>
