<svg width="18" height="18" viewBox="0 0 18 18" fill="none" xmlns="http://www.w3.org/2000/svg">
<g clip-path="url(#clip0_671_1743)">
<path d="M17.8345 17.0402L12.8599 12.0656C13.9568 10.7859 14.5931 9.13008 14.5931 7.3125C14.5931 3.27305 11.319 0 7.28062 0C3.24222 0 -0.000244141 3.2741 -0.000244141 7.3125C-0.000244141 11.3509 3.27351 14.625 7.28062 14.625C9.0975 14.625 10.7558 13.9584 12.0337 12.8619L17.0084 17.8365C17.149 17.9438 17.2931 18 17.4373 18C17.5814 18 17.7251 17.9451 17.8349 17.8352C18.056 17.6168 18.056 17.2582 17.8345 17.0402ZM7.31226 13.5C3.87047 13.5 1.12476 10.7227 1.12476 7.3125C1.12476 3.90234 3.87047 1.125 7.31226 1.125C10.7541 1.125 13.4998 3.8707 13.4998 7.3125C13.4998 10.7543 10.7224 13.5 7.31226 13.5Z" fill="black"></path>
</g>
<defs>
<clipPath id="clip0_671_1743">
<rect width="18" height="18" fill="white"></rect>
</clipPath>
</defs>
</svg>