<svg width="300" height="248" viewBox="0 0 300 248" fill="none" xmlns="http://www.w3.org/2000/svg">
<rect width="300" height="248" fill="#CACACA"/>
<g id="Illustration">
<rect width="2438" height="5632" transform="translate(-106 -1708)" fill="white"/>
<g id="Frame 888">
<g id="Frame 881">
<rect x="-15.5" y="-311.5" width="331" height="839" stroke="#ECECEC"/>
<g id="config_flat">
<rect x="-15.5" y="-279.5" width="331" height="807" rx="4.5" stroke="#9747FF" stroke-dasharray="10 5"/>
<g id="Theme=Dark">
<path id="Vector" fill-rule="evenodd" clip-rule="evenodd" d="M137.788 1.00884C162.046 1.25943 185.29 12.6221 202.865 29.2763C219.084 44.6453 221.088 68.2116 230.199 88.5778C240.796 112.268 263.897 132.485 260.539 158.203C257.043 184.984 235.506 206.531 212.859 221.385C190.868 235.809 163.755 243.063 137.788 238.715C113.865 234.708 98.4083 213.558 79.0637 198.979C60.2199 184.777 32.342 177.318 26.1761 154.598C20.0234 131.927 41.5108 112.009 49.4605 89.8988C57.0741 68.7238 55.8377 43.9083 71.7234 27.9216C88.8792 10.6566 113.4 0.756913 137.788 1.00884Z" fill="#002999"/>
<g id="Background_Complete">
<path id="Vector_2" d="M146.603 53.481C146.25 53.481 145.898 53.4236 145.559 53.3043L140.166 51.4307C139.091 51.0551 138.285 50.1272 138.073 49.0048L136.994 43.384C136.778 42.2617 137.179 41.0995 138.042 40.3527L142.36 36.6056C143.224 35.8588 144.426 35.6246 145.501 36.0002L150.894 37.8738C151.969 38.2494 152.776 39.1773 152.992 40.2997L154.071 45.9204C154.287 47.0428 153.886 48.205 153.022 48.9517L148.705 52.6989C148.114 53.2115 147.365 53.481 146.607 53.481H146.603ZM141.496 48.1519L146.537 49.9018L150.568 46.3977L149.559 41.1437L144.519 39.3938L140.488 42.898L141.496 48.1519Z" fill="#D9D9D9"/>
<path id="Vector_3" d="M209.542 37.1534C209.189 37.1534 208.837 37.096 208.498 36.9767L205.766 36.0266C204.686 35.651 203.884 34.7231 203.673 33.6007L203.127 30.755C202.911 29.6326 203.312 28.4705 204.175 27.7237L206.361 25.8236C207.224 25.0768 208.427 24.8426 209.502 25.2182L212.234 26.1683C213.313 26.5439 214.115 27.4718 214.331 28.5942L214.877 31.4399C215.093 32.5623 214.692 33.7244 213.829 34.4712L211.643 36.3713C211.053 36.8839 210.304 37.1534 209.546 37.1534H209.542ZM207.096 32.7479L209.471 33.5742L211.375 31.9216L210.899 29.4426L208.524 28.6163L206.621 30.2689L207.096 32.7479Z" fill="#D9D9D9"/>
<path id="Vector_4" d="M284.956 78.625C284.26 78.625 283.586 78.3069 283.145 77.7545L281.608 75.8279C281.092 75.1828 280.956 74.299 281.255 73.5301L282.15 71.2323C282.449 70.459 283.141 69.9023 283.961 69.7785L286.393 69.4029C287.208 69.2748 288.036 69.6018 288.551 70.2469L290.089 72.1735C290.605 72.8187 290.741 73.7025 290.442 74.4713L289.547 76.7691C289.248 77.5424 288.556 78.0992 287.736 78.2229L285.304 78.5985C285.19 78.6162 285.071 78.625 284.956 78.625ZM286.741 71.144C286.714 71.144 286.683 71.144 286.657 71.1484L284.225 71.524C284.031 71.5549 283.864 71.6875 283.793 71.8731L282.899 74.1708C282.828 74.3564 282.859 74.5685 282.982 74.7232L284.52 76.6498C284.643 76.8045 284.846 76.884 285.04 76.8531L287.472 76.4775C287.666 76.4465 287.833 76.314 287.904 76.1284L288.798 73.8306C288.869 73.645 288.838 73.4329 288.714 73.2783L287.177 71.3516C287.071 71.2191 286.908 71.144 286.741 71.144Z" fill="#D9D9D9"/>
<path id="Vector_5" d="M10.5081 97.9961C9.6137 97.9961 8.75014 97.5896 8.18177 96.8781L4.5645 92.3577C3.89921 91.527 3.72737 90.3957 4.1151 89.4015L6.21232 84.0017C6.59564 83.0119 7.49004 82.2916 8.53865 82.1325L14.2531 81.2532C15.3018 81.0941 16.368 81.5095 17.0289 82.3402L20.6418 86.8607C21.307 87.6914 21.4789 88.8226 21.0956 89.8169L18.9983 95.2167C18.615 96.2109 17.7206 96.9268 16.672 97.0858L10.9575 97.9652C10.8077 97.9873 10.6579 98.0005 10.5081 98.0005V97.9961ZM7.00539 90.4664L10.5478 94.8941L16.1433 94.0324L18.1965 88.7431L14.6541 84.3154L9.05855 85.1771L7.00539 90.4664Z" fill="#D9D9D9"/>
<path id="Vector_6" d="M25.127 58.3904H21.7212C20.8973 58.3904 20.1263 57.9441 19.7121 57.2282L18.007 54.2676C17.5929 53.5518 17.5929 52.6592 18.007 51.9433L19.7121 48.9827C20.1263 48.2669 20.8929 47.8206 21.7212 47.8206H25.127C25.9509 47.8206 26.722 48.2669 27.1361 48.9827L28.8412 51.9433C29.2554 52.6592 29.2554 53.5518 28.8412 54.2676L27.1361 57.2282C26.722 57.9441 25.9553 58.3904 25.127 58.3904ZM21.7212 49.5881C21.523 49.5881 21.3379 49.6941 21.241 49.8665L19.5359 52.8271C19.4346 52.9994 19.4346 53.2115 19.5359 53.3838L21.241 56.3445C21.3423 56.5168 21.523 56.6228 21.7212 56.6228H25.127C25.3253 56.6228 25.5103 56.5168 25.6117 56.3445L27.3168 53.3838C27.4181 53.2115 27.4181 52.9994 27.3168 52.8271L25.6117 49.8665C25.5103 49.6941 25.3297 49.5881 25.127 49.5881H21.7212Z" fill="#D9D9D9"/>
<path id="Vector_7" d="M68.0736 7.3291L76.1664 21.0273L76.2279 21.1309L76.3304 21.1953L82.5648 25.1309L79.4642 30.4258L74.1879 27.5146L60.0316 8.45996L56.4535 3.63965V3.63867L55.5463 2.41992L57.1849 0.640625L68.0736 7.3291Z" fill="#D9D9D9" stroke="#737373"/>
<path id="Vector_8" d="M72.5402 28.7795L74.295 34.6409L68.8419 37.5334L66.3204 30.6106L66.2823 30.5042L66.2023 30.425L54.1544 18.5579L49.9132 6.46509L51.9913 5.23267L72.5402 28.7795Z" fill="#D9D9D9" stroke="#737373"/>
<path id="Vector_9" d="M86.9915 27.1545C87.6452 27.5178 88.5848 28.0415 89.7268 28.6838C92.0114 29.969 95.1067 31.7278 98.3499 33.6233C101.594 35.5191 104.982 37.5501 107.855 39.3792C110.74 41.216 113.069 42.8278 114.22 43.8889C115.368 44.9478 116.929 46.8746 118.617 49.2346C120.3 51.5863 122.092 54.3403 123.7 57.0315C125.31 59.7244 126.73 62.3445 127.677 64.429C128.151 65.4729 128.5 66.368 128.696 67.0637C128.793 67.4121 128.848 67.6958 128.865 67.9143C128.884 68.1444 128.854 68.2469 128.841 68.2747C128.564 68.8469 128.323 69.2544 128.088 69.5237C127.86 69.7853 127.669 69.8829 127.49 69.9055C127.299 69.9297 127.026 69.8799 126.614 69.6545C126.202 69.4297 125.7 69.0556 125.07 68.5042C124.473 67.9821 123.506 66.8199 122.33 65.2913C121.165 63.7764 119.826 61.9427 118.492 60.1096C117.161 58.2792 115.835 56.449 114.703 54.9504C113.583 53.4673 112.62 52.2627 112.023 51.719C111.71 51.4345 110.999 50.937 110.039 50.3049C109.066 49.6633 107.799 48.8597 106.346 47.9543C103.439 46.1431 99.7716 43.9186 96.177 41.759C92.5822 39.5993 89.0572 37.5029 86.4309 35.9465C85.1179 35.1684 84.0291 34.5251 83.2688 34.0764C82.9548 33.8911 82.6969 33.7381 82.5022 33.6233L86.4006 26.8274C86.5579 26.9145 86.7566 27.024 86.9915 27.1545Z" fill="#D9D9D9" stroke="#737373"/>
<path id="Vector_10" d="M70.2131 17.2207C74.0624 17.2208 77.1857 20.3508 77.1858 24.2148C77.1858 28.079 74.0625 31.2089 70.2131 31.209C66.3637 31.209 63.2405 28.0791 63.2405 24.2148C63.2406 20.3507 66.3638 17.2207 70.2131 17.2207Z" fill="#D9D9D9" stroke="#737373"/>
<path id="Vector_11" d="M69.1511 28.3115C66.8952 27.7238 65.5426 25.4127 66.1286 23.1503C66.7146 20.8879 69.0189 19.5313 71.2747 20.119C73.5306 20.7067 74.8832 23.0177 74.2972 25.2802C73.7112 27.5426 71.4069 28.8992 69.1511 28.3115Z" fill="#737373"/>
<path id="Vector_12" d="M69.1511 28.3114C69.1555 28.2804 69.5168 28.3997 70.1821 28.3997C70.8342 28.3997 71.8387 28.2186 72.7684 27.4762C73.2222 27.1094 73.6584 26.6101 73.9448 25.9782C74.2223 25.3508 74.3942 24.604 74.3061 23.8307C74.2752 23.4462 74.1783 23.053 74.0241 22.6818C73.8743 22.3062 73.6672 21.9438 73.3984 21.6213C72.8741 20.9629 72.1119 20.468 71.2483 20.2338C70.3848 20.0172 69.4772 20.0747 68.6973 20.3928C68.3052 20.5431 67.9439 20.7552 67.6311 21.0159C67.3138 21.2678 67.0407 21.5594 66.8248 21.882C66.3754 22.5139 66.1595 23.2474 66.0978 23.9323C66.0405 24.6216 66.1771 25.2712 66.3974 25.8147C66.8512 26.915 67.6399 27.5602 68.2082 27.8827C68.7898 28.2097 69.1599 28.2804 69.1511 28.3114C69.1511 28.3114 68.7722 28.2716 68.1642 27.9623C67.5694 27.6574 66.7367 27.0166 66.2476 25.881C66.0097 25.3198 65.8555 24.6437 65.9083 23.9235C65.9612 23.2076 66.1815 22.4343 66.6485 21.7627C66.8732 21.4224 67.1596 21.1131 67.4901 20.8436C67.8161 20.5696 68.195 20.3442 68.6092 20.1852C69.4287 19.8449 70.3892 19.783 71.3012 20.0128C72.2088 20.2559 73.0151 20.7817 73.5659 21.4799C73.8478 21.8201 74.0681 22.2046 74.2223 22.6022C74.381 22.9955 74.4823 23.4065 74.5131 23.813C74.5968 24.6261 74.4118 25.4082 74.1122 26.0622C73.8082 26.7206 73.3456 27.2332 72.8653 27.6088C71.8872 28.3644 70.8474 28.519 70.1821 28.4925C69.5036 28.466 69.1511 28.3158 69.1511 28.3158V28.3114Z" fill="#3D3939"/>
<path id="Vector_13" d="M78.985 30.2889L82.036 24.9633C82.7925 23.6429 84.4785 23.1867 85.7935 23.9444L86.0803 24.1097C87.3951 24.8676 87.8514 26.5582 87.0951 27.8785L84.0441 33.2042C83.2877 34.5245 81.6015 34.9805 80.2866 34.223L79.9997 34.0577C78.6848 33.2999 78.2286 31.6093 78.985 30.2889Z" fill="#D9D9D9" stroke="#737373"/>
<g id="Vector_14">
<mask id="path-16-inside-1_4579_5411" fill="white">
<path d="M78.5534 30.0436C78.5842 30.0568 78.289 30.4545 78.1877 31.2897C78.1436 31.7051 78.1789 32.2265 78.3815 32.7788C78.4917 33.0528 78.6371 33.3312 78.8398 33.6007C79.0468 33.8614 79.3024 34.1089 79.6108 34.3122C79.9236 34.5066 80.2673 34.7187 80.6418 34.8424C81.0207 34.9706 81.4393 35.028 81.871 34.9971C82.7302 34.9396 83.6246 34.4889 84.1974 33.7068C85.2107 32.01 86.2814 30.0745 87.4357 28.0816C87.9909 27.1139 87.9777 25.8855 87.4489 24.9708C87.1978 24.5068 86.8277 24.1268 86.4003 23.8572C85.9642 23.5789 85.5236 23.3402 85.0433 23.2563C84.096 23.0619 83.1267 23.3314 82.457 23.8749C81.7653 24.4052 81.4613 25.2094 81.0559 25.8457C80.2981 27.136 79.6857 28.1833 79.2451 28.9345C79.038 29.2835 78.8706 29.5575 78.7428 29.7696C78.6239 29.9596 78.5622 30.0568 78.5534 30.0524C78.5446 30.0524 78.5974 29.942 78.7032 29.7475C78.8221 29.531 78.9763 29.2482 79.1702 28.8903C79.5932 28.1302 80.188 27.0697 80.9194 25.7662C81.1044 25.4348 81.2983 25.0901 81.5009 24.7322C81.708 24.3654 81.9856 24.0119 82.3425 23.7247C83.0474 23.1414 84.074 22.8453 85.0874 23.0486C85.5985 23.137 86.0787 23.3933 86.5193 23.6761C86.9731 23.9633 87.374 24.3698 87.6428 24.8647C88.2112 25.8413 88.2288 27.1581 87.6296 28.2009C86.4708 30.2027 85.4134 32.1072 84.3648 33.8394C83.748 34.6745 82.7919 35.1473 81.8798 35.1959C81.426 35.2224 80.981 35.1562 80.5801 35.0192C80.1748 34.8778 79.8399 34.6657 79.5139 34.458C79.1966 34.2415 78.9279 33.9763 78.7208 33.7024C78.5137 33.4196 78.3683 33.1235 78.2582 32.8407C78.0599 32.2618 78.0379 31.7183 78.0952 31.2941C78.1524 30.8655 78.2846 30.5606 78.3771 30.3529C78.4829 30.1541 78.5446 30.0568 78.5534 30.0613V30.0436Z"/>
</mask>
<path d="M78.5534 30.0436C78.5842 30.0568 78.289 30.4545 78.1877 31.2897C78.1436 31.7051 78.1789 32.2265 78.3815 32.7788C78.4917 33.0528 78.6371 33.3312 78.8398 33.6007C79.0468 33.8614 79.3024 34.1089 79.6108 34.3122C79.9236 34.5066 80.2673 34.7187 80.6418 34.8424C81.0207 34.9706 81.4393 35.028 81.871 34.9971C82.7302 34.9396 83.6246 34.4889 84.1974 33.7068C85.2107 32.01 86.2814 30.0745 87.4357 28.0816C87.9909 27.1139 87.9777 25.8855 87.4489 24.9708C87.1978 24.5068 86.8277 24.1268 86.4003 23.8572C85.9642 23.5789 85.5236 23.3402 85.0433 23.2563C84.096 23.0619 83.1267 23.3314 82.457 23.8749C81.7653 24.4052 81.4613 25.2094 81.0559 25.8457C80.2981 27.136 79.6857 28.1833 79.2451 28.9345C79.038 29.2835 78.8706 29.5575 78.7428 29.7696C78.6239 29.9596 78.5622 30.0568 78.5534 30.0524C78.5446 30.0524 78.5974 29.942 78.7032 29.7475C78.8221 29.531 78.9763 29.2482 79.1702 28.8903C79.5932 28.1302 80.188 27.0697 80.9194 25.7662C81.1044 25.4348 81.2983 25.0901 81.5009 24.7322C81.708 24.3654 81.9856 24.0119 82.3425 23.7247C83.0474 23.1414 84.074 22.8453 85.0874 23.0486C85.5985 23.137 86.0787 23.3933 86.5193 23.6761C86.9731 23.9633 87.374 24.3698 87.6428 24.8647C88.2112 25.8413 88.2288 27.1581 87.6296 28.2009C86.4708 30.2027 85.4134 32.1072 84.3648 33.8394C83.748 34.6745 82.7919 35.1473 81.8798 35.1959C81.426 35.2224 80.981 35.1562 80.5801 35.0192C80.1748 34.8778 79.8399 34.6657 79.5139 34.458C79.1966 34.2415 78.9279 33.9763 78.7208 33.7024C78.5137 33.4196 78.3683 33.1235 78.2582 32.8407C78.0599 32.2618 78.0379 31.7183 78.0952 31.2941C78.1524 30.8655 78.2846 30.5606 78.3771 30.3529C78.4829 30.1541 78.5446 30.0568 78.5534 30.0613V30.0436Z" fill="#737373"/>
<path d="M78.5534 30.0436L78.9483 29.1249L77.5534 28.5253V30.0436H78.5534ZM78.1877 31.2897L77.195 31.1692L77.1941 31.1767L77.1933 31.1842L78.1877 31.2897ZM78.3815 32.7788L77.4427 33.1233L77.448 33.1377L77.4537 33.1519L78.3815 32.7788ZM78.8398 33.6007L78.0405 34.2017L78.0485 34.2123L78.0567 34.2227L78.8398 33.6007ZM79.6108 34.3122L79.0605 35.1471L79.0716 35.1545L79.0829 35.1615L79.6108 34.3122ZM80.6418 34.8424L80.9622 33.8951L80.9555 33.8929L80.6418 34.8424ZM81.871 34.9971L81.8043 33.9993L81.7996 33.9996L81.871 34.9971ZM84.1974 33.7068L85.0042 34.2976L85.0319 34.2598L85.0559 34.2195L84.1974 33.7068ZM87.4357 28.0816L88.3011 28.5829L88.3031 28.5792L87.4357 28.0816ZM87.4489 24.9708L86.5695 25.4468L86.5762 25.4591L86.5832 25.4712L87.4489 24.9708ZM86.4003 23.8572L85.8623 24.7002L85.8669 24.7031L86.4003 23.8572ZM85.0433 23.2563L84.8423 24.2359L84.8566 24.2388L84.8711 24.2413L85.0433 23.2563ZM82.457 23.8749L83.0654 24.6686L83.0764 24.6601L83.0872 24.6514L82.457 23.8749ZM81.0559 25.8457L80.2125 25.3084L80.2028 25.3237L80.1937 25.3393L81.0559 25.8457ZM79.2451 28.9345L80.1052 29.4447L80.1077 29.4404L79.2451 28.9345ZM78.7428 29.7696L79.5904 30.3003L79.595 30.293L79.5994 30.2856L78.7428 29.7696ZM78.5534 30.0524L79.0016 29.1585L78.7901 29.0524H78.5534V30.0524ZM78.7032 29.7475L77.8267 29.266L77.8247 29.2697L78.7032 29.7475ZM79.1702 28.8903L78.2963 28.404L78.2909 28.414L79.1702 28.8903ZM80.9194 25.7662L81.7915 26.2555L81.7925 26.2537L80.9194 25.7662ZM81.5009 24.7322L82.3711 25.2249L82.3717 25.2238L81.5009 24.7322ZM82.3425 23.7247L82.9695 24.5038L82.98 24.4951L82.3425 23.7247ZM85.0874 23.0486L84.8907 24.0291L84.9038 24.0317L84.917 24.034L85.0874 23.0486ZM86.5193 23.6761L85.9791 24.5176L85.9845 24.521L86.5193 23.6761ZM87.6428 24.8647L86.764 25.342L86.7711 25.355L86.7785 25.3677L87.6428 24.8647ZM87.6296 28.2009L88.495 28.7019L88.4967 28.6991L87.6296 28.2009ZM84.3648 33.8394L85.1692 34.4335L85.1965 34.3965L85.2203 34.3572L84.3648 33.8394ZM81.8798 35.1959L81.8266 34.1973L81.8215 34.1976L81.8798 35.1959ZM80.5801 35.0192L80.2507 35.9634L80.2568 35.9655L80.5801 35.0192ZM79.5139 34.458L78.9501 35.2839L78.9632 35.2929L78.9766 35.3014L79.5139 34.458ZM78.7208 33.7024L77.914 34.2932L77.9185 34.2993L77.923 34.3054L78.7208 33.7024ZM78.2582 32.8407L77.3121 33.1647L77.3188 33.1843L77.3264 33.2036L78.2582 32.8407ZM78.0952 31.2941L79.0862 31.4279L79.0863 31.4266L78.0952 31.2941ZM78.3771 30.3529L77.4942 29.8834L77.4779 29.9141L77.4637 29.946L78.3771 30.3529ZM78.5534 30.0613L78.1051 30.9552L79.5534 31.6814V30.0613H78.5534ZM78.1585 30.9623C78.0155 30.9009 77.8854 30.8052 77.782 30.6794C77.6818 30.5575 77.6263 30.4313 77.5959 30.3279C77.5402 30.1384 77.556 29.9823 77.5636 29.9235C77.5794 29.8002 77.6161 29.7107 77.6178 29.7065C77.6296 29.676 77.6401 29.6556 77.6211 29.6956C77.5961 29.7478 77.5466 29.8503 77.4923 29.9854C77.3822 30.2591 77.2577 30.6523 77.195 31.1692L79.1804 31.4101C79.219 31.0919 79.2927 30.8687 79.3479 30.7314C79.3762 30.6611 79.401 30.6094 79.4259 30.5573C79.4318 30.545 79.4611 30.4849 79.4836 30.4268C79.4905 30.4088 79.5306 30.3087 79.5473 30.1777C79.5554 30.1151 79.5711 29.9558 79.5147 29.764C79.4466 29.532 79.2714 29.2638 78.9483 29.1249L78.1585 30.9623ZM77.1933 31.1842C77.1345 31.7386 77.1829 32.4152 77.4427 33.1233L79.3203 32.4344C79.1748 32.0378 79.1528 31.6715 79.1821 31.3952L77.1933 31.1842ZM77.4537 33.1519C77.5904 33.4918 77.7761 33.8501 78.0405 34.2017L79.639 32.9998C79.4981 32.8123 79.393 32.6138 79.3094 32.4058L77.4537 33.1519ZM78.0567 34.2227C78.3208 34.5552 78.6526 34.8783 79.0605 35.1471L80.1611 33.4772C79.9522 33.3395 79.7729 33.1677 79.6228 32.9788L78.0567 34.2227ZM79.0829 35.1615C79.3814 35.347 79.8229 35.625 80.3281 35.7919L80.9555 33.8929C80.7117 33.8124 80.4658 33.6662 80.1387 33.4628L79.0829 35.1615ZM80.3214 35.7897C80.8254 35.9602 81.3771 36.035 81.9425 35.9945L81.7996 33.9996C81.5014 34.021 81.216 33.981 80.9622 33.8951L80.3214 35.7897ZM81.9378 35.9949C83.081 35.9184 84.2507 35.3265 85.0042 34.2976L83.3906 33.116C82.9985 33.6514 82.3794 33.9609 81.8043 33.9993L81.9378 35.9949ZM85.0559 34.2195C86.0713 32.5192 87.163 30.5477 88.301 28.5829L86.5704 27.5804C85.3998 29.6014 84.3501 31.5007 83.3388 33.1941L85.0559 34.2195ZM88.3031 28.5792C89.0344 27.3045 89.0231 25.6958 88.3147 24.4703L86.5832 25.4712C86.9322 26.0751 86.9474 26.9233 86.5683 27.584L88.3031 28.5792ZM88.3284 24.4948C87.9907 23.8708 87.4973 23.3668 86.9338 23.0114L85.8669 24.7031C86.1581 24.8867 86.405 25.1428 86.5695 25.4468L88.3284 24.4948ZM86.9383 23.0143C86.4794 22.7214 85.9 22.3909 85.2155 22.2712L84.8711 24.2413C85.1471 24.2896 85.4489 24.4363 85.8623 24.7002L86.9383 23.0143ZM85.2444 22.2767C83.9962 22.0205 82.7233 22.3709 81.8269 23.0984L83.0872 24.6514C83.5301 24.2919 84.1959 24.1032 84.8423 24.2359L85.2444 22.2767ZM81.8486 23.0813C81.3645 23.4524 81.0398 23.9019 80.7971 24.297C80.6768 24.4928 80.5679 24.6903 80.4747 24.8578C80.377 25.0334 80.2956 25.178 80.2125 25.3084L81.8993 26.383C82.0189 26.1952 82.1275 26.0008 82.2225 25.83C82.322 25.6512 82.4082 25.4952 82.5011 25.3441C82.6846 25.0454 82.8578 24.8277 83.0654 24.6686L81.8486 23.0813ZM80.1937 25.3393C79.4359 26.6295 78.822 27.6792 78.3825 28.4285L80.1077 29.4404C80.5494 28.6873 81.1604 27.6425 81.9182 26.3521L80.1937 25.3393ZM78.385 28.4243C78.1802 28.7697 78.0179 29.0351 77.8862 29.2536L79.5994 30.2856C79.7233 30.0799 79.8959 29.7974 80.1052 29.4447L78.385 28.4243ZM77.8952 29.239C77.8336 29.3374 77.7957 29.3976 77.7725 29.4326C77.7586 29.4536 77.7638 29.4446 77.7795 29.4243C77.7829 29.4199 77.8175 29.3742 77.8729 29.322C77.8956 29.3005 77.9699 29.2313 78.0843 29.1701C78.1435 29.1385 78.2517 29.0881 78.3975 29.0649C78.5522 29.0403 78.7732 29.044 79.0016 29.1585L78.1051 30.9463C78.5622 31.1755 78.9569 30.9715 79.027 30.934C79.1433 30.8718 79.2199 30.8008 79.2454 30.7767C79.3063 30.7192 79.3482 30.6652 79.3604 30.6493C79.3939 30.6061 79.4236 30.5618 79.4411 30.5353C79.4807 30.4753 79.5331 30.3918 79.5904 30.3003L77.8952 29.239ZM78.5534 29.0524C78.8609 29.0524 79.168 29.196 79.3636 29.4668C79.5171 29.6795 79.5425 29.8897 79.549 29.9686C79.5627 30.1338 79.5299 30.2615 79.5258 30.2788C79.5086 30.3509 79.487 30.4026 79.4864 30.4043C79.4779 30.4254 79.4741 30.4317 79.484 30.4114C79.5002 30.3783 79.5321 30.3165 79.5817 30.2253L77.8247 29.2697C77.7686 29.373 77.7211 29.4636 77.6866 29.5344C77.6712 29.566 77.6492 29.6121 77.63 29.66C77.624 29.6751 77.5989 29.7369 77.5801 29.8158C77.5752 29.8365 77.542 29.9668 77.5558 30.1337C77.5625 30.2134 77.588 30.4242 77.7419 30.6374C77.9377 30.9087 78.2452 31.0524 78.5534 31.0524V29.0524ZM79.5796 30.229C79.6998 30.0103 79.855 29.7256 80.0495 29.3665L78.2909 28.414C78.0977 28.7708 77.9445 29.0517 77.8267 29.266L79.5796 30.229ZM80.044 29.3766C80.4659 28.6184 81.0598 27.5596 81.7915 26.2555L80.0473 25.2769C79.3162 26.5799 78.7204 27.6421 78.2964 28.404L80.044 29.3766ZM81.7925 26.2537C81.9765 25.9241 82.1693 25.5812 82.3711 25.2249L80.6308 24.2394C80.4272 24.599 80.2323 24.9454 80.0462 25.2787L81.7925 26.2537ZM82.3717 25.2238C82.5272 24.9485 82.7269 24.6989 82.9695 24.5037L81.7155 22.9456C81.2442 23.3249 80.8889 23.7823 80.6301 24.2405L82.3717 25.2238ZM82.98 24.4951C83.4592 24.0986 84.1809 23.8867 84.8907 24.0291L85.284 22.0681C83.9671 21.804 82.6357 22.1841 81.705 22.9542L82.98 24.4951ZM84.917 24.034C85.2261 24.0874 85.5691 24.2545 85.9791 24.5176L87.0595 22.8345C86.5883 22.5321 85.9708 22.1865 85.2578 22.0632L84.917 24.034ZM85.9845 24.521C86.3069 24.7251 86.5836 25.0097 86.764 25.342L88.5216 24.3875C88.1645 23.73 87.6393 23.2015 87.0541 22.8311L85.9845 24.521ZM86.7785 25.3677C87.1655 26.0327 87.1849 26.9676 86.7625 27.7027L88.4967 28.6991C89.2727 27.3485 89.2568 25.6499 88.5071 24.3617L86.7785 25.3677ZM86.7641 27.6999C85.5923 29.7243 84.5519 31.5994 83.5093 33.3215L85.2203 34.3572C86.275 32.615 87.3494 30.681 88.495 28.7019L86.7641 27.6999ZM83.5604 33.2452C83.1256 33.8339 82.4483 34.1642 81.8266 34.1973L81.9331 36.1945C83.1355 36.1304 84.3703 35.5151 85.1692 34.4335L83.5604 33.2452ZM81.8215 34.1976C81.5011 34.2164 81.1856 34.1693 80.9034 34.0729L80.2568 35.9655C80.7765 36.143 81.351 36.2285 81.9382 36.1942L81.8215 34.1976ZM80.9095 34.075C80.6289 33.9771 80.3855 33.8276 80.0511 33.6146L78.9766 35.3014C79.2943 35.5038 79.7206 35.7785 80.2507 35.9634L80.9095 34.075ZM80.0776 33.632C79.8548 33.48 79.6639 33.2917 79.5185 33.0994L77.923 34.3054C78.1919 34.661 78.5384 35.0029 78.9501 35.2839L80.0776 33.632ZM79.5276 33.1116C79.3853 32.9173 79.278 32.7038 79.19 32.4778L77.3264 33.2036C77.4586 33.5432 77.6421 33.9218 77.914 34.2932L79.5276 33.1116ZM79.2042 32.5167C79.0605 32.097 79.0479 31.7114 79.0862 31.4279L77.1041 31.1603C77.0279 31.7253 77.0593 32.4266 77.3121 33.1647L79.2042 32.5167ZM79.0863 31.4266C79.1242 31.1433 79.2085 30.9441 79.2906 30.7599L77.4637 29.946C77.3607 30.1771 77.1807 30.5877 77.104 31.1617L79.0863 31.4266ZM79.2601 30.8224C79.3084 30.7315 79.3397 30.6771 79.3546 30.6528C79.3644 30.6368 79.3571 30.65 79.3378 30.6759C79.3326 30.6829 79.2971 30.7311 79.2397 30.7862C79.2159 30.809 79.141 30.8797 79.0252 30.9421C78.9551 30.9798 78.5616 31.1841 78.1051 30.9552L79.0016 29.1674C78.544 28.9379 78.149 29.1424 78.077 29.1812C77.9592 29.2446 77.882 29.3171 77.8555 29.3426C77.7926 29.4028 77.7501 29.4595 77.7361 29.4781C77.6995 29.5272 77.6686 29.5763 77.6486 29.609C77.604 29.6818 77.5516 29.7755 77.4942 29.8834L79.2601 30.8224ZM79.5534 30.0613V30.0436H77.5534V30.0613H79.5534Z" fill="#737373" mask="url(#path-16-inside-1_4579_5411)"/>
</g>
<path id="Vector_15" d="M77.7207 40.3901C78.0385 41.2154 78.4948 42.397 79.0469 43.8228C80.151 46.6745 81.6403 50.5034 83.1807 54.4116C84.7208 58.3194 86.3128 62.3086 87.6221 65.48C88.2765 67.0653 88.8609 68.4491 89.334 69.5171C89.7999 70.569 90.1742 71.3536 90.4033 71.7095C90.8412 72.3896 91.8692 73.5394 93.1465 74.8892C94.4368 76.2527 96.0222 77.862 97.6064 79.4771C99.1932 81.0947 100.78 82.7189 102.081 84.1187C103.394 85.5312 104.38 86.6776 104.797 87.353C105.237 88.0665 105.524 88.6243 105.678 89.0679C105.832 89.5126 105.837 89.7922 105.781 89.979C105.729 90.1535 105.601 90.3263 105.307 90.5093C105.003 90.6977 104.564 90.8712 103.956 91.0522C103.927 91.0608 103.822 91.0729 103.6 91.0181C103.388 90.9658 103.119 90.8646 102.792 90.7114C102.14 90.4054 101.315 89.9155 100.365 89.2769C98.4688 88.0018 96.1224 86.1698 93.7354 84.1392C91.3498 82.1097 88.9324 79.8892 86.8926 77.8413C84.8454 75.7859 83.2026 73.9285 82.3467 72.6196C81.4891 71.3082 80.2817 68.7413 78.9434 65.5874C77.6107 62.447 76.164 58.7631 74.8262 55.2446C73.4886 51.7267 72.262 48.3767 71.3691 45.9067C70.9229 44.6722 70.5597 43.6577 70.3086 42.9517C70.2179 42.6965 70.1413 42.4813 70.0811 42.311L77.4004 39.5591C77.4816 39.7703 77.5897 40.05 77.7207 40.3901Z" fill="#D9D9D9" stroke="#737373"/>
<path id="Vector_16" d="M68.9584 37.701L74.6982 35.5464C76.1218 35.0121 77.7079 35.7376 78.2404 37.1645L78.3562 37.4747C78.8886 38.9012 78.164 40.4956 76.7441 41.0286L71.0043 43.1832C69.5844 43.7162 67.9941 42.9908 67.4617 41.5642L67.346 41.254C66.8137 39.8275 67.5385 38.234 68.9584 37.701Z" fill="#D9D9D9" stroke="#737373"/>
<path id="Vector_17" d="M74.5219 35.0721C74.5219 35.0721 74.6276 35.0235 74.8391 34.9484C75.055 34.8953 75.381 34.8114 75.8084 34.8246C76.2358 34.8379 76.7601 34.9484 77.302 35.24C77.5664 35.3947 77.8307 35.5891 78.0775 35.8366C78.3154 36.0884 78.5313 36.3933 78.6943 36.7468C78.8485 37.1003 79.0027 37.4671 79.0732 37.8913C79.1437 38.3111 79.1393 38.7574 79.038 39.2081C78.8397 40.1007 78.2229 40.9712 77.2976 41.444C75.4251 42.1997 73.3763 42.9376 71.2218 43.7595C70.1027 44.1837 68.8074 43.9495 67.9394 43.2292C67.4988 42.8802 67.164 42.4206 66.9525 41.9213C66.7498 41.4396 66.5736 40.9226 66.5692 40.4012C66.5339 39.3628 66.9921 38.395 67.6795 37.7941C68.0187 37.4892 68.4108 37.2682 68.8074 37.1268C69.1951 36.9854 69.5652 36.8485 69.9177 36.7159C71.3188 36.2077 72.4599 35.7924 73.275 35.4919C73.6583 35.3593 73.9623 35.2533 74.1914 35.1693C74.4029 35.0986 74.5131 35.0633 74.5175 35.0721C74.5219 35.0809 74.4117 35.1295 74.209 35.2135C73.9843 35.3063 73.6803 35.4256 73.3058 35.5758C72.4951 35.8896 71.3628 36.327 69.9705 36.8661C69.2788 37.1622 68.4373 37.3345 67.8028 37.9355C67.1596 38.5099 66.7366 39.4246 66.7762 40.3924C66.7806 40.8784 66.9481 41.3557 67.1507 41.8329C67.349 42.2969 67.6618 42.7255 68.076 43.0525C68.8867 43.7241 70.0939 43.9362 71.1381 43.543C73.2838 42.7255 75.3678 41.9787 77.2007 41.254C78.0686 40.8166 78.6546 40.0035 78.8485 39.1639C78.9498 38.7441 78.9586 38.3199 78.897 37.9222C78.8353 37.529 78.6855 37.1578 78.5445 36.8175C78.3947 36.4817 78.1964 36.1856 77.9717 35.9426C77.7426 35.6996 77.4915 35.5096 77.2403 35.3593C76.7292 35.0677 76.2226 34.9484 75.8084 34.9219C74.9713 34.8865 74.5307 35.1163 74.5263 35.0809L74.5219 35.0721Z" fill="#737373"/>
</g>
<g id="Screwdriver">
<path id="Vector_18" d="M44.4409 75.9951L43.8765 82.1201L40.7769 86.8516L40.7378 86.9111L40.7173 86.9795L27.0356 131.716L24.0415 130.747C24.7414 128.466 27.8155 118.4 30.8706 108.385C32.5938 102.736 34.3135 97.099 35.6021 92.874C36.2463 90.7617 36.7822 89.0018 37.1577 87.7705C37.3455 87.1548 37.4937 86.6705 37.5942 86.3408C37.6444 86.1762 37.6825 86.0499 37.7085 85.9648C37.7215 85.9223 37.7312 85.8898 37.7378 85.8682C37.7411 85.8574 37.7439 85.8492 37.7456 85.8438C37.7464 85.8412 37.7471 85.8392 37.7476 85.8379V85.8359L37.7739 85.749L37.769 85.6592L37.4341 80.2256L40.7378 74.7695L44.4409 75.9951Z" fill="#D9D9D9" stroke="#737373"/>
<path id="Vector_19" d="M23.4219 131.067C23.4219 131.067 23.5144 131.093 23.6862 131.146C23.8625 131.204 24.118 131.279 24.4485 131.385C25.1226 131.597 26.1051 131.906 27.3828 132.313L27.3299 132.339C29.5638 124.995 34.7275 108.009 41.0897 87.0994V87.0861L41.1029 87.0729C42.1074 85.5395 43.1825 83.9002 44.2708 82.2387L44.2531 82.2917C44.447 80.1707 44.6541 77.9215 44.8612 75.6458L44.9405 75.7651C44.8259 75.7253 44.6981 75.6856 44.5704 75.6414C43.1957 75.1862 41.8299 74.7355 40.4773 74.2848L40.6094 74.2362C39.389 76.2512 38.1906 78.2308 37.0186 80.1663L37.0362 80.1C37.1508 82.0045 37.2653 83.8692 37.3755 85.6898V85.7119L37.3711 85.7295C33.3573 98.8048 29.8854 110.13 27.4093 118.195C26.1668 122.225 25.171 125.441 24.4881 127.655C24.1445 128.756 23.8801 129.608 23.6995 130.192C23.6113 130.475 23.5408 130.695 23.4924 130.85C23.4439 131 23.4175 131.075 23.4175 131.075C23.4175 131.075 23.4351 131.005 23.4748 130.859C23.5188 130.704 23.5849 130.492 23.6642 130.209C23.836 129.631 24.0916 128.782 24.4176 127.686C25.0873 125.472 26.0566 122.26 27.2727 118.23C29.7268 110.144 33.1766 98.7827 37.1596 85.6633V85.703C37.0406 83.8825 36.9261 82.0177 36.8071 80.1132V80.0779L36.8247 80.0469C37.9967 78.1115 39.1951 76.1319 40.4156 74.1169L40.464 74.0374L40.5522 74.0639C41.9048 74.5102 43.2662 74.9609 44.6453 75.4204C44.773 75.4602 44.8964 75.5044 45.0154 75.5442L45.1035 75.5751L45.0947 75.6679C44.8832 77.9436 44.6805 80.1928 44.4822 82.3138V82.3403L44.4646 82.3624C43.372 84.0239 42.2969 85.6633 41.2924 87.1922L41.3056 87.1612C34.8817 108.058 29.6651 125.026 27.4093 132.361L27.396 132.401L27.3564 132.388C26.0743 131.964 25.0873 131.637 24.4176 131.411C24.0916 131.301 23.8449 131.217 23.6686 131.159C23.5012 131.102 23.4219 131.071 23.4219 131.071V131.067Z" fill="#737373"/>
<path id="Vector_20" d="M20.8057 129.549H20.8066L30.7061 132.828H30.708C30.9605 132.911 31.0475 133.231 30.8701 133.43L30.8682 133.432L28.7979 135.769L28.6689 135.913L28.6719 136.107L28.7988 146.666L20.4336 177.231V177.232C20.431 177.24 20.4263 177.253 20.4199 177.272C20.4071 177.309 20.3868 177.366 20.3574 177.439C20.2984 177.585 20.204 177.797 20.0674 178.046C19.7934 178.546 19.3525 179.192 18.6846 179.777C17.4138 180.889 15.2518 181.844 11.6553 181.009L11.3027 180.922C7.95806 180.06 6.63214 178.141 6.10938 176.469C5.84347 175.618 5.78147 174.816 5.78711 174.225C5.78993 173.93 5.80968 173.69 5.82812 173.527C5.83734 173.445 5.8462 173.382 5.85254 173.341C5.85566 173.321 5.85875 173.306 5.86035 173.297V173.295L14.4512 142.043L20.5596 133.759L20.6729 133.605L20.6553 133.414L20.3203 129.942V129.941L20.3232 129.843C20.3584 129.624 20.5842 129.476 20.8057 129.549Z" fill="#D9D9D9" stroke="#737373"/>
<path id="Vector_21" d="M29.1937 136.263C29.176 136.325 27.1008 135.715 24.5586 134.911C22.0164 134.102 19.972 133.4 19.9941 133.338C20.0117 133.276 22.0869 133.881 24.6291 134.694C27.1713 135.503 29.2113 136.206 29.1937 136.268V136.263Z" fill="#737373"/>
<path id="Vector_22" d="M29.251 146.528C29.251 146.528 29.0263 146.506 28.6341 146.418C28.2376 146.334 27.6736 146.201 26.9731 146.024C25.5764 145.671 23.6554 145.141 21.5582 144.469C19.461 143.797 17.5885 143.117 16.2446 142.591C15.5749 142.33 15.033 142.109 14.6629 141.946C14.2928 141.787 14.0901 141.689 14.0946 141.676C14.099 141.663 14.3148 141.729 14.6938 141.862C15.1123 142.012 15.6543 142.206 16.3019 142.436C17.659 142.922 19.5359 143.576 21.6287 144.248C23.7215 144.915 25.6293 145.476 27.0172 145.865C27.678 146.051 28.2288 146.21 28.6606 146.329C29.0483 146.44 29.2598 146.51 29.2554 146.524L29.251 146.528Z" fill="#737373"/>
<path id="Vector_23" d="M16.643 145.273L16.8584 145.337C17.3625 145.487 17.6528 146.019 17.5027 146.528L9.76265 172.751C9.61246 173.259 9.07992 173.548 8.57587 173.398L8.36055 173.334C7.85662 173.184 7.56722 172.652 7.71711 172.144L15.4572 145.92C15.6073 145.412 16.139 145.123 16.643 145.273Z" stroke="#737373"/>
<path id="Vector_24" d="M21.0175 146.72L21.2328 146.784C21.7369 146.934 22.0272 147.467 21.877 147.975L14.1323 174.197C13.9821 174.705 13.4495 174.994 12.9455 174.844L12.7301 174.78C12.2262 174.63 11.9369 174.098 12.0869 173.589L19.8316 147.367C19.9817 146.859 20.5135 146.571 21.0175 146.72Z" stroke="#737373"/>
<path id="Vector_25" d="M25.6793 148.04L25.8946 148.104C26.3988 148.254 26.6891 148.786 26.539 149.295L18.7989 175.518C18.6487 176.026 18.1162 176.315 17.6121 176.165L17.3968 176.101C16.8929 175.951 16.6035 175.419 16.7534 174.911L24.4935 148.687C24.6435 148.179 25.1752 147.891 25.6793 148.04Z" stroke="#737373"/>
<path id="Vector_26" d="M41.1558 87.1117C41.1337 87.1735 40.2569 86.9218 39.1951 86.5553C38.1333 86.1888 37.2874 85.84 37.3094 85.7781C37.3314 85.7163 38.2082 85.968 39.27 86.3345C40.3318 86.701 41.1778 87.0499 41.1558 87.1117Z" fill="#737373"/>
<path id="Vector_27" d="M44.9801 75.6456C44.9801 75.6456 44.9361 75.8666 44.8259 76.2642C44.6981 76.6929 44.5307 77.2629 44.3236 77.9522C43.8698 79.4193 43.253 81.4122 42.5481 83.679L42.5128 83.7895L42.4027 83.7497C41.7462 83.5199 41.0677 83.2857 40.3715 83.0427C39.6534 82.7908 38.9528 82.5434 38.2787 82.3048L38.1774 82.2694L38.2038 82.1678C38.8427 79.8965 39.4022 77.9036 39.812 76.4366C40.0146 75.7472 40.1777 75.1861 40.3054 74.7618C40.4244 74.3686 40.4949 74.1609 40.5081 74.1609C40.5213 74.1609 40.4773 74.3818 40.3803 74.7795C40.2702 75.2081 40.1292 75.7782 39.953 76.4719C39.5608 77.9434 39.0277 79.9407 38.4197 82.2208L38.3492 82.0838C39.0233 82.318 39.7239 82.5655 40.442 82.8129C41.1382 83.056 41.8167 83.2946 42.4687 83.5288L42.3233 83.5995C43.0547 81.3415 43.698 79.3574 44.1738 77.8992C44.4074 77.2143 44.5968 76.6531 44.7378 76.2289C44.8744 75.84 44.9537 75.6279 44.9669 75.6324L44.9801 75.6456Z" fill="#737373"/>
</g>
<g id="Gears">
<path id="Vector_28" d="M174.938 30.6976C174.585 30.6976 174.233 30.6402 173.893 30.5209L168.5 28.6473C167.425 28.2717 166.619 27.3437 166.408 26.2214L165.328 20.5962C165.112 19.4738 165.513 18.3117 166.377 17.5649L170.695 13.8177C171.558 13.0709 172.761 12.8367 173.836 13.2123L179.229 15.0859C180.308 15.4615 181.11 16.3895 181.326 17.5119L182.406 23.1326C182.622 24.255 182.221 25.4171 181.357 26.1639L177.044 29.9111C176.453 30.4237 175.704 30.6932 174.946 30.6932L174.938 30.6976ZM169.827 25.3641L174.867 27.114L178.898 23.6098L177.89 18.3559L172.849 16.606L168.818 20.1101L169.827 25.3641Z" fill="#D9D9D9"/>
<path id="Vector_29" d="M137.381 21.4977C136.685 21.4977 136.011 21.1795 135.571 20.6271L134.033 18.7005C133.517 18.0554 133.381 17.1716 133.68 16.4028L134.575 14.105C134.874 13.3317 135.566 12.7749 136.386 12.6512L138.818 12.2756C139.633 12.1518 140.461 12.4744 140.981 13.1196L142.519 15.0462C143.034 15.6913 143.171 16.5751 142.871 17.344L141.977 19.6417C141.677 20.415 140.985 20.9718 140.166 21.0955L137.734 21.4711C137.619 21.4888 137.5 21.4977 137.386 21.4977H137.381ZM139.166 14.0166C139.139 14.0166 139.109 14.0166 139.082 14.021L136.65 14.3966C136.452 14.4275 136.289 14.5601 136.214 14.7457L135.319 17.0435C135.249 17.2291 135.28 17.4412 135.403 17.5958L136.941 19.5224C137.064 19.6771 137.262 19.7566 137.461 19.7257L139.893 19.3501C140.087 19.3192 140.254 19.1866 140.329 19.001L141.223 16.7032C141.294 16.5176 141.263 16.3055 141.14 16.1509L139.602 14.2243C139.496 14.0917 139.333 14.0166 139.166 14.0166Z" fill="#D9D9D9"/>
</g>
<g id="Character">
<path id="Vector_30" d="M241.174 26.6047C245.319 16.9401 256.065 12.0165 266.027 15.1272L266.5 15.2815L267.51 15.6243C272.791 17.7665 275.982 21.6711 277.297 26.3469C278.617 31.0398 278.053 36.5416 275.746 41.842V41.844L254.347 91.5833L235.858 85.8538L235.805 85.8372L235.75 85.8333L231.028 85.4417C231.772 83.4979 233.325 79.4095 234.756 75.6272C235.561 73.5019 236.328 71.4725 236.892 69.9739C237.174 69.2249 237.405 68.608 237.566 68.178C237.646 67.9631 237.709 67.7938 237.751 67.678C237.772 67.6206 237.789 67.5746 237.8 67.5422C237.806 67.5266 237.812 67.5105 237.816 67.4973C237.818 67.4918 237.822 67.4802 237.826 67.467C237.827 67.4623 237.831 67.444 237.835 67.4211C237.838 67.4066 237.843 67.365 237.844 67.3372C237.841 67.2729 237.734 67.0368 237.569 66.8977C237.574 66.8874 237.576 66.887 237.576 66.887L237.572 66.885C237.568 66.8831 237.562 66.8797 237.553 66.8752C237.537 66.8662 237.511 66.8523 237.477 66.8333C237.409 66.7949 237.307 66.7356 237.178 66.6565C236.92 66.4982 236.551 66.2585 236.119 65.9377C235.252 65.295 234.133 64.3311 233.123 63.0461C231.111 60.4891 229.519 56.6602 231.189 51.4875C232.855 46.3309 237.158 35.9657 241.174 26.6047Z" fill="#D9D9D9" stroke="white"/>
<path id="Vector_31" d="M237.842 66.2671C237.842 66.2671 244.425 68.9361 253.096 66.8504C253.096 66.8504 247.095 73.6509 236.789 69.0907L237.842 66.2671Z" fill="white"/>
<path id="Vector_32" d="M240.617 36.5157C240.317 37.3111 240.74 38.2213 241.564 38.5528C242.384 38.8798 243.296 38.5042 243.595 37.7088C243.895 36.9134 243.472 36.0031 242.648 35.6717C241.824 35.3447 240.916 35.7203 240.617 36.5157Z" fill="white"/>
<path id="Vector 12" d="M250 38.2756C247.5 40.2756 242.5 44.5756 242.5 45.7756C242.5 47.2756 244 48.7756 246 47.7756" stroke="white" stroke-linecap="round" stroke-linejoin="round"/>
<path id="Vector 13" d="M242.5 54.2756C243.667 55.9423 247 57.9756 251 52.7756" stroke="white" stroke-linecap="round" stroke-linejoin="round"/>
<path id="Vector 14" d="M239 33.4381C240.167 32.9381 242 32.7756 244 33.4381" stroke="white" stroke-linecap="round" stroke-linejoin="round"/>
<path id="Vector 15" d="M256 37.2811C257.213 37.654 259.675 38.8225 259.814 40.5138" stroke="white" stroke-linecap="round" stroke-linejoin="round"/>
<path id="Vector_33" d="M254.98 42.3088C254.681 43.1042 255.104 44.0145 255.927 44.3459C256.747 44.6729 257.659 44.2973 257.959 43.5019C258.258 42.7065 257.835 41.7962 257.011 41.4648C256.187 41.1334 255.28 41.5134 254.98 42.3088Z" fill="white"/>
<path id="Vector_34" d="M259.549 30.8683C259.562 31.3676 261.267 31.7123 263.109 32.5961C264.968 33.4401 266.33 34.5315 266.718 34.2178C266.894 34.0631 266.766 33.5549 266.286 32.9098C265.81 32.2691 264.96 31.5223 263.849 31.0053C262.739 30.4883 261.62 30.3159 260.827 30.3646C260.025 30.4087 259.554 30.6429 259.549 30.8771V30.8683Z" fill="white"/>
<path id="Vector_35" d="M243.921 26.18C244.084 26.6484 245.34 26.644 246.706 27.0859C248.085 27.4791 249.125 28.1862 249.521 27.8857C249.702 27.7354 249.645 27.3024 249.261 26.7766C248.887 26.2596 248.155 25.6895 247.213 25.4023C246.27 25.1151 245.349 25.1814 244.75 25.4023C244.142 25.6232 243.855 25.9547 243.921 26.18Z" fill="white"/>
<path id="Vector_36" d="M272.577 49.4498C272.785 49.4321 281.94 50.2023 277.926 57.2309C274.2 63.757 267.893 59.7411 267.893 59.7411" stroke="#D9D9D9"/>
<g id="Union">
<mask id="path-44-inside-2_4579_5411" fill="white">
<path fill-rule="evenodd" clip-rule="evenodd" d="M257.196 12.3403C253.843 12.5391 248.913 14.9695 249.83 16.0609L249.834 16.0653L251.839 15.102C251.839 15.102 251.967 16.6309 253.804 19.6092C255.082 21.6772 262.805 22.1898 267.396 22.3135C270.291 22.3887 272.934 24.0192 274.283 26.591C274.454 26.9179 274.578 27.2007 274.639 27.4084C275.014 28.6943 274.521 30.0907 273.772 31.1998C273.346 31.823 272.844 32.3871 272.342 32.9517C271.953 33.3879 271.565 33.8244 271.212 34.2885C269.722 36.2461 268.916 38.6278 268.136 40.961C267.039 44.2441 265.929 47.6776 266.427 51.1066C266.658 52.6964 267.742 54.6119 269.563 53.7721C269.366 55.2421 269.211 56.7341 269.084 58.269C269.084 58.2691 269.084 58.2693 269.084 58.2695V58.2739C269.084 58.2722 269.084 58.2706 269.084 58.269C272.071 54.6678 275.054 51.0268 277.376 46.9617C279.697 42.8964 281.354 38.3538 281.464 33.6699C281.477 33.1707 281.328 30.5961 281.005 29.0356C280.982 28.8406 280.958 28.6459 280.931 28.4513C280.2 23.1531 277.133 19.2336 272.864 16.0256C269.317 13.3654 262.263 12.0354 257.196 12.3403Z"/>
</mask>
<path fill-rule="evenodd" clip-rule="evenodd" d="M257.196 12.3403C253.843 12.5391 248.913 14.9695 249.83 16.0609L249.834 16.0653L251.839 15.102C251.839 15.102 251.967 16.6309 253.804 19.6092C255.082 21.6772 262.805 22.1898 267.396 22.3135C270.291 22.3887 272.934 24.0192 274.283 26.591C274.454 26.9179 274.578 27.2007 274.639 27.4084C275.014 28.6943 274.521 30.0907 273.772 31.1998C273.346 31.823 272.844 32.3871 272.342 32.9517C271.953 33.3879 271.565 33.8244 271.212 34.2885C269.722 36.2461 268.916 38.6278 268.136 40.961C267.039 44.2441 265.929 47.6776 266.427 51.1066C266.658 52.6964 267.742 54.6119 269.563 53.7721C269.366 55.2421 269.211 56.7341 269.084 58.269C269.084 58.2691 269.084 58.2693 269.084 58.2695V58.2739C269.084 58.2722 269.084 58.2706 269.084 58.269C272.071 54.6678 275.054 51.0268 277.376 46.9617C279.697 42.8964 281.354 38.3538 281.464 33.6699C281.477 33.1707 281.328 30.5961 281.005 29.0356C280.982 28.8406 280.958 28.6459 280.931 28.4513C280.2 23.1531 277.133 19.2336 272.864 16.0256C269.317 13.3654 262.263 12.0354 257.196 12.3403Z" fill="#D9D9D9"/>
<path d="M249.83 16.0609L249.064 16.7039L249.09 16.7357L249.12 16.7651L249.83 16.0609ZM257.196 12.3403L257.256 13.3385L257.256 13.3385L257.196 12.3403ZM249.834 16.0653L249.124 16.7695L249.625 17.275L250.267 16.9667L249.834 16.0653ZM251.839 15.102L252.835 15.0188L252.714 13.5718L251.406 14.2007L251.839 15.102ZM253.804 19.6092L252.953 20.1342L252.953 20.1348L253.804 19.6092ZM267.396 22.3135L267.369 23.3132L267.37 23.3132L267.396 22.3135ZM274.283 26.591L273.397 27.0553L273.397 27.0561L274.283 26.591ZM274.639 27.4084L275.6 27.1288L275.598 27.1237L274.639 27.4084ZM273.772 31.1998L274.598 31.7632L274.6 31.7594L273.772 31.1998ZM272.342 32.9517L273.089 33.6166V33.6166L272.342 32.9517ZM271.212 34.2885L270.416 33.6828L270.416 33.6831L271.212 34.2885ZM268.136 40.961L267.188 40.6439L267.188 40.644L268.136 40.961ZM266.427 51.1066L265.437 51.2502L265.437 51.2506L266.427 51.1066ZM269.563 53.7721L270.555 53.9052L270.797 52.1022L269.145 52.864L269.563 53.7721ZM269.084 58.2695L268.312 57.6328L268.084 57.91V58.2695H269.084ZM269.084 58.2739H268.084L270.08 58.3563L269.084 58.2739ZM277.376 46.9617L276.507 46.4657V46.4657L277.376 46.9617ZM281.464 33.6699L280.465 33.6451L280.465 33.6464L281.464 33.6699ZM281.005 29.0356L280.011 29.1483L280.016 29.1939L280.025 29.2388L281.005 29.0356ZM280.931 28.4513L281.922 28.3145V28.3145L280.931 28.4513ZM272.864 16.0256L273.465 15.2261L273.464 15.2256L272.864 16.0256ZM250.596 15.4179C250.726 15.5731 250.736 15.7802 250.7 15.8947C250.684 15.9467 250.685 15.898 250.829 15.7553C251.103 15.4814 251.629 15.1258 252.359 14.7602C253.81 14.0344 255.748 13.4279 257.256 13.3385L257.137 11.342C255.291 11.4515 253.088 12.1596 251.465 12.9715C250.658 13.3748 249.913 13.8439 249.417 14.3388C249.174 14.5805 248.915 14.9024 248.791 15.2969C248.648 15.754 248.704 16.2759 249.064 16.7039L250.596 15.4179ZM250.544 15.3612L250.54 15.3567L249.12 16.7651L249.124 16.7695L250.544 15.3612ZM251.406 14.2007L249.401 15.164L250.267 16.9667L252.272 16.0034L251.406 14.2007ZM254.655 19.0842C253.771 17.6514 253.313 16.5904 253.077 15.9112C252.959 15.5715 252.897 15.3267 252.865 15.1779C252.849 15.1035 252.841 15.053 252.837 15.0264C252.835 15.0132 252.834 15.0059 252.834 15.0046C252.834 15.004 252.834 15.0048 252.834 15.0072C252.834 15.0084 252.835 15.0099 252.835 15.0118C252.835 15.0128 252.835 15.0139 252.835 15.015C252.835 15.0156 252.835 15.0162 252.835 15.0168C252.835 15.0171 252.835 15.0176 252.835 15.0178C252.835 15.0183 252.835 15.0188 251.839 15.102C250.842 15.1853 250.842 15.1858 250.842 15.1863C250.842 15.1865 250.842 15.187 250.842 15.1874C250.842 15.1881 250.843 15.1888 250.843 15.1896C250.843 15.1911 250.843 15.1927 250.843 15.1944C250.843 15.1979 250.844 15.2016 250.844 15.2058C250.845 15.2141 250.846 15.2239 250.847 15.2352C250.85 15.2578 250.854 15.2863 250.859 15.3206C250.869 15.3893 250.885 15.4815 250.91 15.597C250.959 15.8279 251.044 16.1515 251.188 16.5663C251.475 17.3961 251.999 18.5888 252.953 20.1342L254.655 19.0842ZM267.423 21.3139C265.141 21.2524 262.11 21.0946 259.507 20.7017C258.202 20.5047 257.042 20.2542 256.151 19.9428C255.201 19.611 254.779 19.2843 254.655 19.0836L252.953 20.1348C253.468 20.9682 254.49 21.481 255.491 21.8309C256.551 22.201 257.849 22.4741 259.208 22.6793C261.934 23.0906 265.061 23.251 267.369 23.3132L267.423 21.3139ZM275.168 26.1266C273.65 23.231 270.676 21.3983 267.422 21.3139L267.37 23.3132C269.906 23.379 272.218 24.8073 273.397 27.0553L275.168 26.1266ZM275.598 27.1237C275.509 26.8254 275.352 26.4765 275.168 26.1258L273.397 27.0561C273.557 27.3593 273.646 27.5761 273.681 27.6931L275.598 27.1237ZM274.6 31.7594C275.423 30.5409 276.094 28.8277 275.6 27.1288L273.679 27.6881C273.934 28.5609 273.618 29.6405 272.943 30.6401L274.6 31.7594ZM273.089 33.6166C273.584 33.0602 274.13 32.4486 274.598 31.7632L272.945 30.6363C272.563 31.1974 272.105 31.7141 271.595 32.2869L273.089 33.6166ZM272.007 34.8943C272.334 34.4657 272.696 34.0576 273.089 33.6166L271.595 32.2869C271.211 32.7182 270.796 33.1831 270.416 33.6828L272.007 34.8943ZM269.085 41.278C269.873 38.9187 270.635 36.6984 272.008 34.894L270.416 33.6831C268.81 35.7937 267.959 38.3369 267.188 40.6439L269.085 41.278ZM267.416 50.9629C266.958 47.8069 267.975 44.5993 269.085 41.2779L267.188 40.644C266.104 43.889 264.9 47.5483 265.437 51.2502L267.416 50.9629ZM269.145 52.864C268.863 52.9937 268.683 52.988 268.57 52.9608C268.446 52.9312 268.298 52.8503 268.134 52.6729C267.786 52.2951 267.514 51.6318 267.416 50.9625L265.437 51.2506C265.571 52.1712 265.956 53.2606 266.664 54.0281C267.028 54.4233 267.507 54.7631 268.105 54.9061C268.715 55.0516 269.353 54.9704 269.982 54.6802L269.145 52.864ZM268.572 53.6391C268.372 55.1291 268.216 56.6383 268.087 58.1862L270.081 58.3517C270.207 56.83 270.36 55.3551 270.555 53.9052L268.572 53.6391ZM269.855 58.9061L269.855 58.9056L268.313 57.6323L268.312 57.6328L269.855 58.9061ZM270.084 58.2739V58.2695H268.084V58.2739H270.084ZM268.087 58.1865C268.087 58.187 268.087 58.1875 268.087 58.1884C268.087 58.1891 268.087 58.1902 268.087 58.1914L270.08 58.3563C270.08 58.3559 270.08 58.3553 270.08 58.3545C270.08 58.3537 270.08 58.3526 270.081 58.3514L268.087 58.1865ZM269.854 58.9074C272.835 55.3131 275.873 51.6091 278.244 47.4577L276.507 46.4657C274.235 50.4445 271.307 54.0225 268.314 57.6305L269.854 58.9074ZM278.244 47.4577C280.618 43.3003 282.349 38.5944 282.464 33.6934L280.465 33.6464C280.36 38.1133 278.777 42.4924 276.507 46.4657L278.244 47.4577ZM282.464 33.6946C282.478 33.1269 282.325 30.4753 281.984 28.8324L280.025 29.2388C280.332 30.7169 280.475 33.2145 280.465 33.6451L282.464 33.6946ZM279.941 28.588C279.966 28.7745 279.99 28.9613 280.011 29.1483L281.998 28.9229C281.975 28.72 281.95 28.5172 281.922 28.3145L279.941 28.588ZM272.263 16.825C276.402 19.9349 279.258 23.641 279.941 28.588L281.922 28.3145C281.142 22.6652 277.865 18.5323 273.465 15.2261L272.263 16.825ZM257.256 13.3385C259.688 13.1922 262.625 13.4383 265.385 14.0475C268.162 14.6605 270.654 15.6179 272.264 16.8255L273.464 15.2256C271.527 13.7731 268.719 12.7354 265.816 12.0945C262.895 11.4499 259.772 11.1835 257.136 11.3421L257.256 13.3385Z" fill="white" mask="url(#path-44-inside-2_4579_5411)"/>
</g>
<path id="Vector_37" d="M273.798 11.62C274.261 11.8542 285.086 18.562 285.015 28.3453C284.945 38.1285 283.161 40.5235 283.161 40.5235C283.161 40.5235 283.698 41.1731 284.024 42.0038C284.315 42.7462 282.654 45.2649 281.231 44.4253C271.511 35.38 258.117 30.1879 242.837 25.4421L231.312 21.3061C227.941 20.5637 227.099 19.3088 228.747 18.9641C230.012 18.699 240.48 18.1687 240.48 18.1687L242.741 17.4705L249.803 12.4729C249.803 12.4729 249.53 11.3461 250.962 10.9749C252.394 10.6081 264.691 6.98027 273.807 11.62H273.798Z" fill="#255DF9"/>
<g id="Group" opacity="0.3">
<path id="Vector_38" d="M282.742 20.4842C282.742 20.4842 270.793 14.0681 264.193 14.8458C264.449 14.8104 264.708 14.7751 264.964 14.7397C262.911 14.9121 260.858 15.0844 258.8 15.2523C257.76 15.3407 256.562 15.3716 255.848 14.6072C255.848 14.6072 259.589 13.0164 265.497 13.0473C271.406 13.0783 280.072 15.2037 282.738 20.4798L282.742 20.4842Z" fill="white"/>
</g>
<g id="Group_2" opacity="0.3">
<path id="Vector_39" d="M284.861 32.3841C282.601 31.5887 281.081 30.4044 278.997 29.1318C276.776 27.7796 274.543 26.5424 272.392 25.0842C270.758 23.9795 268.78 22.8085 268.053 21.0984C267.559 21.9822 267.546 22.9366 268.009 23.8336C268.471 24.7351 270.436 26.2949 271.269 26.8649C276.032 30.1128 279.341 32.331 284.663 34.589C284.808 34.0102 284.852 32.3752 284.852 32.3752" fill="white"/>
</g>
<path id="Vector_40" d="M284.976 27.2583C286.196 28.3806 286.936 29.1053 286.558 30.347C286.24 31.381 285.606 32.5608 284.544 32.3929C284.218 32.3399 283.927 32.172 283.645 32.0041C278.79 29.1495 273.93 26.2994 269.075 23.4448C268.581 23.1532 268.053 22.8218 267.863 22.2827C267.572 21.4519 268.299 20.5416 269.145 20.3119C269.991 20.0821 270.89 20.334 271.723 20.6035C276.472 22.1413 280.803 24.5142 284.976 27.2627" fill="#255DF9"/>
<path id="Vector_41" d="M247.574 14.0371L257.496 17.2231L255.712 19.7197L245.08 15.8046L247.574 14.0371Z" fill="white"/>
<path id="Vector_42" d="M261.972 81.5434L262.105 75.0124L239.819 83.3153C239.819 83.3153 235.7 69.8998 235.7 69.2635L230.761 72.3787L222.553 68.8393L214.344 64.7695L197.743 93.9161L180.326 145.422L221.367 172.872L251.795 140.168L270.291 111.901L280.46 93.9956L261.968 81.5478L261.972 81.5434Z" fill="#255DF9"/>
<path id="Vector_43" d="M53.1361 49.6799H220.957C224.225 49.6799 226.877 52.3374 226.877 55.6184V172.16C226.877 175.441 224.225 178.098 220.957 178.098H53.1361C49.8684 178.098 47.2163 175.441 47.2162 172.16V55.6184C47.2162 52.3374 49.8683 49.6799 53.1361 49.6799Z" fill="#D9D9D9" stroke="white"/>
<path id="Vector_44" d="M222.019 54.3191H51.5626V163.61H222.019V54.3191Z" fill="white"/>
<path id="Vector_45" d="M56.515 58.022H217.415C218.213 58.022 218.856 58.6715 218.856 59.4669V161.816C218.856 162.615 218.208 163.261 217.415 163.261H56.515C55.7175 163.261 55.0742 162.611 55.0742 161.816V59.4669C55.0742 58.6671 55.7219 58.022 56.515 58.022Z" fill="#EBEBEB"/>
<path id="Vector_46" d="M218.975 161.729H55.0742L55.2506 65.8403H218.975V161.729Z" fill="#002999"/>
<path id="Vector_47" d="M68.8384 62.083C68.8384 62.8651 68.2348 63.5014 67.4902 63.5014C66.7456 63.5014 66.142 62.8651 66.142 62.083C66.142 61.3009 66.7456 60.6646 67.4902 60.6646C68.2348 60.6646 68.8384 61.2964 68.8384 62.083Z" fill="white"/>
<path id="Vector_48" d="M60.6609 62.083C60.6609 62.8651 60.0573 63.5014 59.3127 63.5014C58.5681 63.5014 57.9645 62.8651 57.9645 62.083C57.9645 61.3009 58.5681 60.6646 59.3127 60.6646C60.0573 60.6646 60.6609 61.2964 60.6609 62.083Z" fill="white"/>
<path id="Vector_49" d="M64.8642 62.083C64.8642 62.8651 64.2605 63.5014 63.5159 63.5014C62.7713 63.5014 62.1677 62.8651 62.1677 62.083C62.1677 61.3009 62.7713 60.6646 63.5159 60.6646C64.2605 60.6646 64.8642 61.2964 64.8642 62.083Z" fill="white"/>
<path id="Vector_50" d="M145.46 80.6765L145.533 80.9705L145.827 81.0437C148.771 81.7711 151.638 82.8903 154.352 84.406L154.617 84.5535L154.871 84.3875L161.739 79.8699L171.417 89.2429L167.161 96.2869L167.004 96.5447L167.161 96.8035C168.767 99.4689 169.983 102.305 170.808 105.227L170.891 105.519L171.187 105.581L179.229 107.258L179.466 120.75L171.487 122.715L171.194 122.787L171.122 123.081C170.396 126.034 169.279 128.909 167.768 131.627L167.622 131.89L167.787 132.143L172.288 139.034L162.941 148.741L155.921 144.473L155.662 144.315L155.403 144.473C152.745 146.085 149.918 147.304 147.004 148.132L146.712 148.215L146.651 148.51L144.979 156.577L131.528 156.814L129.571 148.811L129.498 148.517L129.205 148.445C126.26 147.718 123.394 146.598 120.685 145.083L120.419 144.934L120.165 145.101L113.296 149.618L103.619 140.244L107.875 133.202L108.032 132.943L107.875 132.685C106.269 130.02 105.053 127.184 104.223 124.26L104.14 123.969L103.844 123.908L95.8012 122.23L95.5649 108.738L103.544 106.774L103.838 106.702L103.911 106.408C104.636 103.455 105.752 100.58 107.263 97.8621L107.41 97.5984L107.245 97.3455L102.744 90.4539L112.089 80.7468L119.059 84.9841L119.297 85.2234L119.633 85.0203C122.291 83.4089 125.118 82.1892 128.033 81.3572L128.324 81.2742L128.385 80.9773L130.057 72.9109L143.507 72.6736L145.46 80.6765ZM148.938 102.894C142.663 96.8205 132.666 96.9938 126.61 103.287C120.555 109.579 120.728 119.602 127.001 125.676C133.276 131.749 143.273 131.576 149.33 125.283C155.385 118.991 155.212 108.968 148.938 102.894Z" fill="white" stroke="white"/>
<path id="Vector_51" d="M195.049 84.3171L195.139 84.6072L195.438 84.6609C196.458 84.847 197.438 85.1731 198.355 85.614L198.629 85.7458L198.872 85.5632L200.929 84.0232L204.054 86.7058L202.857 88.9871L202.716 89.2546L202.888 89.5037C203.466 90.3417 203.935 91.2609 204.282 92.2488L204.381 92.5339L204.681 92.5779L207.224 92.949L207.546 97.0662L205.093 97.8318L204.804 97.9226L204.751 98.2205C204.565 99.2441 204.24 100.227 203.8 101.147L203.67 101.42L203.85 101.661L205.387 103.727L202.712 106.862L200.44 105.662L200.172 105.52L199.922 105.693C199.086 106.273 198.17 106.743 197.185 107.091L196.9 107.191L196.857 107.491L196.486 110.042L192.383 110.364L191.621 107.905L191.531 107.615L191.233 107.561L190.852 107.485C189.969 107.292 189.118 106.994 188.315 106.608L188.043 106.476L187.799 106.658L185.741 108.198L182.615 105.515L183.814 103.235L183.955 102.968L183.783 102.719C183.205 101.88 182.736 100.961 182.389 99.9734L182.289 99.6873L181.99 99.6443L179.446 99.2732L179.124 95.155L181.582 94.3904L181.577 94.364C181.706 94.3082 181.816 94.2272 181.839 94.197C181.852 94.1786 181.869 94.149 181.875 94.1384C181.883 94.1211 181.889 94.1065 181.89 94.1033C181.894 94.094 181.897 94.0864 181.898 94.0837C181.9 94.0773 181.903 94.0708 181.904 94.0671C181.907 94.0588 181.911 94.0484 181.915 94.0369C181.923 94.0132 181.933 93.9792 181.947 93.9373C181.974 93.8532 182.014 93.7336 182.06 93.5906C182.153 93.304 182.277 92.9215 182.401 92.5398C182.525 92.1581 182.648 91.7762 182.741 91.49C182.787 91.3469 182.826 91.2278 182.853 91.1443C182.867 91.1027 182.877 91.07 182.884 91.0476C182.888 91.0367 182.89 91.028 182.892 91.0222C182.893 91.0193 182.895 91.0169 182.895 91.0154V91.0134L182.975 90.7673L182.821 90.5603L181.283 88.4939L183.959 85.3591L186.231 86.5603L186.5 86.7019L186.75 86.5291C187.585 85.9492 188.501 85.4792 189.486 85.1316L189.771 85.031L189.814 84.7312L190.184 82.1785L194.286 81.8572L195.049 84.3171ZM199.061 96.4167C199.378 92.6885 196.244 89.7315 192.658 90.1394L192.309 90.1902C189.77 90.6308 187.779 92.7806 187.561 95.3601L187.515 95.9021H187.547C187.563 99.3688 190.558 102.024 193.965 101.635L194.313 101.586C196.852 101.145 198.843 98.9959 199.061 96.4167Z" fill="#D9D9D9" stroke="white"/>
<path id="Vector_52" d="M83.2676 125.711L83.3994 125.983L83.7012 125.993C84.9393 126.031 86.1471 126.232 87.3027 126.585L87.5928 126.674L87.8057 126.458L89.9834 124.238L94.2295 126.881L93.2148 129.829L93.1162 130.114L93.3232 130.333C94.1528 131.217 94.8708 132.211 95.4531 133.306L95.5957 133.574L95.8984 133.571L99.001 133.547L100.142 138.43L97.3496 139.793L97.0791 139.926L97.0693 140.228C97.031 141.47 96.8312 142.681 96.4785 143.84L96.3906 144.129L96.6055 144.341L98.8193 146.527L96.1826 150.788L93.248 149.77L92.9609 149.671L92.7412 149.879C91.8606 150.711 90.8695 151.432 89.7773 152.016L89.5107 152.158L89.5137 152.46L89.5361 155.574L84.666 156.716L83.3076 153.917L83.1758 153.645L82.873 153.636L82.4111 153.614C81.3347 153.545 80.2838 153.353 79.2725 153.043L78.9824 152.955L78.7695 153.171L76.5918 155.39L72.3447 152.747L73.3604 149.8L73.458 149.515L73.252 149.295C72.4224 148.412 71.7034 147.418 71.1211 146.323L70.9795 146.055L70.6758 146.057L67.5723 146.08L66.4326 141.198L69.2246 139.835L69.4971 139.703L69.5059 139.4C69.5398 138.16 69.7436 136.949 70.0967 135.789L70.1846 135.5L69.9697 135.288L67.7539 133.101L70.3916 128.84L73.3271 129.858L73.6143 129.958L73.834 129.75C74.7146 128.918 75.7057 128.197 76.7979 127.613L77.0645 127.47L77.0615 127.168L77.0381 124.054L81.9082 122.911L83.2676 125.711ZM89.7734 138.021C88.9265 134.4 85.3099 132.146 81.6953 132.996C78.0813 133.846 75.8407 137.474 76.6826 141.094V141.095C77.5296 144.716 81.1471 146.971 84.7617 146.121C88.3749 145.271 90.6203 141.643 89.7734 138.021Z" fill="#D9D9D9" stroke="white"/>
<path id="Vector_53" d="M89.2892 84.9734L89.3781 85.2625L89.6749 85.3181C90.4387 85.4604 91.1673 85.6982 91.8439 86.0271L92.1173 86.1609L92.3615 85.9783L93.8341 84.8748L96.0421 86.7673L95.1837 88.4031L95.0431 88.6707L95.215 88.9197C95.6435 89.5414 95.9935 90.2268 96.2521 90.9587L96.3527 91.2429L96.6515 91.2869L98.4718 91.5515L98.6964 94.4578L96.9415 95.0027L96.6525 95.0925L96.5978 95.3894C96.4558 96.1557 96.2178 96.8864 95.8898 97.5652L95.7579 97.8376L95.9396 98.0808L97.0402 99.5593L95.1525 101.775L93.5245 100.915L93.256 100.773L93.006 100.946C92.3861 101.376 91.7033 101.727 90.9738 101.986L90.6896 102.088L90.6466 102.385L90.381 104.212L87.4874 104.437L86.9445 102.677L86.8556 102.388L86.5577 102.333C85.7942 102.19 85.0662 101.953 84.3898 101.624L84.1154 101.49L83.8712 101.673L82.3986 102.775L80.1896 100.883L81.049 99.2478L81.1896 98.9802L81.0187 98.7312C80.5901 98.1094 80.2392 97.4242 79.9806 96.6921L79.88 96.408L79.5812 96.364L77.7609 96.0984L77.5353 93.1931L79.2921 92.6482L79.5822 92.5583L79.6359 92.2595C79.773 91.4967 80.0141 90.7661 80.3429 90.0857L80.4747 89.8132L80.2941 89.5701L79.1915 88.0906L81.0792 85.8748L82.7081 86.7361L82.9767 86.8777L83.2267 86.7048C83.8465 86.2751 84.5294 85.924 85.2589 85.6648L85.5431 85.5632L85.587 85.2644L85.8507 83.4382L88.7452 83.2117L89.2892 84.9734ZM92.5646 93.3113C92.3713 90.8417 90.2205 88.9951 87.7579 89.1892C85.3691 89.3772 83.5682 91.4091 83.6339 93.7781L83.6456 94.0085C83.8391 96.478 85.9908 98.3248 88.4532 98.1306C90.919 97.9365 92.7579 95.7774 92.5646 93.3113Z" fill="#D9D9D9" stroke="white"/>
<path id="Vector_54" d="M185.136 125.884L185.224 126.173L185.522 126.227C186.17 126.347 186.789 126.55 187.369 126.831L187.643 126.964L187.887 126.782L189.108 125.868L190.92 127.42L190.071 129.04L190.241 129.289C190.605 129.82 190.907 130.403 191.125 131.023L191.225 131.308L191.524 131.352L193.031 131.572L193.217 133.958L191.762 134.41L191.473 134.5L191.418 134.797C191.298 135.447 191.095 136.068 190.815 136.65L190.684 136.923L190.865 137.166L191.776 138.392L190.228 140.21L188.882 139.5L188.613 139.358L188.363 139.532C187.837 139.899 187.255 140.197 186.636 140.417L186.351 140.517L186.308 140.816L186.088 142.329L183.713 142.514L183.263 141.054L183.173 140.765L182.876 140.71L182.634 140.661C182.073 140.538 181.536 140.352 181.028 140.106L180.755 139.974L180.512 140.156L179.29 141.069L177.477 139.516L178.187 138.164L178.328 137.896L178.155 137.647C177.789 137.119 177.492 136.535 177.273 135.914L177.173 135.63L176.874 135.586L175.365 135.365L175.18 132.98L176.637 132.528L176.926 132.438L176.98 132.141C177.1 131.491 177.302 130.87 177.582 130.288L177.714 130.015L177.533 129.772L176.62 128.545L178.169 126.726L179.516 127.437L179.785 127.58L180.035 127.405C180.561 127.038 181.142 126.741 181.762 126.521L182.047 126.421L182.09 126.122L182.309 124.608L184.684 124.422L185.136 125.884ZM183.883 129.418C181.723 129.585 180.12 131.476 180.286 133.635C180.453 135.798 182.336 137.409 184.493 137.242C186.585 137.08 188.156 135.3 188.1 133.225L188.09 133.024L188.069 132.823C187.805 130.767 185.972 129.256 183.883 129.418Z" fill="#D9D9D9" stroke="white"/>
<path id="Vector_55" d="M137.68 135.658H116.742C111.334 135.658 107.955 129.797 110.661 125.108L121.132 106.954L131.603 88.8001C134.305 84.1109 141.068 84.1109 143.77 88.8001L154.241 106.954L164.712 125.108C167.414 129.797 164.035 135.658 158.631 135.658H137.693H137.68Z" fill="#255DF9"/>
<path id="Vector_56" d="M133.478 94.0764C135.293 90.7843 139.732 90.6814 141.711 93.7678L141.895 94.0764L149.893 108.568L157.89 123.059C159.789 126.503 157.392 130.739 153.683 130.739H121.69C117.978 130.739 115.581 126.503 117.483 123.06L125.48 108.568L133.478 94.0764Z" fill="#255DF9" stroke="white"/>
<path id="Vector_57" d="M133.971 123.911C133.971 121.963 135.518 120.509 137.73 120.509C139.941 120.509 141.453 121.963 141.453 123.911C141.453 125.86 139.937 127.38 137.73 127.38C135.522 127.38 133.971 125.829 133.971 123.911ZM134.006 103.951H141.453L140.201 118.657H135.227L134.006 103.951Z" fill="white"/>
<path id="Vector_58" d="M265.726 155.015C262.1 151.007 256.606 149.721 251.786 151.272L247.569 146.633L246.983 145.974L213.617 109.258C215.622 104.596 214.877 98.9845 211.256 94.9766C208.172 91.5697 203.739 90.1247 199.514 90.7257L197.884 91.3752L203.559 95.1975L203.259 101.402L198.672 105.577L192.486 105.277L188.442 100.805L186.768 101.459C186.287 105.206 188.794 109.921 191.522 112.939C195.139 116.938 200.624 118.228 205.44 116.691L239.366 154.021L240.41 155.183L243.626 158.722C241.63 163.384 242.379 168.983 246.001 172.982C248.719 175.987 252.323 177.993 256.073 177.891L257.747 177.237L253.703 172.765L254.002 166.561L258.589 162.386L264.775 162.686L267.149 167.812L268.824 167.158C269.828 163 268.824 158.431 265.744 155.024L265.726 155.015Z" fill="#D9D9D9"/>
<path id="Vector_59" d="M199.638 91.2131C203.562 90.6719 207.663 91.9618 210.603 95.01L210.885 95.3118C214.37 99.1691 215.089 104.572 213.158 109.061L213.03 109.357L213.247 109.594L246.609 146.306V146.307L247.196 146.965L247.199 146.969L251.416 151.609L251.633 151.847L251.939 151.748C256.578 150.255 261.866 151.494 265.356 155.351L265.418 155.42L265.432 155.427C268.288 158.63 269.256 162.88 268.395 166.788L267.404 167.175L265.229 162.476L265.101 162.201L264.799 162.187L258.613 161.886L258.405 161.876L258.252 162.016L253.665 166.192L253.513 166.331L253.503 166.537L253.203 172.741L253.193 172.948L253.332 173.101L256.89 177.035L255.976 177.392C252.445 177.456 249.006 175.557 246.372 172.647H246.371C242.886 168.798 242.164 163.409 244.086 158.919L244.212 158.624L243.996 158.386L240.779 154.847L239.737 153.687L239.735 153.685L205.81 116.355L205.594 116.116L205.288 116.214C200.797 117.648 195.702 116.527 192.224 112.957L191.893 112.604C190.562 111.131 189.282 109.241 188.398 107.268C187.559 105.397 187.093 103.492 187.234 101.814L188.302 101.396L192.115 105.613L192.255 105.766L192.462 105.777L198.649 106.076L198.856 106.087L199.009 105.948L203.596 101.772L203.748 101.632L203.758 101.426L204.058 95.2219L204.071 94.9407L203.838 94.7825L198.948 91.4885L199.638 91.2131Z" fill="white" stroke="white"/>
<path id="Vector_60" d="M198.876 91.7754C202.643 91.5269 206.479 92.9445 209.215 95.9658C212.7 99.8231 213.418 105.226 211.488 109.715L211.361 110.011L211.577 110.248L244.943 146.964L245.526 147.619L245.529 147.623L249.746 152.263L249.963 152.501L250.269 152.402C254.909 150.909 260.196 152.148 263.685 156.005L263.749 156.074L263.753 156.076C266.439 159.089 267.455 163.026 266.849 166.736L263.471 163L263.332 162.847L263.125 162.836L256.938 162.536L256.731 162.525L256.578 162.666L251.991 166.842L251.839 166.98L251.829 167.187L251.529 173.391L251.519 173.598L251.657 173.751L255.039 177.49C251.272 177.738 247.437 176.322 244.702 173.301C241.216 169.452 240.494 164.063 242.416 159.573L242.543 159.278L242.326 159.04L239.11 155.501L238.067 154.341L238.066 154.339L204.14 117.009L203.924 116.771L203.618 116.868C199.127 118.302 194.033 117.181 190.554 113.611L190.222 113.258C187.492 110.237 186.456 106.267 187.066 102.53L190.446 106.267L190.585 106.42L190.793 106.431L196.978 106.73L197.185 106.741L197.339 106.602L201.926 102.426L202.079 102.286L202.089 102.08L202.388 95.876L202.398 95.6689L202.26 95.5166L198.876 91.7754Z" fill="#F6F6F6" stroke="white"/>
<path id="Vector_61" d="M247.68 127.999L234.986 122.077L223.658 120.659L227.818 124.172C227.818 124.172 213.172 129.289 212.917 130.447C212.661 131.6 214.076 134.702 216.653 134.128C216.653 134.128 215.203 135.877 215.807 137.839C216.411 139.801 217.746 140.155 220.209 139.7C220.209 139.7 218.534 142.214 219.847 143.495C221.16 144.777 223.205 144.45 223.205 144.45C223.205 144.45 223.231 147.512 224.844 147.782C226.456 148.051 230.95 147.733 232.629 147.212C234.308 146.69 241.154 144.569 241.154 144.569L246.71 143.345L247.684 127.985L247.68 127.999Z" fill="#D9D9D9"/>
<path id="Vector_62" d="M217.038 134.445V134.447C217.036 134.449 217.034 134.452 217.03 134.457C217.022 134.467 217.009 134.483 216.993 134.505C216.96 134.549 216.912 134.616 216.855 134.704C216.741 134.88 216.594 135.133 216.464 135.441C216.203 136.063 216.03 136.864 216.285 137.692C216.556 138.573 216.957 139.004 217.491 139.21C218.071 139.434 218.903 139.432 220.118 139.208L221.28 138.993L220.625 139.976C220.624 139.977 220.624 139.979 220.623 139.98C220.62 139.984 220.617 139.989 220.612 139.997C220.602 140.013 220.586 140.037 220.567 140.069C220.528 140.134 220.472 140.229 220.409 140.347C220.281 140.586 220.127 140.913 220.011 141.27C219.767 142.028 219.761 142.712 220.197 143.137C220.744 143.671 221.46 143.885 222.076 143.957C222.38 143.992 222.648 143.991 222.839 143.981C222.934 143.976 223.009 143.97 223.059 143.965C223.084 143.962 223.102 143.959 223.114 143.958C223.119 143.957 223.123 143.956 223.125 143.956L223.7 143.864L223.705 144.445C223.705 144.446 223.705 144.448 223.705 144.45C223.705 144.454 223.705 144.462 223.706 144.471C223.706 144.491 223.707 144.521 223.708 144.559C223.712 144.637 223.719 144.749 223.732 144.885C223.758 145.16 223.808 145.523 223.903 145.888C223.999 146.259 224.135 146.603 224.316 146.859C224.492 147.109 224.691 147.249 224.926 147.289C225.669 147.413 227.143 147.406 228.675 147.295C230.206 147.184 231.7 146.977 232.481 146.734C233.321 146.473 235.452 145.813 237.374 145.218C238.334 144.92 239.243 144.638 239.911 144.431C240.244 144.328 240.518 144.242 240.708 144.183C240.804 144.154 240.879 144.132 240.929 144.116C240.954 144.108 240.974 144.101 240.987 144.097C240.993 144.095 240.998 144.095 241.001 144.094C241.003 144.093 241.005 144.092 241.005 144.092H241.006L241.027 144.086L241.046 144.081L246.235 142.937L247.164 128.278L245.604 127.464L234.85 122.564L225.268 121.364L228.14 123.79L228.809 124.355L227.983 124.644H227.982L227.98 124.645C227.978 124.646 227.975 124.646 227.972 124.647C227.965 124.65 227.955 124.654 227.941 124.659C227.913 124.669 227.872 124.682 227.819 124.701C227.712 124.739 227.555 124.794 227.355 124.865C226.955 125.007 226.382 125.211 225.695 125.46C224.32 125.957 222.485 126.631 220.643 127.342C218.799 128.053 216.955 128.796 215.56 129.432C214.861 129.751 214.286 130.038 213.884 130.275C213.682 130.394 213.538 130.493 213.447 130.569C213.425 130.587 213.41 130.603 213.398 130.615C213.375 130.793 213.397 131.082 213.508 131.442C213.629 131.833 213.836 132.258 214.121 132.633C214.689 133.381 215.507 133.871 216.544 133.639L217.97 133.322L217.038 134.445ZM217.038 134.445L217.039 134.446L217.038 134.445Z" fill="#D9D9D9" stroke="white"/>
<path id="Vector_63" d="M245.296 126.885L272.741 136.854L271.137 155.744L240.921 143.53L245.296 126.885Z" fill="#D9D9D9"/>
<path id="Vector_64" d="M244.314 127.012L272.741 136.854L271.137 155.744L240.921 143.531" stroke="white"/>
<path id="Vector_65" d="M280.508 93.8277C280.508 93.8277 284.086 97.535 286.17 104.203C288.236 110.822 298.079 139.134 297.828 148.131C297.568 157.432 291.325 164.069 277.605 160.393C269.418 158.201 259.664 154.653 259.664 154.653L266.594 131.794L272.018 133.164L263.259 116.677L280.504 93.8232L280.508 93.8277Z" fill="#255DF9"/>
<path id="Vector_66" d="M291.843 137.971C291.733 136.879 290.918 135.956 289.953 135.439C288.988 134.922 287.539 134.693 286.455 134.543C281.525 133.862 276.881 132.72 271.906 132.534V133.036C278.048 134.172 284.529 136.636 290.319 138.982C290.654 139.119 291.028 139.256 291.359 139.106C291.76 138.925 291.883 138.408 291.839 137.966L291.843 137.971Z" fill="white"/>
<g id="Group_3" opacity="0.3">
<path id="Vector_67" d="M178.674 49.6351C174.048 48.8486 168.518 50.1919 163.892 49.4054C163.2 49.286 162.442 49.18 161.839 49.5291C161.107 49.9489 160.856 50.8857 160.821 51.7296C160.724 54.0628 161.799 56.3694 163.482 57.9867C165.165 59.604 167.399 60.5717 169.699 60.965C171.545 61.2787 173.528 61.2213 175.176 60.3243C178.048 58.7644 179.44 52.8211 178.678 49.6351H178.674Z" fill="white"/>
</g>
<path id="Vector_68" d="M174.238 59.666H174.239C174.239 59.6662 174.238 59.6683 174.237 59.6719C174.234 59.6792 174.228 59.6926 174.219 59.7109C174.201 59.7485 174.171 59.8054 174.127 59.8711C174.039 60.0035 173.9 60.1626 173.698 60.2842C173.33 60.5054 172.591 60.6935 171.208 59.9541C171.091 59.8916 170.954 59.8776 170.827 59.916C170.827 59.9162 170.826 59.9166 170.824 59.917L170.737 59.9414C170.673 59.9582 170.58 59.9816 170.464 60.0068C170.231 60.0576 169.913 60.1153 169.568 60.1426C169.22 60.17 168.861 60.1655 168.541 60.1035C168.22 60.0413 167.971 59.9271 167.8 59.7617C167.727 59.6909 167.582 59.4872 167.373 59.1172C167.174 58.7651 166.942 58.309 166.689 57.7822C166.182 56.7295 165.603 55.4159 165.054 54.1289C164.506 52.8432 163.989 51.5888 163.611 50.6553C163.421 50.1886 163.266 49.8016 163.158 49.5322C163.105 49.3978 163.063 49.2924 163.034 49.2207C163.02 49.1848 163.009 49.1571 163.002 49.1387C162.999 49.1297 162.996 49.1228 162.994 49.1182C162.993 49.116 162.992 49.1144 162.991 49.1133V49.1113C162.902 48.886 162.664 48.7567 162.427 48.8047C162.19 48.8527 162.021 49.0637 162.027 49.3057L162.136 54.1797C162.138 54.2721 162.166 54.3628 162.216 54.4404L162.217 54.4414C162.218 54.4426 162.219 54.4447 162.221 54.4473C162.224 54.4525 162.23 54.461 162.237 54.4717C162.25 54.4933 162.271 54.5258 162.296 54.5674C162.348 54.6513 162.42 54.7735 162.505 54.9219C162.676 55.2202 162.891 55.6208 163.073 56.0391C163.259 56.4644 163.398 56.8764 163.44 57.2051C163.484 57.5588 163.4 57.6436 163.379 57.6592C163.045 57.9054 162.483 57.9474 161.89 57.873C161.611 57.8381 161.358 57.7824 161.175 57.7344C161.11 57.7174 161.054 57.7007 161.01 57.6875C161.003 57.6786 160.995 57.669 160.987 57.6592C160.91 57.5677 160.801 57.4347 160.668 57.2705C160.402 56.9414 160.043 56.4872 159.672 55.9873C159.301 55.4863 158.921 54.9443 158.612 54.4385C158.296 53.9219 158.077 53.481 157.995 53.1738L157.956 52.9932C157.873 52.5238 157.847 51.7278 157.861 50.793C157.876 49.7501 157.939 48.6064 157.998 47.7148L157.997 47.7139C158.07 46.6632 158.719 45.7356 159.663 45.416C159.832 45.359 159.965 45.3384 160.06 45.3428C160.146 45.3468 160.187 45.3699 160.214 45.3945C160.326 45.4974 160.479 45.5439 160.629 45.5205C160.779 45.497 160.91 45.4056 160.986 45.2734C160.987 45.274 160.987 45.2744 160.987 45.2744L160.986 45.2754L160.985 45.2773C160.984 45.2784 160.983 45.2794 160.983 45.2803C160.982 45.2819 160.981 45.2833 160.981 45.2842L161.002 45.2529C161.028 45.2172 161.077 45.1522 161.162 45.0498C161.333 44.8442 161.643 44.4939 162.188 43.9346C162.779 43.3277 163.101 42.9556 163.556 42.7607C163.973 42.5824 164.575 42.5356 165.739 42.873C165.919 42.9252 166.114 42.8724 166.242 42.7363V42.7354L166.259 42.7188C166.271 42.7064 166.289 42.6879 166.313 42.6641C166.361 42.6157 166.431 42.5455 166.519 42.4619C166.695 42.2942 166.938 42.0739 167.209 41.8594C167.483 41.6429 167.773 41.4424 168.042 41.3066C168.326 41.1638 168.517 41.1284 168.621 41.1426C169.112 41.2101 169.604 41.3166 169.977 41.4072C170.162 41.4523 170.317 41.4931 170.424 41.5225C170.477 41.5371 170.519 41.5487 170.547 41.5566C170.561 41.5606 170.571 41.5634 170.578 41.5654C170.582 41.5664 170.585 41.5679 170.586 41.5684H170.588C170.641 41.584 170.696 41.5912 170.751 41.5889H170.752C170.754 41.5888 170.756 41.588 170.759 41.5879C170.765 41.5877 170.776 41.5873 170.789 41.5869C170.816 41.5861 170.857 41.585 170.908 41.584C171.013 41.582 171.164 41.581 171.348 41.583C171.717 41.587 172.214 41.6052 172.732 41.6602C173.253 41.7155 173.777 41.806 174.208 41.9492C174.657 42.0986 174.914 42.2754 175.02 42.4385L175.021 42.4395C175.468 43.1298 176.331 43.5554 177.044 43.8164C178.158 44.2235 179.065 45.0338 179.548 46.1006V46.1016C179.891 46.8645 180.077 47.6718 180.176 48.2959C180.208 48.4987 180.229 48.6807 180.245 48.833L176.785 48.9717C176.511 48.9828 176.297 49.2132 176.306 49.4873V49.4932C176.306 49.4974 176.307 49.5042 176.307 49.5127C176.307 49.5297 176.308 49.5549 176.309 49.5879C176.311 49.6544 176.313 49.7528 176.316 49.8779C176.321 50.1281 176.329 50.4865 176.334 50.9189C176.345 51.7849 176.349 52.9458 176.321 54.1279C176.294 55.3129 176.237 56.5074 176.125 57.4453C176.069 57.9159 176.001 58.3059 175.923 58.5918C175.884 58.7347 175.846 58.8381 175.812 58.9072C175.795 58.9417 175.782 58.9601 175.777 58.9678C175.328 59.2963 175.068 59.3668 174.962 59.3799C174.936 59.3831 174.918 59.3824 174.909 59.3818C174.798 59.3328 174.672 59.3241 174.554 59.3623C174.408 59.4098 174.291 59.5219 174.238 59.666ZM174.979 59.418C174.96 59.4058 174.939 59.3971 174.919 59.3877C174.924 59.3894 174.93 59.3905 174.937 59.3936C174.944 59.3969 174.952 59.402 174.961 59.4072C174.966 59.4099 174.971 59.4128 174.976 59.416C174.977 59.4166 174.978 59.4174 174.979 59.418Z" fill="#D9D9D9" stroke="white" stroke-linejoin="round"/>
<path id="Vector_69" d="M234.887 170.625V173.584C234.887 177.649 231.597 180.95 227.544 180.95H47.4962C43.4469 180.95 40.1535 177.653 40.1534 173.584V170.625H234.887Z" fill="#D9D9D9" stroke="white"/>
<path id="Vector_70" d="M119.401 170.566L121.828 174.751H156.005L158.261 170.566H119.401Z" fill="white"/>
</g>
<line id="Line 2" x1="1.32178" y1="181.555" x2="276.252" y2="181.555" stroke="#F6F6F6"/>
</g>
</g>
</g>
</g>
</g>
</svg>
