<svg width="300" height="300" viewBox="0 0 300 300" fill="none" xmlns="http://www.w3.org/2000/svg">
<rect width="300" height="300" fill="#CACACA"/>
<g id="Illustration">
<rect width="2438" height="5632" transform="translate(-894 -3134)" fill="white"/>
<g id="Frame 888">
<g id="Frame 885">
<rect x="-15.5" y="-679.5" width="331" height="995" stroke="#ECECEC"/>
<g id="internetf_off">
<rect x="-15.5" y="-647.5" width="331" height="963" rx="4.5" stroke="#9747FF" stroke-dasharray="10 5"/>
<g id="Theme=Theme3">
<g id="Group 6">
<path id="Vector 32" d="M173.715 110.772C170.34 104.023 145.029 98.9608 132.796 97.2734H110.86C76.6915 97.2734 68.6766 106.132 63.6145 110.772C62.2798 111.996 62.4054 119.027 63.3599 128.911C63.9766 135.298 64.9394 142.875 66.0779 150.847C68.5237 167.972 71.7805 186.916 74.1605 199.78L139.967 221.294L200.712 210.748C193.119 180.235 177.089 117.522 173.715 110.772Z" fill="white"/>
<path id="Vector 37" d="M160.216 121.74L162.747 137.348" stroke="#2B2B2B" stroke-width="1.36645" stroke-linecap="round"/>
<g id="Group 5">
<path id="Vector" d="M218.777 85.6431C227.849 85.6431 235.18 92.7779 235.18 101.55C235.18 110.323 227.849 117.458 218.777 117.458C209.705 117.457 202.374 110.323 202.374 101.55C202.374 92.778 209.705 85.6431 218.777 85.6431Z" fill="#FE3976" stroke="#2B2B2B" stroke-width="0.910968"/>
<path id="Vector_2" d="M218.777 64.1533C233.926 64.1533 247.04 72.6764 253.34 85.0273C254.408 87.1187 254.01 89.6387 252.314 91.2852L252.293 91.3057V91.3066C249.68 93.8517 245.33 93.2258 243.533 90.1592L243.367 89.8545C238.902 81.0316 229.558 74.9473 218.777 74.9473C207.996 74.9473 198.653 81.0317 194.188 89.8545C192.508 93.1728 187.969 93.9333 185.261 91.3057L185.084 91.1279C183.562 89.5355 183.201 87.2104 184.118 85.2246L184.213 85.0273C190.514 72.6764 203.628 64.1534 218.777 64.1533Z" fill="#FE3976" stroke="#2B2B2B" stroke-width="0.910968"/>
<path id="Vector_3" d="M218.777 41.2749C240.166 41.2749 259.044 51.8321 270.221 67.8403C271.686 69.9363 271.366 72.7833 269.498 74.5962C267.049 76.9735 262.938 76.648 261.012 73.8862C251.847 60.7344 236.334 52.0688 218.777 52.0688C201.23 52.069 185.706 60.7342 176.541 73.8862C174.615 76.648 170.505 76.9735 168.056 74.5962C166.247 72.8402 165.889 70.1231 167.201 68.0396L167.333 67.8403C178.499 51.8324 197.388 41.2751 218.777 41.2749Z" fill="#FE3976" stroke="#2B2B2B" stroke-width="0.910968"/>
<path id="Vector_4" d="M218.777 18.0486C246.191 18.0486 270.65 30.5639 286.414 50.0066L287.158 50.9373C288.829 53.0554 288.585 56.072 286.631 57.9685L286.609 57.989C284.226 60.3019 280.299 60.0286 278.245 57.4304H278.244C264.553 40.0628 242.987 28.8425 218.777 28.8425C194.567 28.8425 173.011 40.0627 159.309 57.4304C157.255 60.0287 153.329 60.3019 150.945 57.989L150.924 57.9685L150.923 57.9675C148.96 56.0722 148.724 53.0564 150.395 50.9373H150.396C166.129 30.9641 190.928 18.0486 218.777 18.0486Z" fill="#FE3976" stroke="#2B2B2B" stroke-width="0.910968"/>
</g>
<path id="Vector 38" d="M104.955 48.3402C110.354 55.0896 107.205 61.9797 104.955 64.3701C102.93 63.3577 101.58 63.1046 99.049 63.1046C96.518 63.1046 94.4088 65.6356 94.4088 65.6356L99.049 46.231C97.8168 42.0415 99.6611 37.5583 103.485 35.4487L109.173 32.3103L118.179 29.0583C122.184 27.6119 126.558 27.5434 130.607 28.8637L139.408 31.7335C142.271 32.6673 144.874 34.2641 147.004 36.394L157.203 46.5931C161.286 50.6765 162.362 56.886 159.89 62.105L156.419 69.4322L164.012 92.2115L167 102.5L164.012 104.023L126.89 98.5391V89.6804L124.781 80.4L134.484 68.1666L143.764 52.9804L142.498 46.231C130.349 54.6678 112.407 51.1525 104.955 48.3402Z" fill="white"/>
<path id="Vector 41" d="M78.3789 83.7743C71.6295 91.8736 74.1605 102.335 76.2697 106.554L78.3789 114.991C92.5808 113.444 120.985 110.435 120.985 110.772C120.985 111.11 122.953 103.038 123.938 98.9606L125.625 85.0399L120.985 60.5733L112.548 47.0743C106.22 43.2778 99.049 44.1215 92.2996 49.6054C85.5502 55.0893 85.5502 63.5261 85.5502 68.1663C85.5502 72.8065 86.8157 73.6502 78.3789 83.7743Z" fill="white"/>
<path id="Vector 33" d="M18.2082 163.385L63.6146 110.351L75.8479 141.567L52.6467 163.924L82.1755 171.939V187.125L30.7803 189.267C25.0205 189.507 19.5929 186.569 16.6443 181.615C13.2019 175.832 13.8311 168.498 18.2082 163.385Z" fill="white"/>
<path id="Vector 35" d="M62.7709 110.772C67.833 106.132 75.8479 97.2734 110.017 97.2734H131.953C144.186 98.9608 169.496 104.023 172.871 110.772C176.246 117.522 192.276 180.235 199.869 210.748L139.124 221.294L73.3169 199.78C72.6333 196.085 72.4178 191.959 71.6296 187.547M65.7238 151.269C66.4824 156.58 67.8124 162.407 68.6767 167.721" stroke="#2B2B2B" stroke-width="1.36645" stroke-linecap="round"/>
<path id="Vector 30" d="M115.501 59.8914L110.894 101.07C110.894 101.07 109.755 110.35 120.985 110.773C132.214 111.195 132.214 101.202 132.214 101.202L137.912 59.6787L115.501 59.8914Z" fill="white" stroke="#2B2B2B" stroke-width="1.36645" stroke-linecap="round"/>
<path id="Rectangle 8" d="M101.094 64.7887C99.0328 51.9059 107.805 39.7914 120.688 37.7301C133.571 35.6688 145.685 44.4413 147.747 57.3241L148.68 63.1557C150.741 76.0384 141.968 88.1529 129.086 90.2142C116.203 92.2755 104.088 83.503 102.027 70.6203L101.094 64.7887Z" fill="white"/>
<path id="Rectangle 11" d="M145.451 56.6548L146.798 62.4245C149.832 75.4271 141.203 88.2752 128.019 90.3847C115.651 92.3636 103.97 84.0902 101.734 71.7663L100.315 63.948" stroke="#2B2B2B" stroke-width="1.36645" stroke-linecap="round"/>
<rect id="Rectangle 9" x="92.2997" y="64.0735" width="14.1419" height="15.9097" rx="7.07096" transform="rotate(-9.0905 92.2997 64.0735)" fill="white"/>
<path id="Rectangle 10" d="M104.533 64.7921L103.04 64.2623C97.8524 62.4216 92.6001 66.8419 93.5281 72.2676C94.2259 76.348 98.2104 79.0027 102.245 78.0752L104.533 77.5492" stroke="#2B2B2B" stroke-width="1.36645" stroke-linecap="round"/>
<path id="Vector 28" d="M117.188 241.542L79.2226 259.682L89.7686 279.93L128.578 262.634L117.188 241.542Z" fill="white" stroke="#2B2B2B" stroke-width="1.36645" stroke-linecap="round"/>
<path id="Vector 29" d="M238.579 260.992L201.327 241.43L191.415 261.996L228.497 282.739L238.579 260.992Z" fill="white" stroke="#2B2B2B" stroke-width="1.36645" stroke-linecap="round"/>
<path id="Vector 23" d="M129.744 60.1056C129.629 59.8853 129.352 59.8013 129.126 59.9182C128.9 60.035 128.81 60.3083 128.926 60.5287L129.335 60.3171L129.744 60.1056ZM130.447 67.8654C130.197 67.8258 129.959 67.9933 129.914 68.2395C129.87 68.4858 130.036 68.7175 130.286 68.7571L130.367 68.3113L130.447 67.8654ZM129.335 60.3171L128.926 60.5287C129.664 61.94 130.589 64.0109 130.992 65.6572C131.198 66.4979 131.244 67.1436 131.132 67.5279C131.08 67.7042 131.008 67.7835 130.94 67.8235C130.867 67.8664 130.724 67.9094 130.447 67.8654L130.367 68.3113L130.286 68.7571C130.696 68.8221 131.082 68.786 131.404 68.5958C131.73 68.4028 131.918 68.0951 132.014 67.7647C132.199 67.1357 132.095 66.2893 131.885 65.4328C131.458 63.6847 130.494 61.5406 129.744 60.1056L129.335 60.3171Z" fill="#2B2B2B"/>
<path id="Vector 24" d="M122.275 74.9281C125.509 73.975 131.218 73.2125 128.181 77.7874" stroke="#2B2B2B" stroke-width="0.910968" stroke-linecap="round"/>
<path id="Vector_5" d="M238.972 136.981L222.067 175.145C216.297 174.837 210.37 175.981 204.879 178.762L180.336 191.188H136.828L126.844 186.133C130.477 177.688 134.087 168.895 137.721 160.041C141.372 151.141 145.049 142.179 148.805 133.442L235.125 133.44L238.972 136.981Z" fill="#FF87AB" stroke="#2B2B2B" stroke-width="0.910968"/>
<path id="Vector_6" d="M252.951 204.698C252.605 200.589 251.419 196.478 249.323 192.595C243.82 182.404 233.405 176.313 222.361 175.621C216.571 175.257 210.609 176.381 205.089 179.173L180.449 191.647L159.294 202.358C159.167 202.294 159.043 202.231 158.916 202.168C158.541 201.978 158.189 202.157 158.022 202.433L136.721 191.649C130.043 188.269 126.114 186.282 120.248 183.313L112.082 179.179L112.012 179.146C103.122 174.671 93.0863 174.53 84.4807 177.937C82.1986 178.84 80.0198 179.996 77.9865 181.383C76.2064 182.598 74.5401 183.993 73.0215 185.559C71.022 187.62 69.2692 189.969 67.8476 192.599C65.7511 196.484 64.5657 200.593 64.2198 204.702C62.967 219.548 73.167 233.064 87.9588 237.161L102.322 241.14L115.965 244.918C115.878 245.225 115.994 245.588 116.401 245.7C116.6 245.756 116.798 245.811 116.996 245.866L122.841 256.692L127.504 265.328L157.387 257.052C157.727 257.146 158.068 257.24 158.408 257.334C158.815 257.446 159.106 257.197 159.195 256.888L189.664 265.325L194.328 256.69L204.838 237.227C205.093 237.302 205.382 237.245 205.549 236.949L205.576 236.9L214.848 241.138L229.212 237.159C244.001 233.062 254.203 219.546 252.951 204.7V204.698Z" fill="#2B2B2B"/>
<path id="Vector_7" d="M192.648 158.991C192.762 155.923 191.68 151.655 187.838 151.393C183.18 151.075 179.768 156.195 178.245 159.767C176.85 163.228 175.865 168.171 178.379 171.414C180.628 174.316 184.456 173.219 186.872 171.161C190.343 168.201 192.487 163.44 192.65 158.992L192.648 158.991ZM187.467 168.724C185.846 170.647 182.408 173.368 179.901 171.16C176.977 168.581 178.24 163.275 179.464 160.243C180.729 157.275 183.1 153.498 186.625 152.75C189.898 152.055 191.222 155.372 191.338 157.947C191.51 161.755 189.936 165.791 187.467 168.724Z" fill="#2B2B2B"/>
<path id="Vector_8" d="M89.1401 267.621C86.394 261.99 88.8828 255.273 94.6979 252.614L103.668 248.513C99.9371 247.451 95.8052 247.682 92.0487 249.491L69.7524 260.244C61.8556 264.053 58.6412 273.34 62.5748 280.986C66.5085 288.633 76.099 291.746 83.9958 287.937L106.292 277.184C110.099 275.347 112.803 272.235 114.157 268.651L104.636 273.003C98.8214 275.66 91.8821 273.252 89.138 267.621H89.1401Z" fill="#2B2B2B"/>
<path id="Vector_9" d="M248.525 260.087L226.229 249.334C222.475 247.523 218.34 247.294 214.609 248.356L223.58 252.457C229.395 255.116 231.882 261.833 229.137 267.464C226.391 273.095 219.454 275.503 213.639 272.846L204.118 268.493C205.472 272.078 208.176 275.19 211.983 277.026L234.28 287.779C242.177 291.588 251.767 288.476 255.701 280.829C259.634 273.183 256.42 263.896 248.523 260.087H248.525Z" fill="#2B2B2B"/>
<path id="Vector_10" d="M137.78 60.2007C137.191 59.9107 136.47 60.1374 136.168 60.7072C135.869 61.277 136.103 61.9755 136.691 62.2675C137.28 62.5576 138.001 62.3309 138.303 61.761C138.602 61.1912 138.368 60.4927 137.78 60.2007Z" fill="#2B2B2B"/>
<path id="Vector_11" d="M120.794 63.4277C121.383 63.7177 122.104 63.491 122.406 62.9212C122.705 62.3514 122.471 61.6529 121.883 61.3608C121.294 61.0708 120.573 61.2975 120.271 61.8673C119.972 62.4372 120.206 63.1356 120.794 63.4277Z" fill="#2B2B2B"/>
<path id="Vector_12" d="M209.872 227.963C204.131 225.056 198.39 222.15 192.649 219.244C183.501 214.612 174.354 209.982 165.204 205.35C163.234 204.353 161.264 203.354 159.294 202.358C159.167 202.294 159.043 202.231 158.916 202.168C158.541 201.978 158.189 202.158 158.022 202.433C157.855 202.709 157.876 203.079 158.252 203.269C163.993 206.175 169.734 209.081 175.476 211.987C184.623 216.619 193.771 221.25 202.92 225.882C204.829 226.848 206.736 227.814 208.643 228.78C207.232 231.288 205.823 233.798 204.412 236.306C204.173 236.729 204.471 237.119 204.836 237.227C205.091 237.302 205.38 237.245 205.546 236.949L205.574 236.9C207.084 234.212 208.594 231.525 210.106 228.839C210.271 228.547 210.193 228.13 209.87 227.967L209.872 227.963Z" fill="white" fill-opacity="0.8"/>
<path id="Vector_13" d="M158.758 256.102C146.491 252.706 134.222 249.307 121.955 245.911C120.219 245.431 118.485 244.949 116.749 244.469C116.342 244.357 116.051 244.606 115.965 244.914C115.878 245.22 115.994 245.584 116.401 245.696C116.6 245.751 116.798 245.807 116.996 245.862C129.065 249.205 141.136 252.546 153.205 255.89C154.599 256.276 155.993 256.662 157.389 257.048C157.729 257.142 158.071 257.236 158.41 257.33C158.817 257.442 159.108 257.193 159.197 256.884C159.283 256.578 159.167 256.214 158.76 256.1L158.758 256.102Z" fill="white" fill-opacity="0.8"/>
<path id="Vector_14" d="M62.803 57.8782C62.8896 57.788 63.0355 57.7834 63.1293 57.8675L68.6377 62.8218C68.7314 62.9063 68.7366 63.0483 68.6498 63.1387L63.3327 68.6785C63.246 68.7688 63.1002 68.7736 63.0064 68.6892L57.4986 63.7356C57.4047 63.6511 57.399 63.5085 57.4859 63.418L62.803 57.8782ZM30.7427 34.8015C34.1902 31.2061 37.6099 29.1171 40.9891 28.4211C44.1704 27.7698 47.3566 28.7498 50.5992 31.5496L50.9134 31.8264C51.9981 32.802 52.8224 33.7452 53.4147 34.6587C54.0036 35.5766 54.4182 36.5211 54.6585 37.4993C54.903 38.4944 55.0163 39.5522 54.9946 40.6751L54.9952 40.6772C54.976 41.831 54.8875 43.0874 54.7364 44.4485L54.7355 44.4593C54.6132 45.7605 54.5851 46.8983 54.6543 47.8554L54.6541 47.8581C54.7277 48.8354 54.9416 49.7378 55.3093 50.5539C55.6699 51.3617 56.151 52.0962 56.7381 52.7594C57.1331 53.2057 57.5824 53.6688 58.0815 54.1456C58.1876 54.2469 58.1825 54.3976 58.0995 54.4842L53.2569 59.5311C51.4789 57.8897 50.1762 56.4382 49.3324 55.1861C48.4311 53.8488 47.8796 52.3188 47.6879 50.5931L47.6865 50.5855L47.6857 50.5786C47.5514 49.5694 47.5634 48.5668 47.7145 47.5756C47.8789 46.4978 47.972 45.443 47.9858 44.4112L47.986 44.4085C47.9963 43.3521 47.8598 42.3209 47.5718 41.3199C47.2959 40.361 46.698 39.4549 45.834 38.5959L45.4473 38.2309C43.6518 36.6154 41.7973 35.8449 39.9329 36.2032C38.2171 36.533 36.7108 37.3893 35.4228 38.731C33.6273 40.6018 32.7901 42.5212 33.2498 44.4355C33.6165 45.9782 34.4827 47.5339 35.793 49.1052C35.8866 49.2174 35.8716 49.3594 35.7959 49.4383L30.7091 54.7386C30.6164 54.8351 30.4861 54.8214 30.4196 54.7559C29.0827 53.4401 28.0559 52.0394 27.3321 50.5566C26.4939 48.8393 26.0677 47.0965 26.0505 45.3237C26.0333 43.5464 26.4099 41.7604 27.2007 39.9586L27.2014 39.958C27.9874 38.1622 29.1654 36.4433 30.7419 34.8021L30.7427 34.8015Z" fill="white" stroke="#2B2B2B" stroke-width="1.36645"/>
<path id="Vector_15" d="M84.3895 43.252C84.5042 43.2032 84.6383 43.2553 84.6903 43.3693L87.1341 48.7323C87.1866 48.8476 87.1351 48.9824 87.0192 49.0319L81.2162 51.5088C81.1014 51.5578 80.9665 51.5059 80.9144 51.3919L78.4716 46.0285C78.4191 45.9133 78.4705 45.7785 78.5865 45.7289L84.3895 43.252ZM75.8968 41.4159C75.8957 41.4164 75.8941 41.4166 75.893 41.417L75.8927 41.4161C75.8939 41.4156 75.8953 41.4155 75.8965 41.415L75.8968 41.4159ZM67.5707 14.8834C71.4825 13.211 74.8428 12.7022 77.6844 13.2516C80.4278 13.7854 82.5882 15.6486 84.1385 19.0465C84.6407 20.1482 84.9507 21.1375 85.0932 22.026C85.2316 22.9176 85.2275 23.7725 85.0787 24.5969C84.9266 25.4388 84.6519 26.289 84.2505 27.1471L84.2498 27.1483C83.8378 28.0351 83.3368 28.9799 82.7502 29.9865L82.745 29.9961C82.1986 30.9706 81.781 31.8508 81.5014 32.624L81.5001 32.6264C81.2162 33.4193 81.0678 34.2027 81.0715 34.9716C81.0725 35.729 81.1943 36.4685 81.4251 37.1858C81.565 37.6208 81.7346 38.0803 81.9326 38.5616C81.9906 38.7024 81.9227 38.8421 81.813 38.889L76.5202 41.148C75.7341 39.3465 75.2424 37.84 75.0258 36.6293C74.7915 35.3192 74.8894 33.9708 75.332 32.5834L75.336 32.57C75.5774 31.7524 75.9291 30.9856 76.3842 30.2722C76.8865 29.4847 77.3258 28.6911 77.6952 27.8891L77.6965 27.8867C78.0736 27.0604 78.3271 26.2047 78.4509 25.3222C78.5886 24.3395 78.3637 23.2792 77.8578 22.1669C77.0112 20.3084 75.8114 19.0744 74.1947 18.7395C72.7267 18.4355 71.2423 18.6157 69.764 19.2466L69.7631 19.2469C67.7129 20.1224 66.3632 21.3605 66.0488 23.0474C65.803 24.351 65.9273 25.8138 66.3743 27.4177C66.4155 27.5658 66.3397 27.6925 66.2403 27.735L60.6861 30.1074C60.5613 30.1605 60.4536 30.0944 60.4225 30.0149C59.8758 28.6159 59.5823 27.2513 59.5343 25.9204C59.4771 24.3314 59.745 22.8562 60.3375 21.4887C60.8578 20.2881 61.613 19.1774 62.6168 18.1575L63.0619 17.7257C64.1317 16.7346 65.4148 15.8841 66.9144 15.1771L67.5707 14.8834Z" fill="white" stroke="#2B2B2B" stroke-width="1.36645"/>
<path id="Vector 27" d="M237.412 141.145H151.779M151.779 141.145L131.109 192.609M151.779 141.145L149.248 137.77" stroke="#2B2B2B" stroke-width="1.36645" stroke-linecap="round"/>
<path id="Vector 31" d="M96.518 71.9632C96.3744 70.2396 96.9389 69.0153 97.7756 68.1666C98.9049 67.0212 100.53 66.56 101.58 66.4792M97.7756 68.1666C99.0437 68.5884 101.411 70.1071 100.736 72.8068" stroke="#2B2B2B" stroke-width="1.36645" stroke-linecap="round"/>
<path id="Vector 34" d="M62.7709 110.772L18.1531 163.371C13.805 168.496 13.1937 175.818 16.6317 181.594C19.5881 186.561 25.0299 189.506 30.805 189.266L82.1755 187.125V171.939L52.6467 163.924L75.8479 141.567" stroke="#2B2B2B" stroke-width="1.36645" stroke-linecap="round"/>
<path id="Vector 36" d="M82.5972 174.469L91.034 174.469C95.6743 169.83 105.798 168.986 108.329 179.11C110.86 189.234 101.158 187.265 95.6743 187.124" stroke="#2B2B2B" stroke-width="1.36645" stroke-linecap="round"/>
<path id="Vector 39" d="M104.457 63.9017C104.199 64.1765 104.212 64.6089 104.486 64.8675C104.761 65.1261 105.194 65.113 105.452 64.8382L104.955 64.37L104.457 63.9017ZM104.955 48.3401L105.196 47.7009C104.908 47.5922 104.583 47.6895 104.402 47.9384C104.221 48.1874 104.229 48.5266 104.421 48.7669L104.955 48.3401ZM141.655 48.3401L142.332 48.2517L142.187 47.1386L141.265 47.7789L141.655 48.3401ZM150.401 59.9818C150.773 60.0439 151.125 59.7924 151.187 59.4202C151.249 59.048 150.998 58.696 150.626 58.634L150.513 59.3079L150.401 59.9818ZM104.955 64.37L105.452 64.8382C107.851 62.2893 111.169 55.014 105.488 47.9133L104.955 48.3401L104.421 48.7669C109.54 55.165 106.558 61.6698 104.457 63.9017L104.955 64.37ZM104.955 48.3401L104.714 48.9793C108.456 50.3915 114.659 52.5257 121.473 53.238C128.282 53.9499 135.782 53.2498 142.044 48.9013L141.655 48.3401L141.265 47.7789C135.378 51.8671 128.255 52.5732 121.615 51.879C114.978 51.1851 108.906 49.1009 105.196 47.7009L104.955 48.3401ZM141.655 48.3401L140.977 48.4285C141.199 50.1264 141.922 52.7138 143.387 55.0231C144.857 57.3397 147.113 59.4338 150.401 59.9818L150.513 59.3079L150.626 58.634C147.839 58.1696 145.877 56.3968 144.541 54.2912C143.201 52.1781 142.533 49.7879 142.332 48.2517L141.655 48.3401Z" fill="#2B2B2B"/>
<path id="Vector 40" d="M101.58 45.0159C98.4782 45.6005 95.3459 47.1303 92.2996 49.6055C85.5502 55.0894 85.5502 63.5262 85.5502 68.1664C85.5502 72.8066 86.8157 73.6503 78.3789 83.7744C73.1817 90.0111 73.4872 97.6484 74.8656 102.757" stroke="#2B2B2B" stroke-width="1.36645" stroke-linecap="round"/>
<path id="Vector 42" d="M164.5 104.5C167.031 101.969 167.809 99.8039 161.059 82.9304C154.31 66.0568 158.528 65.2131 161.059 57.62C163.59 50.0269 143.342 23.8733 120.563 28.5135C101.392 32.4187 96.6584 42.9962 99.0489 45.3867" stroke="#2B2B2B" stroke-width="1.36645" stroke-linecap="round"/>
<rect id="Rectangle 12" x="242.314" y="7.68323" width="39.1301" height="34.9117" rx="4.78258" fill="white" stroke="#2B2B2B" stroke-width="1.36645"/>
<path id="Vector_16" d="M272.247 17.463L269.269 14.3882L261.661 21.2929L254.53 13.926L251.353 16.8038L258.484 24.1706L250.876 31.0754L253.854 34.1502L261.462 27.2455L268.586 34.614L271.762 31.7301L264.637 24.3616L272.247 17.463Z" fill="#2B2B2B"/>
</g>
</g>
</g>
</g>
</g>
</g>
</svg>
