<svg width="300" height="300" viewBox="0 0 300 300" fill="none" xmlns="http://www.w3.org/2000/svg">
<g id="Illustration">
<g id="Frame 888">
<g id="Frame 895">
<rect x="-15.5" y="-679.5" width="331" height="995" stroke="#ECECEC"/>
<g id="FINGERPRINT">
<rect x="-15.5" y="-647.5" width="331" height="963" rx="4.5" stroke="#9747FF" stroke-dasharray="10 5"/>
<g id="Theme=Theme3">
<g id="Group">
<g id="objects">
<g id="Group_2">
<path id="Vector" d="M34.4292 276.667H130.484C138.969 276.667 145.848 269.789 145.848 261.304L145.848 52.8823C145.848 44.3971 138.969 37.5186 130.484 37.5186H34.4292C25.944 37.5186 19.0654 44.3971 19.0654 52.8823L19.0654 261.304C19.0654 269.789 25.944 276.667 34.4292 276.667Z" fill="black"/>
<path id="Vector_2" d="M130.484 277.732H34.4291C25.3701 277.732 18 270.362 18 261.303V52.8821C18 43.8231 25.3701 36.4526 34.4291 36.4526H130.484C139.543 36.4526 146.913 43.8227 146.913 52.8821V261.303C146.913 270.362 139.543 277.732 130.484 277.732ZM34.4291 38.5834C26.5448 38.5834 20.1308 44.9978 20.1308 52.8821V261.303C20.1308 269.188 26.5448 275.602 34.4291 275.602H130.484C138.368 275.602 144.782 269.188 144.782 261.303V52.8821C144.782 44.9978 138.368 38.5834 130.484 38.5834H34.4291Z" fill="black"/>
<path id="Vector_3" d="M40.8215 276.675H136.876C145.361 276.675 152.24 269.796 152.24 261.311L152.24 52.8896C152.24 44.4044 145.361 37.5259 136.876 37.5259H40.8215C32.3363 37.5259 25.4577 44.4044 25.4577 52.8896L25.4577 261.311C25.4577 269.796 32.3363 276.675 40.8215 276.675Z" fill="white"/>
<path id="Vector_4" d="M136.876 277.74H40.8215C31.7624 277.74 24.3923 270.37 24.3923 261.311V52.8899C24.3923 43.8309 31.7624 36.4604 40.8215 36.4604H136.876C145.935 36.4604 153.305 43.8305 153.305 52.8899V261.311C153.305 270.37 145.935 277.74 136.876 277.74ZM40.8215 38.5912C32.9372 38.5912 26.5231 45.0056 26.5231 52.8899V261.311C26.5231 269.195 32.9372 275.609 40.8215 275.609H136.876C144.761 275.609 151.175 269.195 151.175 261.311V52.8899C151.175 45.0056 144.76 38.5912 136.876 38.5912H40.8215Z" fill="black"/>
<path id="Vector_5" d="M105.363 47.2327H72.3352C71.5507 47.2327 70.9147 46.5966 70.9147 45.8121C70.9147 45.0276 71.5507 44.3916 72.3352 44.3916H105.363C106.147 44.3916 106.783 45.0276 106.783 45.8121C106.783 46.5966 106.147 47.2327 105.363 47.2327Z" fill="black"/>
<g id="Group_3">
<path id="Vector_6" d="M161.739 263.331H64.0479C54.4522 263.331 46.6617 255.54 46.6617 245.945L46.6617 64.4418C46.6617 54.8461 54.4522 47.0556 64.0479 47.0556H161.739C171.335 47.0556 179.126 54.8461 179.126 64.4422L179.126 245.945C179.126 255.541 171.335 263.332 161.739 263.332V263.331Z" fill="#FE3976"/>
<g id="Group_4">
<path id="Vector_7" d="M57.4932 111.271C57.3952 111.271 57.3157 111.192 57.3157 111.094V79.7275H92.3751C92.4731 79.7275 92.5526 79.8071 92.5526 79.9051C92.5526 80.0031 92.4731 80.0827 92.3751 80.0827H57.6708V111.094C57.6708 111.192 57.5913 111.271 57.4932 111.271Z" fill="black"/>
<path id="Vector_8" d="M92.3751 230.659H57.3157V191.906C57.3157 191.808 57.3952 191.729 57.4932 191.729C57.5913 191.729 57.6708 191.808 57.6708 191.906V230.304H92.3751C92.4731 230.304 92.5526 230.383 92.5526 230.481C92.5526 230.579 92.4731 230.659 92.3751 230.659Z" fill="black"/>
<path id="Vector_9" d="M168.472 230.659H133.413C133.315 230.659 133.235 230.579 133.235 230.481C133.235 230.383 133.315 230.304 133.413 230.304H168.117V191.906C168.117 191.808 168.197 191.729 168.295 191.729C168.393 191.729 168.472 191.808 168.472 191.906V230.659Z" fill="black"/>
<path id="Vector_10" d="M168.295 111.271C168.197 111.271 168.117 111.192 168.117 111.094V80.0827H133.413C133.315 80.0827 133.235 80.0031 133.235 79.9051C133.235 79.8071 133.315 79.7275 133.413 79.7275H168.472V111.094C168.472 111.192 168.393 111.271 168.295 111.271Z" fill="black"/>
</g>
<g id="Group_5">
<path id="Vector_11" d="M85.0524 164.042C84.7825 164.042 84.5244 163.887 84.4054 163.625C84.1376 163.036 83.8766 162.424 83.6298 161.807C83.3578 161.127 83.1397 160.355 82.9813 159.514C82.9085 159.129 83.1624 158.758 83.5477 158.685C83.9313 158.613 84.3045 158.866 84.3773 159.252C84.5187 160.002 84.7108 160.685 84.9487 161.28C85.1874 161.876 85.4395 162.468 85.6988 163.037C85.8611 163.395 85.7031 163.815 85.3461 163.978C85.2506 164.021 85.1508 164.042 85.0524 164.042Z" fill="white"/>
<path id="Vector_12" d="M91.8508 173.761C91.6821 173.761 91.5128 173.701 91.3771 173.58C88.6394 171.128 86.2937 167.779 84.4058 163.626C84.2435 163.269 84.4016 162.848 84.7585 162.685C85.1157 162.523 85.5366 162.681 85.6992 163.038C87.5051 167.011 89.7346 170.202 92.3249 172.522C92.6172 172.783 92.6417 173.232 92.38 173.525C92.2397 173.681 92.0458 173.761 91.8508 173.761Z" fill="white"/>
<path id="Vector_13" d="M111.043 180.158C105.865 180.158 100.618 178.931 95.814 176.591C95.4614 176.419 95.3147 175.994 95.4866 175.641C95.6581 175.288 96.0829 175.141 96.4362 175.314C101.291 177.679 106.615 178.861 111.832 178.727C112.239 178.717 112.55 179.028 112.56 179.42C112.57 179.812 112.26 180.138 111.868 180.148C111.593 180.154 111.318 180.158 111.043 180.158Z" fill="white"/>
<path id="Vector_14" d="M118.496 179.218C118.181 179.218 117.894 179.008 117.81 178.69C117.709 178.31 117.935 177.922 118.315 177.821C123.524 176.444 127.932 173.515 131.065 169.35C135.356 163.645 136.724 155.784 134.635 148.836C134.522 148.46 134.734 148.064 135.11 147.951C135.487 147.838 135.882 148.051 135.995 148.427C138.212 155.8 136.758 164.144 132.2 170.204C128.874 174.626 124.198 177.735 118.678 179.195C118.617 179.211 118.556 179.218 118.496 179.218Z" fill="white"/>
<path id="Vector_15" d="M132.409 143.217C132.182 143.217 131.958 143.108 131.821 142.907C130.532 141.01 128.939 139.333 127.086 137.923C118.43 131.335 102.954 132.558 96.9761 140.301C96.7364 140.612 96.2903 140.669 95.9799 140.43C95.6695 140.19 95.612 139.744 95.8517 139.434C102.248 131.147 118.745 129.789 127.946 136.792C129.921 138.296 131.62 140.084 132.996 142.108C133.216 142.432 133.132 142.874 132.807 143.095C132.685 143.178 132.546 143.217 132.409 143.217Z" fill="white"/>
<path id="Vector_16" d="M111.702 172.522C107.624 172.522 103.617 171.34 100.561 169.211C92.4592 163.566 89.7254 155.182 92.8626 145.603C92.9848 145.23 93.3857 145.028 93.7589 145.149C94.1318 145.271 94.335 145.672 94.2128 146.045C91.2876 154.977 93.8303 162.79 101.373 168.045C104.459 170.196 108.613 171.3 112.769 171.072C113.158 171.053 113.496 171.351 113.517 171.743C113.538 172.134 113.238 172.469 112.847 172.491C112.465 172.511 112.083 172.522 111.702 172.522Z" fill="white"/>
<path id="Vector_17" d="M118.537 171.306C118.25 171.306 117.98 171.131 117.873 170.847C117.734 170.48 117.919 170.071 118.285 169.931C121.048 168.885 124.701 166.67 126.414 162.058C128.146 157.395 128.284 153.384 126.848 149.436C125.916 146.872 124.208 144.743 121.772 143.109C121.446 142.891 121.359 142.449 121.578 142.123C121.796 141.797 122.237 141.71 122.563 141.929C125.255 143.734 127.146 146.097 128.184 148.951C129.741 153.234 129.602 157.556 127.746 162.553C126.265 166.542 123.084 169.634 118.789 171.26C118.706 171.292 118.621 171.306 118.538 171.306L118.537 171.306Z" fill="white"/>
<path id="Vector_18" d="M101.786 161.224C101.578 161.224 101.372 161.133 101.232 160.959C98.1281 157.089 97.4552 151.073 99.5948 146.328C102.456 139.983 110.15 137.661 115.936 139.084C116.651 139.259 117.36 139.468 118.041 139.706C118.411 139.835 118.607 140.239 118.478 140.61C118.349 140.981 117.944 141.177 117.574 141.047C116.935 140.825 116.269 140.628 115.597 140.463C110.376 139.179 103.447 141.242 100.89 146.912C98.9915 151.122 99.6016 156.655 102.34 160.07C102.586 160.376 102.537 160.823 102.231 161.069C102.1 161.174 101.943 161.225 101.787 161.225L101.786 161.224Z" fill="white"/>
<path id="Vector_19" d="M110.853 165.415C109.02 165.415 107.162 165.017 105.438 164.214C105.083 164.048 104.929 163.625 105.094 163.27C105.26 162.914 105.683 162.761 106.038 162.926C109.411 164.498 113.356 164.328 116.335 162.483C118.028 161.436 119.279 159.544 119.77 157.292C120.29 154.908 119.886 152.413 118.691 150.616C117.498 148.823 114.633 147.601 112.175 147.831C110.845 147.956 109.072 148.551 108.174 150.676C107.441 152.413 108.302 153.98 109.48 154.762C110.541 155.466 112.269 155.785 113.653 154.365C113.927 154.085 114.376 154.079 114.657 154.353C114.938 154.626 114.944 155.076 114.67 155.357C112.808 157.268 110.327 157.03 108.694 155.946C107.027 154.839 105.816 152.61 106.866 150.123C107.779 147.961 109.617 146.645 112.042 146.417C115.025 146.139 118.392 147.603 119.873 149.829C121.299 151.971 121.767 154.802 121.158 157.595C120.586 160.22 119.1 162.442 117.083 163.691C115.234 164.836 113.062 165.414 110.853 165.414L110.853 165.415Z" fill="white"/>
<path id="Vector_20" d="M103.845 201.878C103.827 201.878 103.809 201.877 103.79 201.876C96.6696 201.328 90.8614 198.745 85.5227 196.146C80.2938 193.6 73.2458 187.493 69.8117 182.532C69.5883 182.21 69.6689 181.767 69.9914 181.544C70.3142 181.321 70.7563 181.401 70.9797 181.723C74.297 186.516 81.0999 192.413 86.1446 194.868C91.3604 197.407 97.0276 199.931 103.899 200.459C104.29 200.49 104.583 200.831 104.553 201.222C104.524 201.594 104.213 201.878 103.845 201.878H103.845Z" fill="white"/>
<path id="Vector_21" d="M111.85 202.08C111.468 202.08 111.152 201.775 111.141 201.39C111.129 200.998 111.437 200.671 111.829 200.66C124.072 200.297 134.566 196.646 143.022 189.809C147.106 186.506 150.347 182.095 152.654 176.697C152.808 176.336 153.225 176.169 153.586 176.323C153.947 176.477 154.114 176.895 153.96 177.255C151.561 182.869 148.182 187.464 143.915 190.913C135.213 197.951 124.432 201.707 111.872 202.079C111.865 202.079 111.858 202.079 111.85 202.079L111.85 202.08Z" fill="white"/>
<path id="Vector_22" d="M155.193 172.412C155.126 172.412 155.058 172.403 154.991 172.383C154.615 172.272 154.4 171.877 154.511 171.501C155.938 166.662 156.807 161.204 157.168 154.814C157.844 142.85 154.607 133.676 146.673 125.07C146.407 124.782 146.425 124.333 146.714 124.067C147.002 123.801 147.451 123.819 147.717 124.107C155.934 133.019 159.286 142.514 158.586 154.894C158.219 161.394 157.332 166.958 155.873 171.903C155.782 172.212 155.499 172.412 155.193 172.412Z" fill="white"/>
<path id="Vector_23" d="M143.468 121.601C143.297 121.601 143.125 121.539 142.989 121.414C135.91 114.941 126.292 111.467 113.584 110.793C108.625 110.53 102.989 111.255 98.5075 112.734C98.1353 112.857 97.7333 112.655 97.6104 112.282C97.4875 111.909 97.6899 111.508 98.0625 111.385C102.702 109.854 108.532 109.102 113.659 109.374C126.709 110.067 136.616 113.662 143.947 120.366C144.236 120.631 144.257 121.08 143.992 121.37C143.851 121.523 143.66 121.601 143.467 121.601H143.468Z" fill="white"/>
<path id="Vector_24" d="M68.5556 145.773C68.5101 145.773 68.4639 145.768 68.4174 145.759C68.0324 145.683 67.7821 145.31 67.8581 144.925C69.3674 137.273 73.1275 130.427 79.3537 123.997C82.535 120.711 86.7096 117.453 91.4261 114.575C91.761 114.37 92.1978 114.477 92.4023 114.811C92.6069 115.146 92.5011 115.583 92.1662 115.787C87.5505 118.604 83.4732 121.784 80.3744 124.985C74.3449 131.212 70.7066 137.824 69.252 145.199C69.1852 145.538 68.8883 145.772 68.5556 145.772V145.773Z" fill="white"/>
<path id="Vector_25" d="M69.2893 166.291C68.9768 166.291 68.6905 166.083 68.6046 165.768C67.5726 161.987 67.1123 157.987 67.1123 152.795C67.1123 152.403 67.4305 152.085 67.8226 152.085C68.2146 152.085 68.5328 152.403 68.5328 152.795C68.5328 157.855 68.9775 161.74 69.975 165.393C70.0784 165.772 69.8553 166.162 69.4771 166.265C69.4146 166.282 69.3514 166.291 69.2896 166.291L69.2893 166.291Z" fill="white"/>
<path id="Vector_26" d="M108.749 195.931C108.745 195.931 108.741 195.931 108.736 195.931C97.2951 195.725 85.4727 190.696 78.6172 183.119C75.2726 179.422 72.7622 175.788 70.9421 172.01C70.772 171.657 70.9201 171.233 71.2738 171.062C71.6275 170.892 72.0519 171.04 72.222 171.394C73.9824 175.048 76.4186 178.571 79.6709 182.165C86.276 189.466 97.6949 194.311 108.762 194.511C109.154 194.518 109.467 194.841 109.459 195.234C109.452 195.621 109.136 195.931 108.749 195.931L108.749 195.931Z" fill="white"/>
<path id="Vector_27" d="M116.869 195.265C116.525 195.265 116.223 195.014 116.168 194.664C116.108 194.277 116.373 193.913 116.76 193.853C125.368 192.506 131.267 189.87 137.12 184.755C137.415 184.497 137.864 184.527 138.122 184.822C138.38 185.118 138.35 185.566 138.055 185.824C131.982 191.132 125.876 193.865 116.98 195.256C116.943 195.262 116.905 195.265 116.869 195.265Z" fill="white"/>
<path id="Vector_28" d="M141.41 182.323C141.233 182.323 141.056 182.258 140.919 182.126C140.635 181.855 140.625 181.405 140.897 181.122C145.255 176.566 148.443 170.153 149.215 164.385C149.796 160.05 150.31 153.736 149.456 148.273C148.274 140.705 145.387 135.009 140.093 129.805C139.813 129.53 139.81 129.08 140.085 128.8C140.36 128.52 140.809 128.517 141.089 128.791C146.54 134.15 149.644 140.271 150.86 148.054C151.739 153.685 151.217 160.145 150.623 164.573C149.801 170.716 146.548 177.269 141.923 182.103C141.784 182.249 141.597 182.322 141.41 182.322V182.323Z" fill="white"/>
<path id="Vector_29" d="M136.314 126.298C136.162 126.298 136.009 126.25 135.879 126.149C134.779 125.296 133.562 124.417 132.263 123.537C122.398 116.855 107.554 116.007 96.9675 121.52C95.9405 122.055 94.9156 122.648 93.9212 123.281C93.5906 123.492 93.1509 123.395 92.9407 123.064C92.7297 122.733 92.827 122.294 93.158 122.083C94.1872 121.428 95.248 120.815 96.3116 120.26C101.695 117.457 108.332 116.126 115 116.513C121.649 116.899 128.063 118.976 133.06 122.361C134.384 123.257 135.625 124.155 136.751 125.027C137.06 125.268 137.117 125.714 136.876 126.024C136.736 126.204 136.526 126.298 136.314 126.298Z" fill="white"/>
<path id="Vector_30" d="M79.8072 170.775C79.5544 170.775 79.3097 170.64 79.1815 170.402C75.1088 162.849 73.7519 154.353 75.3606 146.478C76.9417 138.738 81.6273 131.274 88.5538 125.462C88.8546 125.21 89.3024 125.249 89.5545 125.549C89.8067 125.85 89.7676 126.298 89.4668 126.55C82.785 132.157 78.2695 139.335 76.752 146.763C75.21 154.312 76.5166 162.468 80.4315 169.728C80.6176 170.073 80.4887 170.504 80.1435 170.69C80.0363 170.748 79.9209 170.775 79.8072 170.775V170.775Z" fill="white"/>
<path id="Vector_31" d="M82.7825 175.481C82.5638 175.481 82.3478 175.38 82.2086 175.19C81.0832 173.651 80.0644 172.04 79.1811 170.402C78.995 170.057 79.124 169.626 79.4692 169.44C79.8143 169.254 80.2455 169.383 80.4312 169.728C81.2839 171.309 82.2676 172.865 83.355 174.352C83.5866 174.669 83.5177 175.113 83.2009 175.344C83.0745 175.437 82.9274 175.481 82.7822 175.481L82.7825 175.481Z" fill="white"/>
<path id="Vector_32" d="M111.538 188.325C102.607 188.325 91.295 185.294 85.8323 179.528C84.523 178.146 83.3038 176.687 82.2086 175.19C81.977 174.873 82.0459 174.429 82.3623 174.197C82.6795 173.966 83.1234 174.035 83.3549 174.351C84.4143 175.8 85.5951 177.213 86.8633 178.552C92.6033 184.611 106.029 187.675 114.968 186.735C115.357 186.695 115.708 186.977 115.749 187.367C115.79 187.757 115.507 188.106 115.117 188.147C113.985 188.266 112.785 188.325 111.538 188.325Z" fill="white"/>
<path id="Vector_33" d="M121.949 186.451C121.659 186.451 121.386 186.272 121.281 185.984C121.147 185.615 121.337 185.207 121.706 185.073C131.957 181.343 139.062 174.29 141.715 165.213C142.623 162.104 142.998 158.758 142.83 155.268C142.811 154.876 143.113 154.543 143.505 154.524C143.902 154.506 144.23 154.808 144.249 155.199C144.425 158.848 144.032 162.351 143.079 165.611C140.296 175.134 132.878 182.52 122.192 186.409C122.112 186.438 122.03 186.452 121.949 186.452L121.949 186.451Z" fill="white"/>
<path id="Vector_34" d="M142.721 149.973C142.397 149.973 142.104 149.749 142.029 149.42C140.784 143.942 138.255 139.049 134.716 135.27C129.084 129.255 121.093 125.676 112.79 125.453C112.398 125.442 112.089 125.116 112.099 124.724C112.11 124.332 112.437 124.013 112.828 124.033C121.508 124.267 129.863 128.008 135.753 134.298C139.464 138.262 142.113 143.382 143.414 149.105C143.501 149.487 143.262 149.868 142.879 149.955C142.826 149.967 142.773 149.972 142.721 149.972V149.973Z" fill="white"/>
<path id="Vector_35" d="M83.6842 151.592C83.6473 151.592 83.61 151.589 83.5727 151.583C83.1853 151.522 82.9207 151.158 82.9818 150.771C84.5554 140.793 91.9769 128.86 103.117 125.359C104.161 125.03 105.242 124.759 106.329 124.551C106.713 124.478 107.086 124.73 107.16 125.116C107.233 125.501 106.981 125.873 106.595 125.946C105.562 126.144 104.535 126.402 103.543 126.714C92.9543 130.042 85.89 141.446 84.3849 150.992C84.3299 151.342 84.0276 151.592 83.6842 151.592Z" fill="white"/>
<path id="Vector_36" d="M150.149 119.943C149.925 119.943 149.705 119.838 149.567 119.641C143.543 111.054 134.078 106.998 127.199 105.106C126.82 105.002 126.598 104.611 126.702 104.233C126.806 103.855 127.196 103.633 127.575 103.736C134.679 105.689 144.463 109.893 150.73 118.825C150.955 119.146 150.877 119.589 150.556 119.814C150.432 119.901 150.29 119.943 150.149 119.943Z" fill="white"/>
<path id="Vector_37" d="M73.5921 121.299C73.509 121.299 73.4245 121.284 73.3421 121.253C72.9749 121.115 72.7891 120.706 72.9273 120.339C74.3283 116.613 79.3324 111.858 85.9869 107.929C92.9621 103.81 104.392 101.655 112.078 101.655C115.398 101.655 118.759 101.943 122.068 102.512C122.455 102.578 122.714 102.946 122.648 103.332C122.582 103.719 122.214 103.977 121.828 103.912C118.598 103.357 115.318 103.075 112.078 103.075C104.768 103.075 93.3928 105.205 86.7092 109.152C80.4174 112.867 75.5297 117.455 74.2569 120.839C74.1496 121.124 73.8794 121.299 73.5917 121.299L73.5921 121.299Z" fill="white"/>
<path id="Vector_38" d="M138.795 102.833C138.658 102.833 138.521 102.794 138.399 102.711C129.193 96.5022 116.178 94.1402 102.693 96.2302C102.305 96.2891 101.943 96.0242 101.882 95.6371C101.822 95.2497 102.088 94.8867 102.475 94.8264C116.311 92.6824 129.694 95.1272 139.193 101.534C139.518 101.753 139.604 102.195 139.385 102.52C139.248 102.723 139.023 102.833 138.795 102.833Z" fill="white"/>
<path id="Vector_39" d="M86.5139 101.546C86.2727 101.546 86.0376 101.423 85.9045 101.202C85.7024 100.865 85.8111 100.429 86.1474 100.227C89.0161 98.5029 92.7351 97.0281 96.9029 95.9623C97.2833 95.8664 97.67 96.0944 97.767 96.4744C97.8643 96.8544 97.6348 97.2415 97.2549 97.3385C93.2188 98.3708 89.6309 99.7906 86.879 101.444C86.7646 101.513 86.6382 101.546 86.5139 101.546Z" fill="white"/>
<path id="Vector_40" d="M112.251 209.261C108.339 209.261 104.123 208.886 100.002 208.16C99.6161 208.091 99.3583 207.723 99.4265 207.337C99.4946 206.951 99.8647 206.693 100.249 206.761C105.9 207.758 111.725 208.078 116.65 207.664C124.932 206.969 144.629 201.479 152.648 188.949C152.859 188.618 153.298 188.522 153.629 188.734C153.959 188.945 154.056 189.385 153.844 189.715C144.872 203.734 123.536 208.512 116.769 209.08C115.329 209.201 113.814 209.261 112.251 209.261L112.251 209.261Z" fill="white"/>
<path id="Vector_41" d="M93.5416 206.686C93.4787 206.686 93.4148 206.678 93.3512 206.66C86.1069 204.65 80.141 201.689 76.0986 198.096C75.8052 197.836 75.7789 197.387 76.0396 197.094C76.2999 196.8 76.7492 196.774 77.0422 197.035C80.923 200.484 86.6939 203.339 93.7309 205.291C94.1087 205.396 94.3303 205.788 94.2252 206.166C94.1379 206.48 93.8523 206.686 93.5413 206.686L93.5416 206.686Z" fill="white"/>
<path id="Vector_42" d="M127.369 214.286C127.053 214.286 126.764 214.072 126.682 213.751C126.585 213.371 126.814 212.984 127.194 212.887C129.42 212.318 131.635 211.632 133.964 210.791C134.333 210.658 134.74 210.849 134.873 211.218C135.007 211.587 134.815 211.995 134.446 212.128C132.073 212.984 129.816 213.683 127.546 214.264C127.487 214.279 127.427 214.286 127.369 214.286L127.369 214.286Z" fill="white"/>
<path id="Vector_43" d="M111.104 216.303C110.571 216.303 110.033 216.298 109.49 216.286C100.973 216.108 94.65 215.361 87.5332 212.072C87.177 211.908 87.0218 211.486 87.1862 211.13C87.3507 210.774 87.7733 210.618 88.1287 210.783C95.0204 213.968 101.191 214.692 109.519 214.866C113.36 214.946 116.95 214.738 120.493 214.227C120.884 214.17 121.241 214.441 121.297 214.829C121.354 215.217 121.084 215.577 120.696 215.633C117.577 216.082 114.424 216.303 111.104 216.303Z" fill="white"/>
</g>
<g id="Group_6">
<path id="Vector_44" d="M85.0528 164.219C84.7154 164.219 84.393 164.026 84.2442 163.699C83.975 163.107 83.7129 162.492 83.4654 161.873C83.1891 161.182 82.9678 160.4 82.8069 159.547C82.7164 159.065 83.0335 158.601 83.5154 158.511C83.9977 158.42 84.4615 158.737 84.5521 159.219C84.6913 159.959 84.8802 160.63 85.1139 161.214C85.3515 161.808 85.6029 162.397 85.8604 162.964C86.0632 163.411 85.866 163.937 85.4196 164.14C85.3007 164.194 85.1753 164.219 85.0528 164.219Z" fill="#FFB6CB"/>
<path id="Vector_45" d="M91.8503 173.939C91.6393 173.939 91.428 173.864 91.2583 173.712C88.5021 171.244 86.1423 167.875 84.2437 163.699C84.0409 163.253 84.238 162.726 84.6844 162.523C85.1305 162.32 85.6568 162.517 85.8599 162.964C87.6558 166.914 89.8704 170.086 92.4426 172.389C92.8077 172.716 92.839 173.277 92.5116 173.642C92.3361 173.838 92.0935 173.938 91.8499 173.938L91.8503 173.939Z" fill="#FFB6CB"/>
<path id="Vector_46" d="M111.043 180.335C105.838 180.335 100.564 179.102 95.7362 176.75C95.2955 176.535 95.1123 176.004 95.3271 175.563C95.542 175.122 96.0733 174.939 96.5143 175.154C101.344 177.507 106.644 178.681 111.828 178.55C112.324 178.535 112.725 178.925 112.738 179.415C112.75 179.905 112.362 180.313 111.872 180.325C111.596 180.332 111.319 180.335 111.043 180.335Z" fill="#FFB6CB"/>
<path id="Vector_47" d="M118.496 179.396C118.102 179.396 117.743 179.133 117.638 178.735C117.513 178.261 117.795 177.775 118.269 177.65C123.439 176.282 127.815 173.376 130.923 169.244C135.181 163.582 136.538 155.782 134.465 148.887C134.324 148.418 134.589 147.923 135.059 147.782C135.529 147.64 136.024 147.907 136.165 148.376C138.399 155.802 136.934 164.207 132.342 170.311C128.992 174.765 124.282 177.896 118.723 179.367C118.647 179.387 118.571 179.396 118.496 179.396Z" fill="#FFB6CB"/>
<path id="Vector_48" d="M132.409 143.395C132.125 143.395 131.846 143.259 131.674 143.006C130.395 141.126 128.815 139.463 126.978 138.064C122.883 134.948 117.05 133.45 110.968 133.956C105.033 134.45 99.855 136.863 97.1166 140.41C96.8172 140.798 96.2593 140.87 95.8715 140.57C95.4833 140.271 95.4116 139.714 95.7109 139.325C102.16 130.971 118.784 129.596 128.053 136.651C130.044 138.166 131.756 139.969 133.142 142.008C133.418 142.414 133.313 142.966 132.907 143.241C132.754 143.345 132.581 143.395 132.409 143.395Z" fill="#FFB6CB"/>
<path id="Vector_49" d="M111.703 172.7C107.588 172.7 103.545 171.507 100.459 169.357C92.2875 163.664 89.5299 155.208 92.6934 145.548C92.8462 145.082 93.3472 144.829 93.8135 144.98C94.2795 145.133 94.5334 145.635 94.381 146.101C91.4821 154.952 94.001 162.693 101.474 167.9C104.529 170.028 108.641 171.119 112.759 170.895C113.251 170.866 113.667 171.244 113.693 171.733C113.72 172.223 113.345 172.641 112.855 172.668C112.471 172.689 112.086 172.699 111.702 172.699L111.703 172.7Z" fill="#FFB6CB"/>
<path id="Vector_50" d="M118.537 171.484C118.179 171.484 117.841 171.266 117.707 170.91C117.533 170.452 117.764 169.94 118.223 169.766C120.951 168.733 124.558 166.546 126.248 161.997C127.964 157.375 128.102 153.404 126.682 149.497C125.762 146.969 124.077 144.869 121.673 143.257C121.266 142.984 121.157 142.432 121.431 142.025C121.703 141.618 122.255 141.509 122.663 141.782C125.386 143.608 127.3 146 128.351 148.89C129.924 153.215 129.784 157.576 127.913 162.615C126.413 166.652 123.195 169.782 118.852 171.426C118.749 171.465 118.642 171.484 118.538 171.484H118.537Z" fill="#FFB6CB"/>
<path id="Vector_51" d="M101.786 161.402C101.526 161.402 101.268 161.288 101.093 161.069C97.9494 157.15 97.2665 151.058 99.4324 146.255C102.332 139.825 110.122 137.472 115.978 138.911C116.698 139.088 117.412 139.299 118.099 139.538C118.562 139.699 118.806 140.205 118.645 140.668C118.484 141.131 117.977 141.376 117.515 141.215C116.88 140.994 116.221 140.799 115.554 140.636C110.403 139.37 103.57 141.399 101.051 146.985C99.1788 151.137 99.779 156.593 102.478 159.959C102.785 160.341 102.724 160.9 102.341 161.207C102.178 161.338 101.981 161.402 101.786 161.402V161.402Z" fill="#FFB6CB"/>
<path id="Vector_52" d="M110.852 165.592C108.994 165.592 107.11 165.188 105.363 164.374C104.918 164.167 104.726 163.639 104.933 163.195C105.141 162.75 105.669 162.558 106.113 162.765C109.431 164.311 113.312 164.146 116.242 162.332C117.893 161.31 119.116 159.459 119.596 157.254C120.106 154.916 119.712 152.472 118.543 150.714C117.383 148.971 114.594 147.781 112.191 148.007C110.91 148.128 109.201 148.701 108.338 150.745C107.643 152.388 108.461 153.872 109.578 154.614C110.582 155.281 112.218 155.583 113.525 154.241C113.868 153.89 114.43 153.883 114.781 154.225C115.132 154.568 115.14 155.13 114.797 155.481C112.864 157.464 110.289 157.218 108.596 156.094C106.868 154.947 105.612 152.634 106.702 150.054C107.642 147.829 109.532 146.474 112.025 146.24C115.071 145.955 118.507 147.454 120.021 149.73C121.473 151.912 121.951 154.793 121.331 157.632C120.749 160.304 119.234 162.568 117.176 163.842C115.299 165.004 113.095 165.592 110.852 165.592Z" fill="#FFB6CB"/>
<path id="Vector_53" d="M103.845 202.056C103.822 202.056 103.799 202.055 103.776 202.053C96.6244 201.503 90.7988 198.912 85.4444 196.305C80.1924 193.749 73.1139 187.615 69.6652 182.633C69.3861 182.23 69.4869 181.677 69.89 181.398C70.2931 181.119 70.8464 181.22 71.1255 181.623C74.4282 186.394 81.2006 192.265 86.2218 194.709C91.4224 197.241 97.0718 199.757 103.912 200.283C104.401 200.32 104.767 200.747 104.73 201.236C104.694 201.702 104.305 202.056 103.845 202.056H103.845Z" fill="#FFB6CB"/>
<path id="Vector_54" d="M111.85 202.257C111.372 202.257 110.977 201.877 110.962 201.396C110.948 200.906 111.334 200.497 111.824 200.482C124.026 200.12 134.485 196.483 142.91 189.671C146.971 186.386 150.195 181.998 152.491 176.627C152.683 176.176 153.206 175.967 153.656 176.16C154.107 176.352 154.316 176.874 154.123 177.325C151.712 182.965 148.315 187.583 144.026 191.051C135.293 198.114 124.476 201.884 111.876 202.257C111.867 202.257 111.858 202.257 111.849 202.257L111.85 202.257Z" fill="#FFB6CB"/>
<path id="Vector_55" d="M155.191 172.592C155.108 172.592 155.023 172.58 154.94 172.555C154.469 172.416 154.201 171.922 154.34 171.452C155.765 166.625 156.632 161.179 156.989 154.803C157.555 144.803 155.345 136.742 150.034 129.436C149.745 129.039 149.833 128.484 150.23 128.196C150.627 127.907 151.182 127.995 151.47 128.392C157.035 136.048 159.353 144.471 158.762 154.903C158.397 161.417 157.507 166.995 156.042 171.955C155.928 172.341 155.575 172.592 155.191 172.592Z" fill="#FFB6CB"/>
<path id="Vector_56" d="M68.5541 145.95C68.4969 145.95 68.4393 145.944 68.3815 145.933C67.9006 145.838 67.5874 145.371 67.6822 144.89C68.8513 138.956 71.3532 133.554 75.3317 128.373C75.6301 127.984 76.1876 127.911 76.5765 128.21C76.9654 128.508 77.0385 129.066 76.7399 129.455C72.9318 134.413 70.5389 139.574 69.4241 145.233C69.341 145.656 68.9696 145.95 68.5541 145.95Z" fill="#FFB6CB"/>
<path id="Vector_57" d="M69.2891 166.469C68.8985 166.469 68.5408 166.209 68.4332 165.815C67.3966 162.019 66.9346 158.004 66.9346 152.796C66.9346 152.306 67.332 151.908 67.8224 151.908C68.3128 151.908 68.7102 152.306 68.7102 152.796C68.7102 157.839 69.1531 161.71 70.146 165.347C70.2753 165.82 69.9965 166.309 69.5235 166.438C69.4454 166.459 69.3665 166.469 69.2891 166.469Z" fill="#FFB6CB"/>
<path id="Vector_58" d="M108.749 196.108C108.744 196.108 108.738 196.108 108.733 196.108C97.2448 195.902 85.372 190.85 78.4849 183.238C75.1289 179.528 72.6089 175.881 70.7814 172.088C70.5687 171.646 70.7541 171.115 71.1958 170.902C71.6376 170.69 72.1682 170.876 72.3809 171.317C74.1335 174.955 76.5608 178.465 79.8014 182.047C86.3749 189.312 97.7434 194.135 108.764 194.333C109.254 194.342 109.645 194.746 109.636 195.237C109.628 195.721 109.232 196.108 108.749 196.108H108.749Z" fill="#FFB6CB"/>
<path id="Vector_59" d="M116.869 195.442C116.439 195.442 116.062 195.129 115.993 194.692C115.917 194.207 116.249 193.753 116.733 193.677C125.305 192.337 131.178 189.713 137.003 184.622C137.372 184.299 137.933 184.337 138.256 184.706C138.578 185.075 138.541 185.636 138.171 185.959C132.071 191.29 125.94 194.035 117.007 195.432C116.961 195.439 116.915 195.442 116.869 195.442Z" fill="#FFB6CB"/>
<path id="Vector_60" d="M141.409 182.501C141.189 182.501 140.968 182.419 140.796 182.255C140.441 181.916 140.429 181.354 140.768 180.999C145.102 176.47 148.271 170.095 149.039 164.361C149.618 160.038 150.13 153.743 149.28 148.301C148.104 140.773 145.232 135.108 139.968 129.932C139.619 129.588 139.614 129.026 139.958 128.676C140.302 128.326 140.864 128.322 141.213 128.665C146.692 134.052 149.813 140.204 151.035 148.027C151.917 153.679 151.394 160.157 150.799 164.597C149.971 170.776 146.701 177.366 142.051 182.227C141.877 182.409 141.643 182.5 141.409 182.5V182.501Z" fill="#FFB6CB"/>
<path id="Vector_61" d="M79.8078 170.954C79.4917 170.954 79.186 170.785 79.0254 170.488C74.9329 162.901 73.5695 154.362 75.1868 146.443C76.5115 139.947 79.9871 133.671 85.2374 128.294C85.5801 127.943 86.1423 127.936 86.4928 128.279C86.8437 128.621 86.8504 129.183 86.5077 129.534C81.4965 134.667 78.1834 140.637 76.9266 146.798C75.3924 154.31 76.6929 162.424 80.5884 169.645C80.8213 170.076 80.6601 170.615 80.2286 170.848C80.0944 170.92 79.9502 170.954 79.8078 170.954Z" fill="#FFB6CB"/>
<path id="Vector_62" d="M82.7823 175.659C82.5089 175.659 82.239 175.533 82.065 175.295C80.9346 173.75 79.9114 172.132 79.0243 170.487C78.7917 170.055 78.9529 169.516 79.3844 169.284C79.8152 169.051 80.3543 169.212 80.5873 169.644C81.436 171.218 82.4151 172.767 83.4979 174.246C83.7873 174.642 83.7014 175.198 83.3054 175.487C83.1474 175.603 82.9638 175.659 82.782 175.659H82.7823Z" fill="#FFB6CB"/>
<path id="Vector_63" d="M111.546 188.503C102.572 188.503 91.1997 185.452 85.7033 179.651C84.3886 178.263 83.1645 176.798 82.0654 175.295C81.7759 174.899 81.8619 174.344 82.2578 174.054C82.6535 173.765 83.2089 173.851 83.4987 174.246C84.5538 175.688 85.7296 177.096 86.9928 178.429C92.697 184.45 106.053 187.493 114.95 186.558C115.436 186.508 115.875 186.861 115.926 187.348C115.977 187.836 115.623 188.273 115.136 188.324C114.001 188.443 112.796 188.502 111.546 188.502L111.546 188.503Z" fill="#FFB6CB"/>
<path id="Vector_64" d="M121.948 186.628C121.586 186.628 121.245 186.405 121.114 186.044C120.947 185.584 121.184 185.074 121.645 184.906C131.841 181.196 138.908 174.184 141.544 165.162C142.447 162.073 142.82 158.747 142.652 155.276C142.629 154.786 143.007 154.37 143.496 154.346C143.989 154.323 144.402 154.701 144.426 155.19C144.603 158.858 144.207 162.381 143.249 165.66C140.45 175.239 132.993 182.666 122.252 186.575C122.152 186.611 122.049 186.628 121.948 186.628Z" fill="#FFB6CB"/>
<path id="Vector_65" d="M142.722 150.151C142.316 150.151 141.95 149.871 141.857 149.459C140.619 144.014 138.105 139.149 134.588 135.391C132.482 133.145 130.03 131.226 127.3 129.687C126.873 129.446 126.722 128.905 126.963 128.478C127.203 128.051 127.745 127.9 128.172 128.14C131.059 129.768 133.653 131.799 135.884 134.177C139.617 138.166 142.281 143.314 143.588 149.066C143.697 149.544 143.397 150.02 142.919 150.128C142.853 150.143 142.787 150.151 142.722 150.151Z" fill="#FFB6CB"/>
<path id="Vector_66" d="M83.6826 151.77C83.6368 151.77 83.5899 151.766 83.5431 151.759C83.0587 151.683 82.728 151.228 82.8048 150.744C84.2114 141.832 89.7536 132.973 96.9245 128.176C97.3321 127.903 97.8837 128.012 98.1561 128.42C98.4288 128.827 98.3194 129.378 97.9117 129.651C91.1333 134.187 85.8919 142.575 84.5584 151.02C84.4895 151.458 84.112 151.77 83.6826 151.77Z" fill="#FFB6CB"/>
<path id="Vector_67" d="M112.251 209.438C108.329 209.438 104.103 209.063 99.9715 208.334C99.4885 208.249 99.166 207.789 99.2513 207.306C99.3365 206.823 99.7971 206.501 100.28 206.586C105.916 207.579 111.723 207.9 116.635 207.487C124.888 206.794 144.514 201.327 152.497 188.853C152.762 188.44 153.31 188.32 153.724 188.584C154.137 188.848 154.257 189.397 153.993 189.81C144.982 203.889 123.573 208.686 116.783 209.257C115.338 209.378 113.819 209.438 112.251 209.438H112.251Z" fill="#FFB6CB"/>
<path id="Vector_68" d="M93.5415 206.864C93.463 206.864 93.3831 206.853 93.3035 206.831C86.0329 204.814 80.0429 201.84 75.9805 198.229C75.614 197.903 75.581 197.342 75.9067 196.975C76.2323 196.609 76.7934 196.576 77.1603 196.902C81.0213 200.334 86.7673 203.175 93.7783 205.12C94.2507 205.251 94.5277 205.741 94.3966 206.213C94.2876 206.606 93.9303 206.864 93.5415 206.864V206.864Z" fill="#FFB6CB"/>
<path id="Vector_69" d="M127.369 214.463C126.973 214.463 126.612 214.197 126.51 213.795C126.388 213.32 126.675 212.837 127.149 212.715C129.37 212.147 131.579 211.463 133.904 210.624C134.365 210.458 134.874 210.697 135.04 211.158C135.207 211.619 134.968 212.128 134.506 212.294C132.128 213.153 129.866 213.853 127.589 214.435C127.516 214.454 127.442 214.463 127.369 214.463Z" fill="#FFB6CB"/>
<path id="Vector_70" d="M111.104 216.481C110.569 216.481 110.03 216.475 109.486 216.464C100.946 216.285 94.6034 215.536 87.4585 212.234C87.0135 212.028 86.8192 211.5 87.0248 211.055C87.2308 210.61 87.7578 210.417 88.2032 210.622C95.0665 213.794 101.217 214.515 109.523 214.689C113.355 214.769 116.934 214.561 120.467 214.052C120.953 213.983 121.403 214.319 121.473 214.804C121.543 215.289 121.206 215.739 120.72 215.809C117.593 216.26 114.432 216.481 111.104 216.481H111.104Z" fill="#FFB6CB"/>
</g>
<path id="Vector_71" d="M161.118 129.624H62.3915C61.9991 129.624 61.6813 129.306 61.6813 128.913C61.6813 128.521 61.9991 128.203 62.3915 128.203H161.118C161.51 128.203 161.829 128.521 161.829 128.913C161.829 129.305 161.51 129.624 161.118 129.624Z" fill="black"/>
</g>
</g>
<g id="Group_7">
<path id="Vector_72" d="M236.594 271.975L237.533 288.412L243.168 290.76L248.804 287.473L247.395 268.218L236.594 271.975Z" fill="#F9AA81"/>
<path id="Vector_73" d="M274.761 117.193C274.761 117.193 283.284 134.24 282.929 138.501C282.574 142.763 263.396 159.099 263.396 159.099L256.294 149.155L267.658 137.791L257.004 123.231L274.761 117.193Z" fill="#F9AA81"/>
<path id="Vector_74" d="M258.07 275.938L260.555 279.489L253.808 284.816L249.901 280.909L258.07 275.938Z" fill="#F9AA81"/>
<path id="Vector_75" d="M255.939 142.763C255.939 142.763 268.831 163.741 266.818 175.582C264.804 187.422 258.188 223.716 257.326 231.695C256.845 236.14 256.097 251.363 255.528 263.98C255.392 267.002 261.065 275.968 261.065 275.968L250.422 282.918L250.71 284.977L235.389 284.578L235.196 264.565C235.196 264.565 223.959 249.713 221.946 244.565C219.932 239.417 217.056 210.846 216.193 197.976C215.33 185.106 215.042 172.493 217.919 160.91C220.795 149.327 223.959 145.723 223.959 145.723L255.939 142.763Z" fill="black"/>
<path id="Vector_76" d="M222.031 295.54C222.031 295.54 220.607 297.772 228.424 298.443C236.241 299.113 249.984 300.044 249.869 298.072C249.753 296.1 249.696 295.114 249.696 295.114L222.031 295.54Z" fill="black"/>
<path id="Vector_77" d="M248.634 288.547C248.634 288.547 250.127 295.608 249.112 296.7C247.297 298.654 222.209 298.569 222.03 295.512C221.935 293.901 228.621 292.752 232.371 290.883C236.12 289.015 236.114 284.007 237.624 285.089C239.135 286.172 237.672 289.232 240.604 289.869C243.535 290.505 248.634 288.547 248.634 288.547Z" fill="white"/>
<path id="Vector_78" d="M263.572 293.722C265.8 289.265 269.857 283.402 265.879 281.878C261.901 280.353 259.887 285.278 257.969 291.31C256.052 297.343 254.345 298.301 251.438 298.657C248.531 299.014 246.303 298.179 246.025 298.735C245.746 299.293 247.41 299.849 252.709 299.849C258.008 299.849 259.672 301.521 263.572 293.722Z" fill="black"/>
<path id="Vector_79" d="M259.951 278.125L266.357 282.302C266.357 282.302 264.129 280.631 261.343 283.974C258.622 287.24 257.862 295.533 255.077 297.482C252.292 299.432 246.025 298.735 246.025 298.735C246.025 298.735 249.924 296.229 251.595 292.886C253.267 289.544 252.152 283.695 252.152 283.695C252.152 283.695 253.684 280.492 255.912 279.099C258.141 277.707 259.951 278.125 259.951 278.125Z" fill="white"/>
<path id="Vector_80" d="M255.757 265.651C255.683 265.651 255.613 265.604 255.589 265.529C251.203 252.128 241.173 237.86 241.073 237.717L241.038 237.669L241.04 237.609C241.054 237.138 242.515 190.37 245.651 180.931L245.674 180.861L245.74 180.828C254.132 176.572 250.01 164.692 249.967 164.572C249.934 164.48 249.982 164.379 250.075 164.346C250.168 164.312 250.269 164.36 250.302 164.453C250.345 164.575 254.548 176.688 245.966 181.111C242.912 190.505 241.457 235.647 241.397 237.561C242.051 238.496 251.654 252.361 255.926 265.418C255.957 265.511 255.906 265.611 255.813 265.642C255.795 265.648 255.776 265.651 255.758 265.651L255.757 265.651Z" fill="white"/>
<path id="Vector_81" d="M249.354 281.963C249.303 281.963 249.252 281.941 249.217 281.898L235.651 265.539C235.588 265.464 235.598 265.352 235.674 265.289C235.749 265.226 235.861 265.237 235.924 265.312L249.49 281.671C249.553 281.747 249.542 281.859 249.467 281.921C249.434 281.949 249.394 281.963 249.354 281.963Z" fill="white"/>
<path id="Vector_82" d="M227.619 92.0181C227.619 92.0181 219.216 94.1439 215.673 100.117C212.13 106.09 201.297 118.339 201.297 118.339C201.297 118.339 205.65 124.515 212.231 126.337L218.811 128.159C218.811 128.159 218.145 133.489 219.36 138.146C220.575 142.803 220.835 148.103 220.835 148.103C220.835 148.103 234.502 149.723 242.399 148.812C250.295 147.9 259.135 144.183 259.135 144.183C259.135 144.183 261.026 127.552 261.938 125.021C262.849 122.49 263.456 122.49 263.456 122.49C263.456 122.49 266.595 122.591 270.34 121.781C274.086 120.972 277.326 118.339 277.326 118.339C277.326 118.339 268.215 98.2943 257.99 95.7636C247.765 93.2326 241.286 92.0181 241.286 92.0181H227.619Z" fill="#F66FA0"/>
<path id="Vector_83" d="M217.784 64.9244C217.784 64.9244 216.331 63.2159 217.343 60.9885C218.355 58.7614 222.202 56.534 228.074 55.3191C233.946 54.1042 239.58 53.1308 243.766 58.0526C248.372 63.4687 249.992 68.2268 247.967 77.4396C245.942 86.6521 257.701 86.0274 262.09 92.2707C265.684 97.3831 261.33 100.015 256.673 103.761C251.904 107.597 254.75 113.48 248.169 115.1C241.589 116.719 237.489 110.392 233.44 110.19C229.39 109.987 221.494 110.797 220.785 103.407C220.076 96.0162 222.303 88.5247 224.632 84.4751C226.961 80.4256 217.784 64.924 217.784 64.924V64.9244Z" fill="black"/>
<path id="Vector_84" d="M219.418 61.8491C219.418 61.8491 218.102 63.064 217.394 66.4048C216.685 69.7455 218.058 72.1696 217.823 73.6938C217.621 75.01 215.572 77.541 216.078 77.9459C216.715 78.4558 217.495 78.7559 217.495 78.7559C217.495 78.7559 218.204 84.9313 221.747 85.4374C225.898 86.2474 225.594 80.4769 227.113 75.516C225.946 72.7165 223.619 70.291 221.443 66.9108C219.843 64.4238 219.418 61.8491 219.418 61.8491Z" fill="#F9AA81"/>
<path id="Vector_85" d="M224.987 71.9726C224.987 71.9726 225.695 69.8468 228.226 70.0492C230.757 70.2517 232.478 76.0222 227.112 75.5161C223.415 75.1674 224.987 71.9726 224.987 71.9726Z" fill="#F9AA81"/>
<path id="Vector_86" d="M229.34 72.4538C229.29 72.4538 229.24 72.4328 229.205 72.392C229.16 72.3391 228.071 71.1011 226.902 71.8202C226.818 71.8717 226.709 71.8454 226.658 71.7623C226.607 71.6789 226.633 71.5695 226.716 71.518C228.146 70.6387 229.462 72.1455 229.475 72.1608C229.539 72.235 229.53 72.3469 229.456 72.4108C229.422 72.4395 229.381 72.4538 229.34 72.4538Z" fill="black"/>
<path id="Vector_87" d="M202.917 119.453L200.183 121.781C200.183 121.781 192.425 115.628 188.686 111.82C184.946 108.012 185.014 107.128 185.014 107.128C185.014 107.128 184.946 103.185 182.702 100.669C180.458 98.1531 176.242 94.9573 175.767 95.7734C175.291 96.5891 175.767 97.6091 175.767 97.6091C175.767 97.6091 174.362 96.56 173.052 95.4594C171.785 94.3951 170.622 93.2676 169.987 93.8692C168.695 95.0929 171.258 96.8707 171.938 97.6865C172.618 98.5026 173.963 100.116 173.963 100.116C173.963 100.116 172.231 100.805 172.299 102.028C170.395 103.048 171.007 105.088 171.007 105.088C171.007 105.088 169.575 105.667 170.255 106.891C170.935 108.115 175.305 111.411 176.392 112.771C177.48 114.131 182.941 122.889 187.225 128.26C191.508 133.632 198.248 139.74 201.296 140.307C205.65 141.117 216.988 128.159 216.988 128.159L202.916 119.453L202.917 119.453Z" fill="#F9AA81"/>
<path id="Vector_88" d="M221.153 70.098C221.079 70.098 221.004 70.0749 220.94 70.0266C219.168 68.6927 218.227 69.186 218.217 69.1913C218.048 69.2837 217.832 69.2276 217.735 69.0606C217.638 68.8937 217.689 68.6821 217.853 68.5812C217.906 68.5485 219.174 67.8081 221.367 69.4591C221.524 69.577 221.555 69.7997 221.437 69.9563C221.367 70.049 221.261 70.098 221.153 70.098Z" fill="black"/>
<path id="Vector_89" d="M218.596 72.3705C218.608 72.9926 218.87 73.492 219.181 73.4859C219.493 73.4799 219.735 72.9706 219.723 72.3484C219.711 71.7262 219.449 71.2269 219.138 71.233C218.827 71.239 218.584 71.7483 218.596 72.3705Z" fill="black"/>
<path id="Vector_90" d="M217.809 81.1819C217.809 81.1819 218.454 81.4141 220.07 79.9048C218.295 79.9048 217.591 79.7539 217.591 79.7539L217.809 81.1819Z" fill="white"/>
<path id="Vector_91" d="M222.024 295.47C221.982 295.47 221.941 295.456 221.907 295.427C221.833 295.363 221.825 295.25 221.889 295.176C221.924 295.137 222.783 294.188 227.519 292.528C228.042 292.344 228.525 292.179 228.975 292.026C232.579 290.8 233.928 290.341 235.588 286.984C236.768 284.599 237.223 284.349 237.513 284.415C237.812 284.485 237.827 284.91 237.827 284.994C237.827 285.092 237.748 285.171 237.65 285.171C237.552 285.171 237.472 285.092 237.472 284.994C237.471 284.898 237.445 284.78 237.418 284.754C237.402 284.765 237.037 284.856 235.907 287.142C234.182 290.629 232.691 291.137 229.09 292.362C228.641 292.515 228.158 292.68 227.636 292.862C222.99 294.492 222.166 295.4 222.158 295.409C222.123 295.449 222.074 295.47 222.024 295.47L222.024 295.47Z" fill="black"/>
<path id="Vector_92" d="M246.173 299.021C246.119 299.021 246.066 298.997 246.031 298.951C245.972 298.873 245.987 298.761 246.065 298.702C246.112 298.666 250.814 295.063 251.768 292C252.726 288.927 251.691 283.661 251.681 283.608C251.662 283.511 251.724 283.418 251.82 283.399C251.917 283.379 252.01 283.442 252.029 283.538C252.073 283.757 253.092 288.946 252.107 292.106C251.119 295.278 246.477 298.835 246.28 298.985C246.248 299.009 246.21 299.021 246.173 299.021Z" fill="black"/>
<path id="Vector_93" d="M266.06 282.33C266.024 282.33 265.989 282.319 265.957 282.298L259.92 278.036C259.84 277.979 259.821 277.869 259.878 277.789C259.934 277.708 260.045 277.689 260.125 277.746L266.162 282.008C266.243 282.064 266.261 282.175 266.205 282.255C266.17 282.304 266.115 282.33 266.06 282.33Z" fill="black"/>
<path id="Vector_94" d="M249.695 295.293C249.608 295.293 249.532 295.228 249.52 295.139L248.483 287.503C248.47 287.406 248.538 287.317 248.635 287.304C248.733 287.292 248.821 287.359 248.835 287.455L249.872 295.091C249.885 295.188 249.817 295.278 249.72 295.291C249.711 295.292 249.704 295.293 249.695 295.293Z" fill="black"/>
</g>
<g id="Group_8">
<path id="Vector_95" d="M215.99 4.78789C211.267 4.78789 198.585 0 198.585 0C198.585 0 185.903 4.78789 181.18 4.78789C181.18 4.78789 177.944 14.1698 177.944 20.7046C177.944 38.0123 198.584 47.2326 198.584 47.2326C198.584 47.2326 219.224 37.4302 219.224 20.7046C219.224 14.1698 215.989 4.78789 215.989 4.78789H215.99Z" fill="#F66FA0"/>
<path id="Vector_96" d="M198.567 45.4479L198.485 45.406C195.322 43.799 179.543 35.0557 179.543 20.7044C179.543 15.804 181.49 9.08806 182.327 6.42812L182.361 6.31768L182.476 6.30489C187.339 5.76366 195.988 2.66549 198.523 1.7283L198.585 1.70557L198.646 1.7283C201.181 2.66514 209.829 5.76331 214.693 6.30489L214.808 6.31768L214.843 6.42812C215.68 9.09019 217.627 15.8111 217.627 20.7044C217.627 34.6008 201.818 43.7181 198.648 45.4046L198.567 45.4479ZM182.631 6.64475C181.781 9.36009 179.898 15.919 179.898 20.7044C179.898 34.7283 195.251 43.3516 198.563 45.0473C201.88 43.2699 217.272 34.2833 217.272 20.7044C217.272 15.9261 215.388 9.36258 214.538 6.64475C209.655 6.06872 201.184 3.04335 198.585 2.08449C195.985 3.04371 187.514 6.06872 182.631 6.64475Z" fill="black"/>
<path id="Vector_97" d="M198.585 33.0274C204.959 33.0274 210.127 27.86 210.127 21.4856C210.127 15.1113 204.959 9.94385 198.585 9.94385C192.211 9.94385 187.043 15.1113 187.043 21.4856C187.043 27.86 192.211 33.0274 198.585 33.0274Z" fill="white"/>
<path id="Vector_98" d="M201.783 27.9665H195.742C193.883 27.9665 192.37 26.4536 192.37 24.5941V19.6013C192.37 18.9756 192.879 18.4663 193.505 18.4663H204.019C204.645 18.4663 205.155 18.9756 205.155 19.6013V24.5941C205.155 26.4536 203.642 27.9665 201.782 27.9665H201.783ZM193.505 18.8218C193.075 18.8218 192.725 19.1716 192.725 19.6017V24.5945C192.725 26.2583 194.079 27.6117 195.742 27.6117H201.783C203.447 27.6117 204.8 26.2583 204.8 24.5945V19.6017C204.8 19.1716 204.45 18.8218 204.02 18.8218H193.505H193.505Z" fill="black"/>
<path id="Vector_99" d="M199.604 25.858H197.63L197.879 23.7017C197.378 23.4318 197.061 22.9076 197.061 22.3319C197.061 21.4739 197.759 20.7754 198.617 20.7754C199.475 20.7754 200.173 21.4736 200.173 22.3319C200.173 22.9076 199.857 23.4318 199.355 23.7017L199.604 25.858ZM198.028 25.5029H199.206L198.973 23.4868L199.094 23.4343C199.534 23.2436 199.818 22.811 199.818 22.3323C199.818 21.67 199.279 21.1309 198.616 21.1309C197.954 21.1309 197.415 21.67 197.415 22.3323C197.415 22.8114 197.7 23.2439 198.14 23.4343L198.261 23.4868L198.028 25.5029Z" fill="black"/>
<path id="Vector_100" d="M202.669 18.6442H202.314V16.1107C202.314 15.2556 201.618 14.5602 200.763 14.5602H196.762C195.907 14.5602 195.211 15.2559 195.211 16.1107V18.6442H194.856V16.1107C194.856 15.0599 195.711 14.2051 196.762 14.2051H200.763C201.814 14.2051 202.669 15.0599 202.669 16.1107V18.6442Z" fill="black"/>
</g>
</g>
</g>
</g>
</g>
</g>
</g>
</g>
</svg>
