<svg viewBox="0 -40 10918 4128" fill="none" xmlns="http://www.w3.org/2000/svg">
<path fill-rule="evenodd" clip-rule="evenodd" d="M3716 3156.24C3642.84 3265.74 3559.47 3367.45 3467.25 3460.13C3466.13 3461.38 3464.97 3462.6 3463.77 3463.8C3462.57 3465 3461.35 3466.16 3460.1 3467.28C3320.34 3606.34 3160.55 3724.8 2985.42 3818.41C2717.7 3961.51 2421.64 4042.53 2119.14 4055.99V4058L1938.78 4058V2524.97H2030.63C2111.62 2524.69 2191.32 2504.59 2262.75 2466.41C2334.69 2427.96 2396.03 2372.36 2441.34 2304.54C2486.66 2236.73 2514.55 2158.78 2522.54 2077.61C2530.54 1996.44 2518.39 1914.55 2487.18 1839.19C2455.96 1763.84 2406.65 1697.34 2343.6 1645.6C2280.55 1593.86 2205.71 1558.46 2125.71 1542.55C2045.72 1526.64 1963.03 1530.7 1884.98 1554.38C1807.41 1577.91 1736.8 1620.09 1679.32 1677.22L1678.24 1678.29L1614.48 1742.05L530.47 658.034L658 530.504L659.424 531.928C882.839 327.544 1149.48 175.487 1439.97 87.368C1759.27 -9.49135 2097.53 -26.1091 2424.79 38.9866C2553.86 64.6612 2679.66 102.734 2800.5 152.419C2802.17 152.999 2803.83 153.629 2805.48 154.314C2807.13 154.998 2808.75 155.725 2810.34 156.494C2992.2 232.383 3162.7 334.638 3316.13 460.561C3366.83 502.169 3415.36 546.108 3461.58 592.197C3462.3 592.868 3463.01 593.551 3463.71 594.25C3464.4 594.948 3465.09 595.654 3465.76 596.37C3652.73 783.887 3801.67 1006.68 3903.5 1252.53C4005.35 1498.42 4057.58 1761.32 4057.95 2026.17C4057.98 2027.11 4057.99 2028.05 4057.99 2028.99C4057.99 2029.94 4057.98 2030.88 4057.95 2031.81C4057.86 2097.13 4054.61 2162.56 4048.18 2227.87C4028.63 2426.4 3979.98 2620.21 3904.4 2803.27C3904.12 2804.01 3903.83 2804.74 3903.53 2805.47C3903.23 2806.2 3902.92 2806.92 3902.6 2807.64C3852.08 2929.2 3789.67 3045.99 3716 3156.24ZM2119.14 3875.43C2391.96 3862.11 2658.84 3788.46 2900.4 3659.35C3034.61 3587.61 3158.94 3499.85 3270.82 3398.38L3079.26 3206.82C2986.31 3289.71 2883.53 3361.61 2772.87 3420.76C2570.56 3528.9 2347.44 3591.46 2119.14 3604.52V3875.43ZM3868.69 2210.19C3853.78 2361.64 3820.28 2510.08 3769.35 2652.28L3519.06 2548.61C3560.07 2431.02 3587.16 2308.55 3599.46 2183.68C3601.58 2162.19 3603.25 2140.68 3604.48 2119.17H3875.39C3873.91 2149.52 3871.68 2179.87 3868.69 2210.19ZM3341.1 2905.74C3381.92 2844.66 3418.29 2780.99 3450.05 2715.23L3700.33 2818.91C3661.59 2900.89 3616.74 2980.17 3566.04 3056.04C3515.35 3131.92 3459.27 3203.69 3398.35 3270.85L3206.79 3079.29C3255.39 3024.8 3300.29 2966.83 3341.1 2905.74ZM2652.25 288.6C2566.88 258.026 2479.11 233.679 2389.61 215.876C2300.11 198.074 2209.71 186.979 2119.14 182.556L2119.14 453.466C2192.03 457.639 2264.77 466.878 2336.83 481.21C2408.88 495.544 2479.63 514.845 2548.57 538.888L2652.25 288.6ZM2715.2 607.908L2818.87 357.62C2955.43 422.159 3084.08 503.434 3201.72 599.977C3225.27 619.307 3248.31 639.19 3270.82 659.603L3079.26 851.165C3063.18 836.826 3046.79 822.801 3030.09 809.101C2933.1 729.502 2827.34 662.062 2715.2 607.908ZM2915.68 948.518C2927.8 958.464 2939.74 968.604 2951.49 978.931L2759.7 1170.72C2754.53 1166.32 2749.31 1161.96 2744.05 1157.64C2600.76 1040.04 2430.67 959.6 2248.86 923.435C2205.89 914.887 2162.57 908.876 2119.14 905.389V634.155C2180.25 638.106 2241.22 646.081 2301.64 658.1C2527.09 702.944 2737.99 802.695 2915.68 948.518ZM3079.02 1106.46L2887.23 1298.25C2943.85 1364.76 2992.63 1437.72 3032.52 1515.7L3283.11 1411.9C3228.73 1301.38 3160.06 1198.7 3079.02 1106.46ZM3487.26 1425.87C3487.16 1425.61 3487.05 1425.34 3486.94 1425.08C3486.83 1424.81 3486.72 1424.55 3486.61 1424.28C3418.71 1260.61 3323.96 1110.09 3206.79 978.696L3398.35 787.133C3540.61 944.002 3655.32 1124.66 3736.87 1321.55C3818.43 1518.44 3865.06 1727.3 3875.39 1938.81H3604.48C3594.42 1763.05 3554.99 1589.62 3487.26 1425.87ZM3352.13 1578.53L3101.54 1682.32C3128.48 1765.67 3145.57 1851.75 3152.56 1938.81H3423.79C3415.87 1816.29 3391.83 1695.13 3352.13 1578.53ZM2629.64 1297.06L2631.68 1298.74L2439.16 1491.26C2357.28 1428.8 2262.12 1385.79 2160.9 1365.66C2147.03 1362.9 2133.1 1360.58 2119.14 1358.7V1086.44C2150.79 1089.46 2182.34 1094.09 2213.68 1100.32C2366.4 1130.7 2509.27 1198.28 2629.64 1297.06ZM2759.21 1426.27L2566.69 1618.8C2602.02 1665.1 2631.34 1715.96 2653.8 1770.17C2676.26 1824.39 2691.48 1881.09 2699.25 1938.81H2971.51C2962.59 1845.57 2939.85 1753.82 2903.74 1666.65C2867.63 1579.48 2818.84 1498.52 2759.21 1426.27ZM787.093 659.596C989.429 476.103 1230.22 339.465 1492.32 259.957C1637.95 215.78 1787.92 189.923 1938.78 182.556V453.466C1814.45 460.582 1690.93 482.416 1570.85 518.84C1351.34 585.43 1149.33 698.964 978.655 851.159L787.093 659.596ZM1106.42 978.925C1198.96 897.625 1301.69 829.044 1411.87 774.836L1515.66 1025.42C1437.9 1065.2 1364.91 1113.93 1298.21 1170.72L1106.42 978.925ZM1682.29 956.405L1578.49 705.818C1593.3 700.776 1608.21 695.979 1623.21 691.429C1726.24 660.174 1832.14 641.048 1938.78 634.154L1938.78 905.388C1858.68 911.816 1779.21 926.814 1701.74 950.314C1695.23 952.287 1688.75 954.318 1682.29 956.405ZM1426.23 1298.74C1522.58 1219.21 1633.97 1159.34 1754.09 1122.9C1814.51 1104.57 1876.39 1092.4 1938.78 1086.43V1358.7C1902.95 1363.52 1867.45 1371.22 1832.62 1381.79C1755.14 1405.29 1682.75 1442.44 1618.75 1491.26L1426.23 1298.74ZM3191.14 2805.54C3156.92 2856.77 3119.45 2905.52 3079.03 2951.53L2887.23 2759.73C2915.48 2726.55 2941.86 2691.68 2966.2 2655.25C3069.19 2501.11 3132.57 2323.96 3150.74 2139.48C3151.41 2132.71 3152.02 2125.94 3152.56 2119.17L3423.79 2119.17C3422.79 2134.78 3421.51 2150.4 3419.98 2166C3397.45 2394.75 3318.85 2614.42 3191.14 2805.54ZM2560.32 3023.11C2631.72 2984.95 2698.52 2939.36 2759.7 2887.26L2951.5 3079.06C2871.21 3149.59 2782.81 3210.95 2687.85 3261.7C2674.02 3269.09 2660.09 3276.24 2646.05 3283.15L2542.25 3032.56C2548.3 3029.47 2554.32 3026.32 2560.32 3023.11ZM2375.62 3101.58C2292.52 3128.44 2206.45 3145.59 2119.14 3152.6V3423.84C2242.06 3415.89 2363.19 3391.74 2479.42 3352.17L2375.62 3101.58ZM2391.43 2903.73C2304.54 2939.74 2212.77 2962.6 2119.14 2971.56L2119.14 2699.29C2198.91 2688.55 2276.36 2663.64 2347.77 2625.47C2379.87 2608.31 2410.42 2588.65 2439.16 2566.72L2631.69 2759.25C2583.34 2799.15 2530.98 2834.29 2475.3 2864.06C2447.94 2878.68 2419.95 2891.91 2391.43 2903.73ZM2816.24 2555.05C2798.49 2581.61 2779.45 2607.19 2759.21 2631.71L2566.69 2439.19C2575.24 2427.99 2583.45 2416.5 2591.3 2404.74C2648.64 2318.94 2685.51 2221.24 2699.25 2119.17H2971.51L2971.26 2121.8C2955.99 2276.77 2902.75 2425.57 2816.24 2555.05Z" fill="#E60000"/>
<path d="M5664.58 1522.59C5664.58 1136.67 5394.44 943.714 5030.33 943.714H4637.71V2101.46H5030.33C5396.12 2101.46 5664.58 1910.18 5664.58 1522.59ZM5389.4 1522.59C5389.4 1737.36 5260.21 1871.59 5045.43 1871.59H4907.85V1168.55H5045.43C5265.24 1168.55 5389.4 1304.46 5389.4 1522.59Z" fill="currentColor"/>
<path d="M6122.86 2101.46V943.714H5851.04V2101.46H6122.86Z" fill="currentColor"/>
<path d="M7039.13 2101.46V1876.63H6638.11V943.714H6367.97V2101.46H7039.13Z" fill="currentColor"/>
<path d="M7959.72 2101.46V1881.66H7464.74V1613.2H7917.78V1396.75H7464.74V1160.16H7944.62V943.714H7194.6V2101.46H7959.72Z" fill="currentColor"/>
<path d="M8930.66 1158.48V943.714H8061.51V1158.48H8360.18V2101.46H8632V1158.48H8930.66Z" fill="currentColor"/>
<path d="M9847.41 1158.48V943.714H8978.26V1158.48H9276.93V2101.46H9548.75V1158.48H9847.41Z" fill="currentColor"/>
<path d="M10918 2101.46L10481.8 942.036H10199.9L9763.61 2101.46H10045.5L10127.7 1868.24H10540.5L10622.7 2101.46H10918ZM10478.4 1656.82H10189.8L10334.1 1240.7L10478.4 1656.82Z" fill="currentColor"/>
<path d="M5054.81 2935.46C5054.81 2854.16 5004.4 2807.81 4932.85 2781.8C4914.96 2774.48 4873.49 2759.84 4849.1 2750.09C4823.9 2740.33 4792.19 2727.32 4792.19 2693.17C4792.19 2659.02 4823.08 2642.76 4865.36 2642.76C4907.64 2642.76 4958.05 2667.15 4990.57 2699.68L5046.68 2607.8C5008.46 2569.59 4933.66 2538.69 4868.62 2538.69C4803.57 2538.69 4752.35 2556.58 4720.64 2583.41C4688.12 2610.24 4662.1 2652.52 4662.1 2706.18C4662.1 2759.03 4681.61 2791.55 4706 2814.32C4730.39 2837.9 4758.85 2848.47 4772.67 2854.97C4791.37 2863.1 4833.65 2877.74 4858.05 2886.68C4882.44 2895.62 4923.9 2910.26 4923.9 2948.47C4923.9 2985.87 4891.38 3006.2 4849.1 3006.2C4806.01 3006.2 4743.4 2977.74 4702.75 2935.46L4637.71 3031.41C4683.24 3073.69 4755.6 3115.96 4836.91 3115.96C4945.86 3115.96 5054.81 3056.61 5054.81 2935.46Z" fill="currentColor"/>
<path d="M5707.5 2826.51C5707.5 2645.2 5576.6 2536.25 5409.92 2536.25C5243.24 2536.25 5112.34 2645.2 5112.34 2826.51C5112.34 3007.83 5243.24 3115.96 5409.92 3115.96C5576.6 3115.96 5707.5 3007.83 5707.5 2826.51ZM5574.16 2823.26C5574.16 2930.59 5503.42 2998.88 5409.92 2998.88C5316.42 2998.88 5245.68 2930.59 5245.68 2823.26C5245.68 2715.94 5316.42 2648.45 5409.92 2648.45C5503.42 2648.45 5574.16 2716.75 5574.16 2823.26Z" fill="currentColor"/>
<path d="M6123.04 3106.21V2997.26H5928.72V2545.19H5797.82V3106.21H6123.04Z" fill="currentColor"/>
<path d="M6648.39 2872.05V2545.19H6515.86V2872.05C6515.86 2911.89 6512.6 2942.78 6493.9 2965.55C6476.02 2986.69 6450 3000.51 6413.41 3000.51C6376.82 3000.51 6350.8 2986.69 6332.92 2965.55C6314.22 2942.78 6310.96 2911.89 6310.96 2872.05V2545.19H6178.43V2872.05C6178.43 2950.91 6192.26 3005.39 6231.28 3048.48C6271.12 3090.76 6331.29 3115.15 6413.41 3115.15C6494.72 3115.15 6555.7 3090.76 6594.72 3048.48C6634.56 3005.39 6648.39 2950.91 6648.39 2872.05Z" fill="currentColor"/>
<path d="M7136.5 2649.27V2545.19H6715.33V2649.27H6860.05V3106.21H6991.77V2649.27H7136.5Z" fill="currentColor"/>
<path d="M7339.25 3106.21V2545.19H7207.53V3106.21H7339.25Z" fill="currentColor"/>
<path d="M8024.73 2826.51C8024.73 2645.2 7893.83 2536.25 7727.15 2536.25C7560.47 2536.25 7429.57 2645.2 7429.57 2826.51C7429.57 3007.83 7560.47 3115.96 7727.15 3115.96C7893.83 3115.96 8024.73 3007.83 8024.73 2826.51ZM7891.39 2823.26C7891.39 2930.59 7820.65 2998.88 7727.15 2998.88C7633.65 2998.88 7562.91 2930.59 7562.91 2823.26C7562.91 2715.94 7633.65 2648.45 7727.15 2648.45C7820.65 2648.45 7891.39 2716.75 7891.39 2823.26Z" fill="currentColor"/>
<path d="M8622.4 3106.21V2545.19H8493.94V2799.68C8493.94 2859.04 8496.38 2922.46 8496.38 2922.46L8255.71 2545.19H8115.05V3106.21H8243.51V2852.53C8243.51 2793.18 8241.08 2725.69 8241.08 2725.69L8487.43 3106.21H8622.4Z" fill="currentColor"/>
<path d="M9120 2935.46C9120 2854.16 9069.59 2807.81 8998.04 2781.8C8980.15 2774.48 8938.68 2759.84 8914.29 2750.09C8889.09 2740.33 8857.38 2727.32 8857.38 2693.17C8857.38 2659.02 8888.27 2642.76 8930.55 2642.76C8972.83 2642.76 9023.24 2667.15 9055.76 2699.68L9111.87 2607.8C9073.65 2569.59 8998.85 2538.69 8933.81 2538.69C8868.76 2538.69 8817.54 2556.58 8785.83 2583.41C8753.31 2610.24 8727.29 2652.52 8727.29 2706.18C8727.29 2759.03 8746.8 2791.55 8771.19 2814.32C8795.58 2837.9 8824.04 2848.47 8837.86 2854.97C8856.56 2863.1 8898.84 2877.74 8923.24 2886.68C8947.63 2895.62 8989.09 2910.26 8989.09 2948.47C8989.09 2985.87 8956.57 3006.2 8914.29 3006.2C8871.2 3006.2 8808.59 2977.74 8767.94 2935.46L8702.9 3031.41C8748.43 3073.69 8820.79 3115.96 8902.1 3115.96C9011.05 3115.96 9120 3056.61 9120 2935.46Z" fill="currentColor"/>
</svg>
