<svg width="164.5" height="84" viewBox="68 0 164.5 84" fill="none" xmlns="http://www.w3.org/2000/svg">
<g clip-path="url(#clip0_1_669)">
<path d="M106.027 57.5807C106.027 57.33 106.027 57.0849 106.027 56.8397L105.966 56.8007L106.027 56.7506C106.081 52.0371 107.26 47.4055 109.465 43.2449C108.821 41.3332 107.671 39.6341 106.138 38.3308C103.444 36.013 99.8141 34.8559 95.2494 34.8596H68V80.313H96.4858C101.047 80.313 104.73 79.1002 107.535 76.6747C108.644 75.7262 109.564 74.5748 110.246 73.2816C107.408 68.5468 105.946 63.1077 106.027 57.5807ZM79.5651 45.2451H94.9334C95.9138 45.2153 96.8662 45.5757 97.5835 46.248C98.2462 46.9551 98.6153 47.8898 98.6153 48.8611C98.6153 49.8325 98.2462 50.7672 97.5835 51.4742C96.8472 52.1041 95.899 52.427 94.9334 52.3768H79.5651V45.2451ZM99.0083 68.8466C98.6291 69.2063 98.1821 69.4862 97.6937 69.6699C97.2053 69.8536 96.6853 69.9374 96.1642 69.9163H79.5651V62.2553H96.1642C97.2109 62.2118 98.2326 62.584 99.0083 63.2916C99.7176 64.044 100.113 65.041 100.113 66.0775C100.113 67.1139 99.7176 68.1109 99.0083 68.8633V68.8466Z" fill="#FFFFFF"></path>
<path d="M226.169 41.4122C224.162 39.2841 221.734 37.6013 219.041 36.472C216.349 35.3426 213.451 34.7916 210.534 34.8544H188.679V63.5985H200.566V46.0924H210.545C211.98 46.0415 213.409 46.299 214.737 46.8477C216.065 47.3963 217.262 48.2234 218.246 49.2738C220.223 51.3056 221.214 54.0765 221.218 57.5867C221.221 61.0968 220.231 63.8826 218.246 65.9441C217.249 66.9789 216.048 67.7933 214.72 68.3353C213.393 68.8773 211.967 69.1351 210.534 69.0921H206.049V80.3245H210.54C216.782 80.3245 221.994 78.1608 226.174 73.8335C230.354 69.5062 232.465 64.0943 232.506 57.5978C232.502 51.183 230.39 45.7878 226.169 41.4122Z" fill="#FFFFFF"></path>
<path d="M154.778 76.397C152.328 78.8665 149.406 80.8127 146.189 82.1187C142.972 83.4247 139.525 84.0635 136.055 83.9967C128.615 83.9967 122.35 81.4634 117.261 76.397C112.171 71.3305 109.626 65.0587 109.626 57.5816C109.626 50.1528 112.171 43.9051 117.261 38.8386C122.35 33.7722 128.615 31.2148 136.055 31.1665C143.448 31.1665 149.688 33.7239 154.778 38.8386C159.867 43.9534 162.436 50.201 162.484 57.5816C162.546 61.0804 161.894 64.5548 160.569 67.7907C159.243 71.0267 157.273 73.9556 154.778 76.397ZM126.336 67.4824C128.979 69.9468 132.45 71.3162 136.055 71.3162C139.66 71.3162 143.132 69.9468 145.774 67.4824C148.361 64.8823 149.655 61.5783 149.655 57.5704C149.655 53.5626 148.361 50.2828 145.774 47.731C144.505 46.4483 142.988 45.4406 141.317 44.7698C139.645 44.099 137.854 43.7795 136.055 43.8308C134.256 43.7805 132.466 44.1005 130.795 44.7712C129.123 45.4419 127.606 46.4492 126.336 47.731C123.749 50.2382 122.456 53.518 122.456 57.5704C122.456 61.6229 123.749 64.9324 126.336 67.4991V67.4824Z" fill="url(#paint0_linear_1_669)"></path>
<path d="M175.607 69.0914V34.8538H164.042V46.3369C166.769 53.5762 166.769 61.568 164.042 68.8073V80.3071H200.633V69.0914H175.607Z" fill="#FFFFFF"></path>
<path d="M78.4615 20.6431C76.4797 20.6431 74.6885 20.2048 73.0878 19.3282C71.5062 18.4517 70.2581 17.2417 69.3434 15.6982C68.4478 14.1356 68 12.392 68 10.4674C68 8.5428 68.4478 6.80875 69.3434 5.26525C70.2581 3.70269 71.5157 2.48314 73.1164 1.60658C74.7171 0.730026 76.5083 0.291748 78.4901 0.291748C79.9764 0.291748 81.3484 0.53947 82.6061 1.03492C83.8637 1.53036 84.9309 2.25447 85.8074 3.20725L84.464 4.55066C82.9014 2.96905 80.9292 2.17825 78.5473 2.17825C76.9656 2.17825 75.5269 2.5403 74.2312 3.26441C72.9354 3.98853 71.9159 4.97942 71.1727 6.23708C70.4486 7.49475 70.0866 8.90486 70.0866 10.4674C70.0866 12.03 70.4486 13.4401 71.1727 14.6977C71.9159 15.9554 72.9354 16.9463 74.2312 17.6704C75.5269 18.3945 76.9656 18.7566 78.5473 18.7566C80.9483 18.7566 82.9205 17.9562 84.464 16.3556L85.8074 17.699C84.9309 18.6518 83.8542 19.3854 82.5775 19.8999C81.3198 20.3954 79.9478 20.6431 78.4615 20.6431Z" fill="#FFFFFF"></path>
<path d="M112.65 20.6431C110.668 20.6431 108.868 20.2048 107.248 19.3282C105.647 18.4326 104.389 17.2131 103.475 15.6696C102.579 14.1261 102.131 12.392 102.131 10.4674C102.131 8.5428 102.579 6.80875 103.475 5.26525C104.389 3.72175 105.647 2.51172 107.248 1.63516C108.868 0.739553 110.668 0.291748 112.65 0.291748C114.632 0.291748 116.414 0.730026 117.995 1.60658C119.596 2.48314 120.853 3.70269 121.768 5.26525C122.683 6.80875 123.14 8.5428 123.14 10.4674C123.14 12.392 122.683 14.1356 121.768 15.6982C120.853 17.2417 119.596 18.4517 117.995 19.3282C116.414 20.2048 114.632 20.6431 112.65 20.6431ZM112.65 18.7566C114.232 18.7566 115.661 18.4041 116.938 17.699C118.214 16.9749 119.215 15.984 119.939 14.7263C120.663 13.4496 121.025 12.03 121.025 10.4674C121.025 8.90486 120.663 7.49475 119.939 6.23708C119.215 4.96036 118.214 3.96947 116.938 3.26441C115.661 2.5403 114.232 2.17825 112.65 2.17825C111.068 2.17825 109.63 2.5403 108.334 3.26441C107.057 3.96947 106.047 4.96036 105.304 6.23708C104.58 7.49475 104.218 8.90486 104.218 10.4674C104.218 12.03 104.58 13.4496 105.304 14.7263C106.047 15.984 107.057 16.9749 108.334 17.699C109.63 18.4041 111.068 18.7566 112.65 18.7566Z" fill="#FFFFFF"></path>
<path d="M158.608 0.463248V20.4716H156.865L144.002 4.23625V20.4716H141.887V0.463248H143.631L156.522 16.6986V0.463248H158.608Z" fill="#FFFFFF"></path>
<path d="M183.032 2.29258H176.001V0.463248H192.179V2.29258H185.147V20.4716H183.032V2.29258Z" fill="#FFFFFF"></path>
<path d="M221.107 15.1265H209.959L207.558 20.4716H205.357L214.504 0.463248H216.591L225.737 20.4716H223.508L221.107 15.1265ZM220.335 13.4115L215.533 2.66417L210.731 13.4115H220.335Z" fill="#FFFFFF"></path>
</g>
<defs>
<linearGradient id="paint0_linear_1_669" x1="117.294" y1="76.4304" x2="154.93" y2="38.9858" gradientUnits="userSpaceOnUse">
<stop stop-color="#FE3976"></stop>
<stop offset="0.14" stop-color="#FE3D74"></stop>
<stop offset="0.29" stop-color="#FE4A70"></stop>
<stop offset="0.45" stop-color="#FE5E69"></stop>
<stop offset="0.6" stop-color="#FE7B5E"></stop>
<stop offset="0.75" stop-color="#FEA150"></stop>
<stop offset="0.91" stop-color="#FECE40"></stop>
<stop offset="1" stop-color="#FEED35"></stop>
</linearGradient>
<clipPath id="clip0_1_669">
<rect width="164.5" height="84" fill="white" transform="translate(68)"></rect>
</clipPath>
</defs>
</svg>