<svg xmlns="http://www.w3.org/2000/svg" viewBox="0 0 512 512">
  <path fill="currentColor" d="M242.4 292.5c5.4-5.4 14.8-5.4 20.2 0l77 77c14.2 14.2 33.1 22 53.1 22h15.1l-97.1 97.1c-30.3 30.3-79.5 30.3-109.8 0l-97.4-97.4h9.1c20 0 38.9-7.8 53.1-22l76.7-76.7zm20.2-73.6c-5.6 5.6-14.8 5.6-20.2 0l-76.7-76.7c-14.2-14.2-33.1-22-53.1-22h-9.1l97.4-97.4c30.3-30.3 79.5-30.3 109.8 0l97.1 97.1h-15.1c-20 0-38.9 7.8-53.1 22l-77 76.9zm-149.6-76.2c13.8 0 26.5 5.8 35.9 15.2l76.7 76.7c7 7 16.2 10.5 25.4 10.5s18.4-3.5 25.4-10.5l76.7-76.7c9.4-9.4 22.1-15.2 35.9-15.2h57.9l42.2 42.2c30.3 30.3 30.3 79.5 0 109.8l-42.2 42.2h-57.9c-13.8 0-26.5-5.8-35.9-15.2l-76.7-76.7c-13.5-13.4-37.3-13.4-50.8 0l-76.7 76.7c-9.4 9.4-22.1 15.2-35.9 15.2H66.3L24.1 287c-30.3-30.3-30.3-79.5 0-109.8l42.2-42.2h46.7z"></path>
</svg>