<svg width="2448" height="384" viewBox="0 0 2448 384" fill="none" xmlns="http://www.w3.org/2000/svg" xmlns:xlink="http://www.w3.org/1999/xlink">
<rect width="2448" height="384" fill="#F6F6F6"></rect>
<rect x="32" y="32" width="269" height="56" rx="12" fill="#DED9FF"></rect>
<mask id="mask0_2353_32595" style="mask-type:alpha" maskUnits="userSpaceOnUse" x="64" y="48" width="24" height="24">
<rect x="64" y="48" width="24" height="24" fill="#D9D9D9"></rect>
</mask>
<g mask="url(#mask0_2353_32595)">
<path d="M70.5 65.5L78 62L81.5 54.5L74 58L70.5 65.5ZM76 61C75.7167 61 75.4793 60.904 75.288 60.712C75.096 60.5207 75 60.2833 75 60C75 59.7167 75.096 59.479 75.288 59.287C75.4793 59.0957 75.7167 59 76 59C76.2833 59 76.521 59.0957 76.713 59.287C76.9043 59.479 77 59.7167 77 60C77 60.2833 76.9043 60.5207 76.713 60.712C76.521 60.904 76.2833 61 76 61ZM76 70C74.6167 70 73.3167 69.7373 72.1 69.212C70.8833 68.6873 69.825 67.975 68.925 67.075C68.025 66.175 67.3127 65.1167 66.788 63.9C66.2627 62.6833 66 61.3833 66 60C66 58.6167 66.2627 57.3167 66.788 56.1C67.3127 54.8833 68.025 53.825 68.925 52.925C69.825 52.025 70.8833 51.3123 72.1 50.787C73.3167 50.2623 74.6167 50 76 50C77.3833 50 78.6833 50.2623 79.9 50.787C81.1167 51.3123 82.175 52.025 83.075 52.925C83.975 53.825 84.6873 54.8833 85.212 56.1C85.7373 57.3167 86 58.6167 86 60C86 61.3833 85.7373 62.6833 85.212 63.9C84.6873 65.1167 83.975 66.175 83.075 67.075C82.175 67.975 81.1167 68.6873 79.9 69.212C78.6833 69.7373 77.3833 70 76 70Z" fill="#4C4096"></path>
</g>
<path d="M101.596 67V52.4545H107.604C108.693 52.4545 109.633 52.651 110.424 53.044C111.219 53.4323 111.833 53.991 112.263 54.7202C112.694 55.4446 112.91 56.304 112.91 57.2983C112.91 58.3068 112.69 59.1638 112.249 59.8693C111.809 60.5701 111.184 61.1051 110.374 61.4744C109.565 61.839 108.606 62.0213 107.498 62.0213H103.698V59.2514H106.844C107.375 59.2514 107.817 59.1828 108.172 59.0455C108.532 58.9034 108.805 58.6903 108.989 58.4062C109.174 58.1174 109.266 57.7481 109.266 57.2983C109.266 56.8485 109.174 56.4768 108.989 56.1832C108.805 55.8849 108.532 55.6624 108.172 55.5156C107.813 55.3641 107.37 55.2884 106.844 55.2884H105.111V67H101.596ZM109.785 60.3523L113.407 67H109.572L106.02 60.3523H109.785ZM115.038 67V52.4545H125.18V55.3097H118.554V58.2926H124.662V61.1548H118.554V64.1449H125.18V67H115.038ZM130.728 67H126.95L131.857 52.4545H136.538L141.445 67H137.667L134.251 56.1193H134.137L130.728 67ZM130.224 61.2756H138.121V63.946H130.224V61.2756ZM148.588 67H143.211V52.4545H148.581C150.063 52.4545 151.339 52.7457 152.409 53.3281C153.484 53.9058 154.312 54.7391 154.895 55.8281C155.477 56.9124 155.768 58.2098 155.768 59.7202C155.768 61.2353 155.477 62.5374 154.895 63.6264C154.317 64.7154 153.491 65.5511 152.416 66.1335C151.341 66.7112 150.065 67 148.588 67ZM146.727 64.0028H148.453C149.267 64.0028 149.956 63.8655 150.52 63.5909C151.088 63.3116 151.516 62.8594 151.805 62.2344C152.099 61.6046 152.245 60.7666 152.245 59.7202C152.245 58.6738 152.099 57.8404 151.805 57.2202C151.512 56.5952 151.078 56.1454 150.505 55.8707C149.937 55.5914 149.236 55.4517 148.403 55.4517H146.727V64.0028ZM156.339 52.4545H160.267L163.342 58.5412H163.47L166.545 52.4545H170.473L165.153 62.142V67H161.659V62.142L156.339 52.4545ZM176.643 67V52.4545H186.572V55.3097H180.159V58.2926H185.94V61.1548H180.159V67H176.643ZM202.271 59.7273C202.271 61.3277 201.964 62.6842 201.348 63.7969C200.733 64.9096 199.899 65.7547 198.848 66.3324C197.802 66.91 196.627 67.1989 195.325 67.1989C194.019 67.1989 192.842 66.9077 191.795 66.3253C190.749 65.7429 189.918 64.8977 189.303 63.7898C188.692 62.6771 188.386 61.3229 188.386 59.7273C188.386 58.1269 188.692 56.7704 189.303 55.6577C189.918 54.545 190.749 53.6998 191.795 53.1222C192.842 52.5445 194.019 52.2557 195.325 52.2557C196.627 52.2557 197.802 52.5445 198.848 53.1222C199.899 53.6998 200.733 54.545 201.348 55.6577C201.964 56.7704 202.271 58.1269 202.271 59.7273ZM198.678 59.7273C198.678 58.7803 198.543 57.9801 198.273 57.3267C198.008 56.6733 197.624 56.1785 197.122 55.8423C196.625 55.5062 196.026 55.3381 195.325 55.3381C194.629 55.3381 194.03 55.5062 193.528 55.8423C193.027 56.1785 192.641 56.6733 192.371 57.3267C192.106 57.9801 191.973 58.7803 191.973 59.7273C191.973 60.6742 192.106 61.4744 192.371 62.1278C192.641 62.7812 193.027 63.276 193.528 63.6122C194.03 63.9484 194.629 64.1165 195.325 64.1165C196.026 64.1165 196.625 63.9484 197.122 63.6122C197.624 63.276 198.008 62.7812 198.273 62.1278C198.543 61.4744 198.678 60.6742 198.678 59.7273ZM204.524 67V52.4545H210.532C211.621 52.4545 212.561 52.651 213.352 53.044C214.147 53.4323 214.761 53.991 215.192 54.7202C215.622 55.4446 215.838 56.304 215.838 57.2983C215.838 58.3068 215.618 59.1638 215.177 59.8693C214.737 60.5701 214.112 61.1051 213.302 61.4744C212.493 61.839 211.534 62.0213 210.426 62.0213H206.626V59.2514H209.772C210.303 59.2514 210.745 59.1828 211.101 59.0455C211.46 58.9034 211.733 58.6903 211.917 58.4062C212.102 58.1174 212.194 57.7481 212.194 57.2983C212.194 56.8485 212.102 56.4768 211.917 56.1832C211.733 55.8849 211.46 55.6624 211.101 55.5156C210.741 55.3641 210.298 55.2884 209.772 55.2884H208.04V67H204.524ZM212.713 60.3523L216.335 67H212.5L208.949 60.3523H212.713ZM227.839 67H222.463V52.4545H227.832C229.314 52.4545 230.59 52.7457 231.66 53.3281C232.735 53.9058 233.564 54.7391 234.146 55.8281C234.729 56.9124 235.02 58.2098 235.02 59.7202C235.02 61.2353 234.729 62.5374 234.146 63.6264C233.569 64.7154 232.742 65.5511 231.668 66.1335C230.593 66.7112 229.317 67 227.839 67ZM225.979 64.0028H227.704C228.519 64.0028 229.208 63.8655 229.771 63.5909C230.339 63.3116 230.768 62.8594 231.057 62.2344C231.35 61.6046 231.497 60.7666 231.497 59.7202C231.497 58.6738 231.35 57.8404 231.057 57.2202C230.763 56.5952 230.33 56.1454 229.757 55.8707C229.189 55.5914 228.488 55.4517 227.655 55.4517H225.979V64.0028ZM237.272 67V52.4545H247.414V55.3097H240.788V58.2926H246.896V61.1548H240.788V64.1449H247.414V67H237.272ZM253.119 52.4545L256.371 63.108H256.492L259.745 52.4545H263.68L258.772 67H254.092L249.184 52.4545H253.119ZM265.465 67.206C264.954 67.206 264.516 67.026 264.151 66.6662C263.792 66.3063 263.614 65.8707 263.619 65.3594C263.614 64.8575 263.792 64.429 264.151 64.0739C264.516 63.714 264.954 63.5341 265.465 63.5341C265.948 63.5341 266.374 63.714 266.744 64.0739C267.118 64.429 267.307 64.8575 267.312 65.3594C267.307 65.7003 267.217 66.0104 267.042 66.2898C266.872 66.5691 266.647 66.7917 266.367 66.9574C266.093 67.1231 265.792 67.206 265.465 67.206Z" fill="#4C4096"></path>
<rect y="120" width="800" height="96" fill="#808080"></rect>
<rect y="303" width="640" height="81" fill="#808080"></rect>
<path d="M0 168H736V352H0V168Z" fill="#4C4096"></path>
<path d="M479.719 253.68C480.535 253.68 481.147 253.884 481.555 254.292C481.963 254.7 482.167 255.289 482.167 256.059C482.167 256.851 481.963 257.463 481.555 257.894C481.147 258.301 480.535 258.506 479.719 258.506H471.394V259.894H471.396V263.331H478.972C479.765 263.331 480.365 263.536 480.773 263.943C481.203 264.351 481.419 264.94 481.419 265.71C481.419 266.503 481.204 267.104 480.773 267.512C480.365 267.919 479.765 268.123 478.972 268.123H471.396V275.148C471.396 284.149 463.778 289.158 457.386 289.158H440.575C437.004 289.158 431.241 286.549 428.759 282.62H451.005C463.363 282.62 464.975 281.138 465.141 274.326V268.73C465.141 268.691 465.14 268.651 465.14 268.61V259.894H465.141V256.908C465.141 255.866 465.413 255.073 465.957 254.529C466.523 253.963 467.338 253.68 468.403 253.68H479.719ZM430.877 253.306C431.919 253.306 432.995 253.43 434.105 253.68C435.238 253.906 436.235 254.258 437.095 254.733C437.73 255.073 438.171 255.504 438.421 256.024C438.67 256.545 438.749 257.078 438.659 257.622C438.591 258.166 438.398 258.653 438.081 259.083C437.764 259.513 437.355 259.808 436.857 259.967C436.359 260.103 435.815 260.024 435.226 259.729C434.547 259.412 433.867 259.174 433.187 259.016C432.53 258.834 431.839 258.743 431.114 258.743C429.709 258.743 428.531 259.016 427.58 259.56C426.651 260.081 425.949 260.851 425.473 261.87C424.998 262.89 424.759 264.147 424.759 265.643C424.759 267.138 424.998 268.406 425.473 269.448C425.949 270.468 426.651 271.249 427.58 271.793C428.531 272.314 429.709 272.575 431.114 272.575C431.703 272.575 432.338 272.507 433.017 272.371C433.697 272.213 434.365 271.974 435.022 271.657C435.702 271.363 436.303 271.283 436.824 271.419C437.367 271.555 437.798 271.828 438.115 272.235C438.455 272.643 438.67 273.119 438.76 273.662C438.851 274.183 438.771 274.705 438.522 275.226C438.296 275.747 437.888 276.166 437.299 276.483C436.506 276.959 435.52 277.333 434.342 277.604C433.187 277.876 432.032 278.012 430.877 278.012C428.226 278.012 425.949 277.503 424.046 276.483C422.142 275.464 420.681 274.025 419.662 272.167C418.665 270.309 418.167 268.134 418.167 265.643C418.167 263.785 418.45 262.097 419.016 260.579C419.605 259.061 420.444 257.758 421.531 256.671C422.641 255.583 423.978 254.756 425.541 254.189C427.127 253.6 428.906 253.306 430.877 253.306ZM453.696 253.68C456.414 253.68 458.51 254.382 459.983 255.787C461.478 257.169 462.225 259.084 462.225 261.53C462.225 263.977 461.478 265.903 459.983 267.308C458.51 268.69 456.414 269.381 453.696 269.381H448.428V274.784C448.428 275.781 448.168 276.563 447.647 277.129C447.126 277.673 446.344 277.944 445.301 277.944C444.305 277.944 443.534 277.673 442.991 277.129C442.447 276.563 442.175 275.781 442.175 274.784V256.841C442.175 255.821 442.447 255.04 442.991 254.496C443.557 253.952 444.339 253.68 445.336 253.68H453.696ZM448.428 264.589H452.608C453.786 264.589 454.692 264.339 455.327 263.841C455.961 263.32 456.278 262.55 456.278 261.53C456.278 260.488 455.961 259.718 455.327 259.22C454.692 258.721 453.786 258.472 452.608 258.472H448.428V264.589ZM449.222 228.842C458.374 228.842 465.793 236.261 465.794 245.413V249.594H459.224V245.638C459.224 240.155 454.78 235.709 449.297 235.709C443.814 235.709 439.369 240.155 439.369 245.638V249.594H432.65V245.413C432.65 236.261 440.07 228.842 449.222 228.842Z" fill="#003BE0"></path>
<path d="M873.5 155.266C872.25 155.266 871.5 154.5 871.5 153.172V135.859H866.344C865.25 135.859 864.5 135.203 864.5 134.156C864.5 133.109 865.234 132.453 866.344 132.453H880.672C881.781 132.453 882.516 133.109 882.516 134.156C882.516 135.203 881.766 135.859 880.672 135.859H875.516V153.172C875.516 154.5 874.766 155.266 873.5 155.266ZM886.406 136.562C885.656 136.562 885.109 136.094 885.109 135.438C885.109 135.094 885.188 134.859 885.406 134.562L887.422 131.688C887.953 130.922 888.297 130.703 888.922 130.703C889.766 130.703 890.359 131.25 890.359 132.031C890.359 132.406 890.234 132.734 889.953 133.094L887.656 135.891C887.219 136.422 886.953 136.562 886.406 136.562ZM885.906 155.312C884.719 155.312 883.969 154.531 883.969 153.266V140.156C883.969 138.906 884.719 138.109 885.906 138.109C887.094 138.109 887.859 138.906 887.859 140.172V153.266C887.859 154.531 887.094 155.312 885.906 155.312ZM892.203 150.906V141.438H891.156C890.188 141.438 889.594 140.859 889.594 139.922C889.594 139 890.188 138.438 891.156 138.438H892.203V136.234C892.203 134.984 892.953 134.203 894.156 134.203C895.344 134.203 896.094 134.984 896.094 136.234V138.438H897.891C898.859 138.438 899.453 139 899.453 139.922C899.453 140.859 898.859 141.438 897.891 141.438H896.094V150.062C896.094 151.312 896.531 151.859 897.656 151.953L897.938 151.984C898.969 152.078 899.5 152.516 899.5 153.422C899.5 154.562 898.5 155.172 896.719 155.172H896.562C893.672 155.172 892.203 153.734 892.203 150.906ZM907.672 155.297C904.078 155.297 901.797 152.969 901.797 149.141V140.156C901.797 138.859 902.594 138.109 903.734 138.109C904.875 138.109 905.688 138.859 905.688 140.172V148.359C905.688 150.734 906.844 152.016 909.031 152.016C911.281 152.016 912.672 150.422 912.672 148.016V140.156C912.672 138.859 913.484 138.109 914.625 138.109C915.75 138.109 916.562 138.859 916.562 140.172V153.344C916.562 154.594 915.812 155.312 914.703 155.312C913.578 155.312 912.812 154.594 912.812 153.344V152.125H912.734C911.859 154.141 910.188 155.297 907.672 155.297ZM921.812 155.312C920.672 155.312 919.859 154.578 919.859 153.266V134.188C919.859 132.875 920.672 132.141 921.812 132.141C922.953 132.141 923.75 132.875 923.75 134.188V153.266C923.75 154.578 922.953 155.312 921.812 155.312ZM934.391 155.328C929.531 155.328 926.375 152.094 926.375 146.719C926.375 141.375 929.562 138.094 934.391 138.094C939.219 138.094 942.406 141.359 942.406 146.719C942.406 152.094 939.25 155.328 934.391 155.328ZM934.391 152.25C936.859 152.25 938.453 150.25 938.453 146.719C938.453 143.203 936.859 141.188 934.391 141.188C931.938 141.188 930.328 143.203 930.328 146.719C930.328 150.25 931.922 152.25 934.391 152.25ZM947.625 143.891C946.359 143.891 945.375 142.891 945.375 141.641C945.375 140.391 946.359 139.391 947.625 139.391C948.875 139.391 949.859 140.391 949.859 141.641C949.859 142.891 948.875 143.891 947.625 143.891ZM947.625 155.172C946.359 155.172 945.375 154.188 945.375 152.922C945.375 151.672 946.359 150.672 947.625 150.672C948.875 150.672 949.859 151.672 949.859 152.922C949.859 154.188 948.875 155.172 947.625 155.172Z" fill="#4C4096"></path>
<path d="M1038.5 159C1037.09 159 1036.23 158.121 1036.23 156.645V135.99C1036.23 134.514 1037.09 133.635 1038.5 133.635H1045.5C1053.07 133.635 1057.55 138.223 1057.55 146.256C1057.55 154.289 1053.09 159 1045.5 159H1038.5ZM1040.77 155.168H1045.02C1050.12 155.168 1052.93 152.057 1052.93 146.273C1052.93 140.596 1050.08 137.467 1045.02 137.467H1040.77V155.168ZM1068.96 159.369C1063.5 159.369 1059.95 155.73 1059.95 149.684C1059.95 143.672 1063.53 139.98 1068.96 139.98C1074.39 139.98 1077.98 143.654 1077.98 149.684C1077.98 155.73 1074.43 159.369 1068.96 159.369ZM1068.96 155.906C1071.74 155.906 1073.53 153.656 1073.53 149.684C1073.53 145.729 1071.74 143.461 1068.96 143.461C1066.2 143.461 1064.39 145.729 1064.39 149.684C1064.39 153.656 1066.19 155.906 1068.96 155.906ZM1088.98 159.369C1083.54 159.369 1080.02 155.678 1080.02 149.701C1080.02 143.76 1083.52 139.98 1088.95 139.98C1092.61 139.98 1095.72 141.861 1096.61 144.48C1096.75 144.85 1096.84 145.219 1096.84 145.535C1096.84 146.625 1096.02 147.293 1094.96 147.293C1094.08 147.293 1093.55 146.924 1093.04 146.045C1092.11 144.34 1090.88 143.531 1089.07 143.531C1086.26 143.531 1084.47 145.869 1084.47 149.684C1084.47 153.551 1086.28 155.836 1089.05 155.836C1090.99 155.836 1092.18 154.939 1093.03 153.445C1093.62 152.461 1094.1 152.092 1095.05 152.092C1096.09 152.092 1096.89 152.795 1096.89 153.885C1096.89 154.219 1096.81 154.588 1096.63 155.01C1095.59 157.559 1092.5 159.369 1088.98 159.369ZM1106.37 159.334C1102.33 159.334 1099.76 156.715 1099.76 152.408V142.301C1099.76 140.842 1100.66 139.998 1101.94 139.998C1103.22 139.998 1104.14 140.842 1104.14 142.318V151.529C1104.14 154.201 1105.44 155.643 1107.9 155.643C1110.43 155.643 1111.99 153.85 1111.99 151.143V142.301C1111.99 140.842 1112.91 139.998 1114.19 139.998C1115.46 139.998 1116.37 140.842 1116.37 142.318V157.137C1116.37 158.543 1115.53 159.352 1114.28 159.352C1113.01 159.352 1112.15 158.543 1112.15 157.137V155.766H1112.06C1111.08 158.033 1109.2 159.334 1106.37 159.334ZM1122.14 159.352C1120.82 159.352 1119.96 158.508 1119.96 157.049V142.23C1119.96 140.807 1120.82 139.998 1122.05 139.998C1123.28 139.998 1124.16 140.807 1124.16 142.23V143.602H1124.25C1125.05 141.439 1127.02 140.016 1129.55 140.016C1132.19 140.016 1134.07 141.369 1134.76 143.76H1134.86C1135.76 141.457 1137.97 140.016 1140.66 140.016C1144.34 140.016 1146.75 142.494 1146.75 146.221V157.049C1146.75 158.508 1145.87 159.352 1144.57 159.352C1143.25 159.352 1142.37 158.508 1142.37 157.049V147.293C1142.37 145.008 1141.17 143.707 1139.03 143.707C1136.92 143.707 1135.48 145.254 1135.48 147.486V157.049C1135.48 158.508 1134.65 159.352 1133.35 159.352C1132.03 159.352 1131.22 158.508 1131.22 157.049V147.064C1131.22 144.99 1129.96 143.707 1127.92 143.707C1125.81 143.707 1124.33 145.342 1124.33 147.592V157.049C1124.33 158.508 1123.44 159.352 1122.14 159.352ZM1158.54 159.369C1152.85 159.369 1149.49 155.801 1149.49 149.754C1149.49 143.812 1152.92 139.98 1158.29 139.98C1163.39 139.98 1166.87 143.602 1166.87 148.664C1166.87 149.965 1166.13 150.738 1164.83 150.738H1153.85V150.879C1153.85 153.99 1155.66 155.994 1158.51 155.994C1160.47 155.994 1161.76 155.309 1163.16 153.516C1163.62 153.006 1164.03 152.812 1164.64 152.812C1165.62 152.812 1166.4 153.445 1166.4 154.5C1166.4 154.834 1166.29 155.221 1166.1 155.607C1164.87 157.98 1162.09 159.369 1158.54 159.369ZM1153.88 147.855H1162.58C1162.5 145.148 1160.77 143.373 1158.31 143.373C1155.85 143.373 1154.06 145.184 1153.88 147.855ZM1171.88 159.352C1170.6 159.352 1169.7 158.525 1169.7 157.049V142.213C1169.7 140.859 1170.49 139.998 1171.79 139.998C1173.08 139.998 1173.96 140.859 1173.96 142.213V143.514H1174.04C1175.05 141.299 1176.98 140.016 1179.85 140.016C1183.96 140.016 1186.3 142.652 1186.3 146.959V157.049C1186.3 158.525 1185.4 159.352 1184.12 159.352C1182.83 159.352 1181.92 158.525 1181.92 157.049V147.838C1181.92 145.201 1180.69 143.725 1178.19 143.725C1175.68 143.725 1174.08 145.535 1174.08 148.207V157.049C1174.08 158.525 1173.17 159.352 1171.88 159.352ZM1191.03 154.395V143.742H1189.85C1188.76 143.742 1188.09 143.092 1188.09 142.037C1188.09 141 1188.76 140.367 1189.85 140.367H1191.03V137.889C1191.03 136.482 1191.87 135.604 1193.22 135.604C1194.56 135.604 1195.4 136.482 1195.4 137.889V140.367H1197.42C1198.51 140.367 1199.18 141 1199.18 142.037C1199.18 143.092 1198.51 143.742 1197.42 143.742H1195.4V153.445C1195.4 154.852 1195.89 155.467 1197.16 155.572L1197.48 155.607C1198.64 155.713 1199.23 156.205 1199.23 157.225C1199.23 158.508 1198.11 159.193 1196.11 159.193H1195.93C1192.68 159.193 1191.03 157.576 1191.03 154.395ZM1207.13 159.299C1203.52 159.299 1200.9 157.031 1200.9 153.674C1200.9 150.369 1203.45 148.383 1207.99 148.102L1212.93 147.82V146.484C1212.93 144.533 1211.61 143.408 1209.45 143.408C1207.74 143.408 1206.63 143.988 1205.54 145.588C1205.09 146.186 1204.51 146.467 1203.77 146.467C1202.7 146.467 1201.92 145.764 1201.92 144.709C1201.92 144.305 1202.03 143.918 1202.22 143.514C1203.17 141.352 1206.05 139.98 1209.62 139.98C1214.25 139.98 1217.25 142.424 1217.25 146.168V157.154C1217.25 158.561 1216.36 159.352 1215.12 159.352C1213.93 159.352 1213.1 158.631 1213.03 157.33V156.029H1212.95C1211.87 158.051 1209.54 159.299 1207.13 159.299ZM1208.46 155.994C1210.92 155.994 1212.93 154.342 1212.93 152.092V150.668L1208.6 150.932C1206.49 151.072 1205.28 152.021 1205.28 153.498C1205.28 155.027 1206.56 155.994 1208.46 155.994ZM1228.73 167.139C1228.08 167.139 1227.54 167.086 1227.13 166.98C1226.34 166.805 1225.99 166.436 1225.99 165.873C1225.99 165.328 1226.38 164.994 1227.01 164.994C1227.39 164.994 1227.76 165.082 1228.27 165.082C1229.56 165.082 1230.22 164.713 1230.22 163.992C1230.22 163.324 1229.59 162.99 1228.34 162.99H1227.92C1227.18 162.99 1226.71 162.586 1226.71 161.971C1226.71 161.672 1226.78 161.355 1226.96 161.004L1227.69 159.299C1222.98 158.754 1220.01 155.186 1220.01 149.701C1220.01 143.76 1223.51 139.98 1228.94 139.98C1232.6 139.98 1235.71 141.861 1236.61 144.48C1236.75 144.85 1236.83 145.219 1236.83 145.535C1236.83 146.625 1236.01 147.293 1234.95 147.293C1234.07 147.293 1233.55 146.924 1233.04 146.045C1232.11 144.34 1230.88 143.531 1229.06 143.531C1226.25 143.531 1224.46 145.869 1224.46 149.684C1224.46 153.551 1226.27 155.836 1229.05 155.836C1230.98 155.836 1232.18 154.939 1233.02 153.445C1233.62 152.461 1234.09 152.092 1235.04 152.092C1236.08 152.092 1236.89 152.795 1236.89 153.885C1236.89 154.219 1236.8 154.588 1236.62 155.01C1235.71 157.26 1233.21 158.912 1230.26 159.299L1229.47 161.057C1231.56 161.074 1232.93 162.129 1232.93 163.922C1232.93 165.996 1231.21 167.139 1228.73 167.139ZM1243.02 137.941C1242.28 137.941 1241.79 137.432 1241.79 136.641C1241.79 134.32 1243.36 132.809 1245.43 132.809C1247.89 132.809 1248.73 135.287 1250.04 135.287C1250.63 135.287 1250.98 134.865 1251.18 133.828C1251.34 133.002 1251.69 132.58 1252.44 132.58C1253.18 132.58 1253.67 133.107 1253.67 133.881C1253.67 136.113 1252.09 137.713 1250.11 137.713C1247.71 137.713 1246.82 135.234 1245.5 135.234C1244.83 135.234 1244.46 135.639 1244.29 136.764C1244.15 137.52 1243.78 137.941 1243.02 137.941ZM1245.31 159.299C1241.7 159.299 1239.08 157.031 1239.08 153.674C1239.08 150.369 1241.63 148.383 1246.17 148.102L1251.11 147.82V146.484C1251.11 144.533 1249.79 143.408 1247.63 143.408C1245.92 143.408 1244.81 143.988 1243.72 145.588C1243.27 146.186 1242.69 146.467 1241.95 146.467C1240.88 146.467 1240.1 145.764 1240.1 144.709C1240.1 144.305 1240.21 143.918 1240.4 143.514C1241.35 141.352 1244.23 139.98 1247.8 139.98C1252.43 139.98 1255.43 142.424 1255.43 146.168V157.154C1255.43 158.561 1254.54 159.352 1253.3 159.352C1252.11 159.352 1251.28 158.631 1251.21 157.33V156.029H1251.12C1250.05 158.051 1247.71 159.299 1245.31 159.299ZM1246.64 155.994C1249.1 155.994 1251.11 154.342 1251.11 152.092V150.668L1246.78 150.932C1244.67 151.072 1243.46 152.021 1243.46 153.498C1243.46 155.027 1244.74 155.994 1246.64 155.994ZM1267.21 159.369C1261.74 159.369 1258.19 155.73 1258.19 149.684C1258.19 143.672 1261.78 139.98 1267.21 139.98C1272.64 139.98 1276.23 143.654 1276.23 149.684C1276.23 155.73 1272.68 159.369 1267.21 159.369ZM1267.21 155.906C1269.99 155.906 1271.78 153.656 1271.78 149.684C1271.78 145.729 1269.99 143.461 1267.21 143.461C1264.45 143.461 1262.64 145.729 1262.64 149.684C1262.64 153.656 1264.43 155.906 1267.21 155.906ZM1293.21 159.299C1288.51 159.299 1285.47 155.59 1285.47 149.666C1285.47 143.777 1288.51 140.051 1293.21 140.051C1295.88 140.051 1297.99 141.439 1298.97 143.496H1299.08V135.586C1299.08 134.109 1299.97 133.283 1301.26 133.283C1302.54 133.283 1303.46 134.109 1303.46 135.586V157.154C1303.46 158.561 1302.56 159.352 1301.29 159.352C1300.03 159.352 1299.08 158.578 1299.08 157.154V155.695H1298.99C1298.09 157.84 1296.09 159.299 1293.21 159.299ZM1294.53 155.713C1297.29 155.713 1299.1 153.375 1299.1 149.684C1299.1 146.027 1297.29 143.654 1294.53 143.654C1291.71 143.654 1289.96 145.992 1289.96 149.684C1289.96 153.393 1291.7 155.713 1294.53 155.713ZM1315.41 159.369C1309.71 159.369 1306.36 155.801 1306.36 149.754C1306.36 143.812 1309.78 139.98 1315.16 139.98C1320.26 139.98 1323.74 143.602 1323.74 148.664C1323.74 149.965 1323 150.738 1321.7 150.738H1310.71V150.879C1310.71 153.99 1312.53 155.994 1315.37 155.994C1317.34 155.994 1318.62 155.309 1320.03 153.516C1320.49 153.006 1320.89 152.812 1321.51 152.812C1322.49 152.812 1323.27 153.445 1323.27 154.5C1323.27 154.834 1323.16 155.221 1322.97 155.607C1321.74 157.98 1318.96 159.369 1315.41 159.369ZM1310.75 147.855H1319.45C1319.36 145.148 1317.64 143.373 1315.18 143.373C1312.72 143.373 1310.93 145.184 1310.75 147.855ZM1333.76 159.369C1329.82 159.369 1327.06 157.857 1326.17 155.625C1326.04 155.309 1325.99 155.027 1325.99 154.764C1325.99 153.709 1326.76 153.041 1327.82 153.041C1328.54 153.041 1329.15 153.375 1329.72 154.113C1330.7 155.537 1331.83 156.17 1333.92 156.17C1335.96 156.17 1337.31 155.309 1337.31 153.902C1337.31 152.777 1336.61 152.162 1334.69 151.723L1331.67 151.037C1328.03 150.211 1326.24 148.418 1326.24 145.711C1326.24 142.248 1329.22 139.98 1333.83 139.98C1337.42 139.98 1340.19 141.738 1340.77 143.883C1340.83 144.111 1340.86 144.322 1340.86 144.533C1340.86 145.447 1340.28 146.098 1339.17 146.098C1338.54 146.098 1337.91 145.869 1337.5 145.289C1336.64 144.006 1335.57 143.197 1333.72 143.197C1331.81 143.197 1330.49 144.129 1330.49 145.465C1330.49 146.555 1331.3 147.293 1333.23 147.732L1336.2 148.383C1340.14 149.279 1341.71 150.703 1341.71 153.463C1341.71 157.031 1338.51 159.369 1333.76 159.369ZM1346.75 137.748C1345.4 137.748 1344.32 136.693 1344.32 135.375C1344.32 134.039 1345.4 133.002 1346.75 133.002C1348.12 133.002 1349.19 134.039 1349.19 135.375C1349.19 136.693 1348.12 137.748 1346.75 137.748ZM1346.75 159.352C1345.41 159.352 1344.57 158.473 1344.57 157.049V142.301C1344.57 140.895 1345.41 139.998 1346.75 139.998C1348.09 139.998 1348.95 140.895 1348.95 142.318V157.049C1348.95 158.473 1348.09 159.352 1346.75 159.352ZM1360.65 166.014C1357.09 165.996 1354.34 164.625 1353.1 162.621C1352.83 162.182 1352.73 161.76 1352.73 161.303C1352.73 160.336 1353.45 159.615 1354.55 159.615C1355.17 159.615 1355.61 159.826 1356.15 160.354C1357.61 161.812 1358.91 162.516 1360.69 162.533C1363.66 162.568 1365.44 160.898 1365.44 158.42V155.449H1365.35C1364.38 157.453 1362.18 158.807 1359.51 158.807C1354.84 158.807 1351.85 155.186 1351.85 149.455C1351.85 143.619 1354.8 140.051 1359.6 140.051C1362.25 140.051 1364.31 141.422 1365.38 143.531H1365.45V142.23C1365.45 140.789 1366.4 139.998 1367.65 139.998C1368.92 139.998 1369.83 140.789 1369.83 142.23V158.402C1369.83 163.096 1366.4 166.049 1360.65 166.014ZM1360.85 155.396C1363.64 155.396 1365.47 153.129 1365.47 149.49C1365.47 145.869 1363.64 143.514 1360.85 143.514C1358.09 143.514 1356.33 145.834 1356.33 149.49C1356.33 153.182 1358.09 155.396 1360.85 155.396ZM1375.58 159.352C1374.29 159.352 1373.4 158.525 1373.4 157.049V142.213C1373.4 140.859 1374.19 139.998 1375.49 139.998C1376.77 139.998 1377.65 140.859 1377.65 142.213V143.514H1377.74C1378.74 141.299 1380.68 140.016 1383.54 140.016C1387.65 140.016 1389.99 142.652 1389.99 146.959V157.049C1389.99 158.525 1389.1 159.352 1387.81 159.352C1386.53 159.352 1385.62 158.525 1385.62 157.049V147.838C1385.62 145.201 1384.38 143.725 1381.89 143.725C1379.38 143.725 1377.78 145.535 1377.78 148.207V157.049C1377.78 158.525 1376.86 159.352 1375.58 159.352ZM1407.9 159.369C1403.97 159.369 1401.21 157.857 1400.31 155.625C1400.19 155.309 1400.13 155.027 1400.13 154.764C1400.13 153.709 1400.91 153.041 1401.96 153.041C1402.68 153.041 1403.3 153.375 1403.86 154.113C1404.85 155.537 1405.97 156.17 1408.06 156.17C1410.1 156.17 1411.46 155.309 1411.46 153.902C1411.46 152.777 1410.75 152.162 1408.84 151.723L1405.81 151.037C1402.17 150.211 1400.38 148.418 1400.38 145.711C1400.38 142.248 1403.37 139.98 1407.97 139.98C1411.56 139.98 1414.34 141.738 1414.92 143.883C1414.97 144.111 1415.01 144.322 1415.01 144.533C1415.01 145.447 1414.43 146.098 1413.32 146.098C1412.69 146.098 1412.05 145.869 1411.65 145.289C1410.79 144.006 1409.71 143.197 1407.87 143.197C1405.95 143.197 1404.63 144.129 1404.63 145.465C1404.63 146.555 1405.44 147.293 1407.38 147.732L1410.35 148.383C1414.29 149.279 1415.85 150.703 1415.85 153.463C1415.85 157.031 1412.65 159.369 1407.9 159.369ZM1421.25 165.926C1419.28 165.926 1418.21 165.188 1418.21 163.852C1418.21 162.955 1418.84 162.375 1419.86 162.375C1420.23 162.375 1420.4 162.393 1420.81 162.393C1421.79 162.393 1422.81 161.883 1423.46 160.248L1423.78 159.334L1417.68 143.285C1417.52 142.846 1417.43 142.389 1417.43 142.037C1417.43 140.842 1418.4 139.998 1419.68 139.998C1420.79 139.998 1421.4 140.49 1421.77 141.721L1426.22 155.273H1426.29L1430.74 141.703C1431.11 140.508 1431.74 139.998 1432.85 139.998C1434.1 139.998 1434.97 140.824 1434.97 141.984C1434.97 142.336 1434.89 142.828 1434.73 143.25L1428.59 159.668C1426.91 164.309 1424.97 165.926 1421.25 165.926ZM1444.54 159.369C1440.6 159.369 1437.84 157.857 1436.94 155.625C1436.82 155.309 1436.77 155.027 1436.77 154.764C1436.77 153.709 1437.54 153.041 1438.6 153.041C1439.32 153.041 1439.93 153.375 1440.49 154.113C1441.48 155.537 1442.6 156.17 1444.7 156.17C1446.73 156.17 1448.09 155.309 1448.09 153.902C1448.09 152.777 1447.38 152.162 1445.47 151.723L1442.45 151.037C1438.81 150.211 1437.01 148.418 1437.01 145.711C1437.01 142.248 1440 139.98 1444.61 139.98C1448.19 139.98 1450.97 141.738 1451.55 143.883C1451.6 144.111 1451.64 144.322 1451.64 144.533C1451.64 145.447 1451.06 146.098 1449.95 146.098C1449.32 146.098 1448.69 145.869 1448.28 145.289C1447.42 144.006 1446.35 143.197 1444.5 143.197C1442.59 143.197 1441.27 144.129 1441.27 145.465C1441.27 146.555 1442.08 147.293 1444.01 147.732L1446.98 148.383C1450.92 149.279 1452.48 150.703 1452.48 153.463C1452.48 157.031 1449.28 159.369 1444.54 159.369ZM1456.46 154.395V143.742H1455.28C1454.19 143.742 1453.52 143.092 1453.52 142.037C1453.52 141 1454.19 140.367 1455.28 140.367H1456.46V137.889C1456.46 136.482 1457.3 135.604 1458.65 135.604C1459.99 135.604 1460.83 136.482 1460.83 137.889V140.367H1462.85C1463.94 140.367 1464.61 141 1464.61 142.037C1464.61 143.092 1463.94 143.742 1462.85 143.742H1460.83V153.445C1460.83 154.852 1461.32 155.467 1462.59 155.572L1462.91 155.607C1464.07 155.713 1464.66 156.205 1464.66 157.225C1464.66 158.508 1463.54 159.193 1461.54 159.193H1461.36C1458.11 159.193 1456.46 157.576 1456.46 154.395ZM1475.26 159.369C1469.57 159.369 1466.21 155.801 1466.21 149.754C1466.21 143.812 1469.64 139.98 1475.02 139.98C1480.12 139.98 1483.6 143.602 1483.6 148.664C1483.6 149.965 1482.86 150.738 1481.56 150.738H1470.57V150.879C1470.57 153.99 1472.38 155.994 1475.23 155.994C1477.2 155.994 1478.48 155.309 1479.89 153.516C1480.34 153.006 1480.75 152.812 1481.36 152.812C1482.35 152.812 1483.12 153.445 1483.12 154.5C1483.12 154.834 1483.02 155.221 1482.82 155.607C1481.59 157.98 1478.81 159.369 1475.26 159.369ZM1470.61 147.855H1479.31C1479.22 145.148 1477.5 143.373 1475.04 143.373C1472.57 143.373 1470.78 145.184 1470.61 147.855ZM1488.61 159.352C1487.29 159.352 1486.43 158.508 1486.43 157.049V142.23C1486.43 140.807 1487.29 139.998 1488.52 139.998C1489.75 139.998 1490.63 140.807 1490.63 142.23V143.602H1490.71C1491.52 141.439 1493.49 140.016 1496.02 140.016C1498.66 140.016 1500.54 141.369 1501.23 143.76H1501.33C1502.23 141.457 1504.44 140.016 1507.13 140.016C1510.81 140.016 1513.21 142.494 1513.21 146.221V157.049C1513.21 158.508 1512.34 159.352 1511.04 159.352C1509.72 159.352 1508.84 158.508 1508.84 157.049V147.293C1508.84 145.008 1507.64 143.707 1505.5 143.707C1503.39 143.707 1501.95 145.254 1501.95 147.486V157.049C1501.95 158.508 1501.12 159.352 1499.82 159.352C1498.5 159.352 1497.69 158.508 1497.69 157.049V147.064C1497.69 144.99 1496.43 143.707 1494.39 143.707C1492.28 143.707 1490.8 145.342 1490.8 147.592V157.049C1490.8 158.508 1489.91 159.352 1488.61 159.352Z" fill="#808080"></path>
<path d="M868 247C866.75 247 865.984 246.219 865.984 244.906V226.547C865.984 225.234 866.75 224.453 868 224.453H874.219C880.953 224.453 884.938 228.531 884.938 235.672C884.938 242.812 880.969 247 874.219 247H868ZM870.016 243.594H873.797C878.328 243.594 880.828 240.828 880.828 235.688C880.828 230.641 878.297 227.859 873.797 227.859H870.016V243.594ZM892.547 247.266C889.344 247.266 887.016 245.25 887.016 242.266C887.016 239.328 889.281 237.562 893.312 237.312L897.703 237.062V235.875C897.703 234.141 896.531 233.141 894.609 233.141C893.094 233.141 892.109 233.656 891.141 235.078C890.734 235.609 890.219 235.859 889.562 235.859C888.609 235.859 887.922 235.234 887.922 234.297C887.922 233.938 888.016 233.594 888.188 233.234C889.031 231.312 891.594 230.094 894.766 230.094C898.875 230.094 901.547 232.266 901.547 235.594V245.359C901.547 246.609 900.75 247.312 899.656 247.312C898.594 247.312 897.859 246.672 897.797 245.516V244.359H897.719C896.766 246.156 894.688 247.266 892.547 247.266ZM893.734 244.328C895.922 244.328 897.703 242.859 897.703 240.859V239.594L893.859 239.828C891.984 239.953 890.906 240.797 890.906 242.109C890.906 243.469 892.047 244.328 893.734 244.328ZM905.766 242.906V233.438H904.719C903.75 233.438 903.156 232.859 903.156 231.922C903.156 231 903.75 230.438 904.719 230.438H905.766V228.234C905.766 226.984 906.516 226.203 907.719 226.203C908.906 226.203 909.656 226.984 909.656 228.234V230.438H911.453C912.422 230.438 913.016 231 913.016 231.922C913.016 232.859 912.422 233.438 911.453 233.438H909.656V242.062C909.656 243.312 910.094 243.859 911.219 243.953L911.5 243.984C912.531 244.078 913.062 244.516 913.062 245.422C913.062 246.562 912.062 247.172 910.281 247.172H910.125C907.234 247.172 905.766 245.734 905.766 242.906ZM920.078 247.266C916.875 247.266 914.547 245.25 914.547 242.266C914.547 239.328 916.812 237.562 920.844 237.312L925.234 237.062V235.875C925.234 234.141 924.062 233.141 922.141 233.141C920.625 233.141 919.641 233.656 918.672 235.078C918.266 235.609 917.75 235.859 917.094 235.859C916.141 235.859 915.453 235.234 915.453 234.297C915.453 233.938 915.547 233.594 915.719 233.234C916.562 231.312 919.125 230.094 922.297 230.094C926.406 230.094 929.078 232.266 929.078 235.594V245.359C929.078 246.609 928.281 247.312 927.188 247.312C926.125 247.312 925.391 246.672 925.328 245.516V244.359H925.25C924.297 246.156 922.219 247.266 920.078 247.266ZM921.266 244.328C923.453 244.328 925.234 242.859 925.234 240.859V239.594L921.391 239.828C919.516 239.953 918.438 240.797 918.438 242.109C918.438 243.469 919.578 244.328 921.266 244.328ZM934.938 235.891C933.672 235.891 932.688 234.891 932.688 233.641C932.688 232.391 933.672 231.391 934.938 231.391C936.188 231.391 937.172 232.391 937.172 233.641C937.172 234.891 936.188 235.891 934.938 235.891ZM934.938 247.172C933.672 247.172 932.688 246.188 932.688 244.922C932.688 243.672 933.672 242.672 934.938 242.672C936.188 242.672 937.172 243.672 937.172 244.922C937.172 246.188 936.188 247.172 934.938 247.172Z" fill="#4C4096"></path>
<path d="M1038.49 251.352C1037.18 251.352 1036.26 250.438 1036.26 249.066V230.029H1036.17L1032.08 232.877C1031.64 233.193 1031.29 233.316 1030.79 233.316C1029.85 233.316 1029.16 232.631 1029.16 231.629C1029.16 230.926 1029.44 230.398 1030.2 229.871L1035.38 226.232C1036.51 225.441 1037.21 225.283 1038.16 225.283C1039.76 225.283 1040.73 226.25 1040.73 227.814V249.066C1040.73 250.438 1039.81 251.352 1038.49 251.352ZM1055.4 251.51C1051.26 251.51 1048.36 249.488 1047.3 247.361C1047.05 246.852 1046.93 246.43 1046.93 245.973C1046.93 244.918 1047.63 244.145 1048.85 244.145C1049.76 244.145 1050.32 244.566 1051.03 245.463C1052.22 247.062 1053.44 247.836 1055.54 247.836C1059.46 247.836 1061.42 244.215 1061.47 238.467V238.186H1061.4C1060.43 240.646 1057.81 242.299 1054.53 242.299C1049.78 242.299 1046.11 238.889 1046.11 233.984C1046.11 228.816 1050.1 225.107 1055.58 225.107C1059.54 225.107 1062.68 227.059 1064.42 230.75C1065.34 232.701 1065.83 235.127 1065.83 238.027C1065.83 246.5 1061.94 251.51 1055.4 251.51ZM1055.58 238.783C1058.52 238.783 1060.71 236.727 1060.71 233.896C1060.71 231.049 1058.5 228.834 1055.63 228.834C1052.8 228.834 1050.55 231.031 1050.55 233.809C1050.55 236.709 1052.7 238.783 1055.58 238.783ZM1083.23 251.422C1079.61 251.422 1076.78 249.699 1075.67 246.887C1075.43 246.201 1075.29 245.639 1075.29 244.9C1075.29 243.564 1076.11 242.721 1077.39 242.721C1078.54 242.721 1079.21 243.283 1079.57 244.566C1080.1 246.43 1081.37 247.449 1083.18 247.449C1085.6 247.449 1086.92 245.973 1086.92 243.23V227.691C1086.92 226.197 1087.77 225.336 1089.19 225.336C1090.6 225.336 1091.44 226.197 1091.44 227.691V243.266C1091.44 248.434 1088.38 251.422 1083.23 251.422ZM1102.13 251.334C1098.08 251.334 1095.52 248.715 1095.52 244.408V234.301C1095.52 232.842 1096.41 231.998 1097.7 231.998C1098.98 231.998 1099.89 232.842 1099.89 234.318V243.529C1099.89 246.201 1101.2 247.643 1103.66 247.643C1106.19 247.643 1107.75 245.85 1107.75 243.143V234.301C1107.75 232.842 1108.67 231.998 1109.95 231.998C1111.21 231.998 1112.13 232.842 1112.13 234.318V249.137C1112.13 250.543 1111.29 251.352 1110.04 251.352C1108.77 251.352 1107.91 250.543 1107.91 249.137V247.766H1107.82C1106.84 250.033 1104.96 251.334 1102.13 251.334ZM1118.04 251.352C1116.75 251.352 1115.84 250.525 1115.84 249.049V227.586C1115.84 226.109 1116.75 225.283 1118.04 225.283C1119.32 225.283 1120.21 226.109 1120.21 227.586V249.049C1120.21 250.525 1119.32 251.352 1118.04 251.352ZM1133.33 251C1131.92 251 1131.18 250.227 1131.18 249.084C1131.18 248.205 1131.48 247.678 1132.45 246.764L1140.2 239.082C1143.44 235.883 1144.24 234.6 1144.24 232.666C1144.24 230.398 1142.5 228.764 1140.06 228.764C1137.78 228.764 1136.18 229.924 1135.28 232.209C1134.82 233.123 1134.29 233.598 1133.26 233.598C1132.03 233.598 1131.29 232.842 1131.29 231.717C1131.29 231.383 1131.34 231.066 1131.43 230.768C1132.12 228.025 1135.16 225.125 1140.1 225.125C1145.18 225.125 1148.67 228.131 1148.67 232.385C1148.67 235.355 1147.25 237.359 1143.05 241.473L1137.23 247.203V247.291H1147.36C1148.55 247.291 1149.29 248.029 1149.29 249.154C1149.29 250.262 1148.55 251 1147.36 251H1133.33ZM1162.02 251.51C1155.76 251.51 1152.03 246.43 1152.03 238.291C1152.03 230.188 1155.79 225.125 1162.02 225.125C1168.22 225.125 1171.96 230.152 1171.96 238.273C1171.96 246.395 1168.26 251.51 1162.02 251.51ZM1162.02 247.801C1165.44 247.801 1167.39 244.303 1167.39 238.291C1167.39 232.35 1165.41 228.834 1162.02 228.834C1158.61 228.834 1156.6 232.367 1156.6 238.273C1156.6 244.285 1158.57 247.801 1162.02 247.801ZM1177.2 251C1175.8 251 1175.06 250.227 1175.06 249.084C1175.06 248.205 1175.36 247.678 1176.32 246.764L1184.08 239.082C1187.31 235.883 1188.12 234.6 1188.12 232.666C1188.12 230.398 1186.38 228.764 1183.94 228.764C1181.65 228.764 1180.05 229.924 1179.15 232.209C1178.7 233.123 1178.17 233.598 1177.13 233.598C1175.9 233.598 1175.16 232.842 1175.16 231.717C1175.16 231.383 1175.22 231.066 1175.3 230.768C1175.99 228.025 1179.03 225.125 1183.97 225.125C1189.05 225.125 1192.55 228.131 1192.55 232.385C1192.55 235.355 1191.12 237.359 1186.92 241.473L1181.11 247.203V247.291H1191.23C1192.43 247.291 1193.16 248.029 1193.16 249.154C1193.16 250.262 1192.43 251 1191.23 251H1177.2ZM1198.44 251C1197.03 251 1196.29 250.227 1196.29 249.084C1196.29 248.205 1196.59 247.678 1197.56 246.764L1205.31 239.082C1208.54 235.883 1209.35 234.6 1209.35 232.666C1209.35 230.398 1207.61 228.764 1205.17 228.764C1202.88 228.764 1201.29 229.924 1200.39 232.209C1199.93 233.123 1199.4 233.598 1198.37 233.598C1197.14 233.598 1196.4 232.842 1196.4 231.717C1196.4 231.383 1196.45 231.066 1196.54 230.768C1197.22 228.025 1200.27 225.125 1205.21 225.125C1210.29 225.125 1213.78 228.131 1213.78 232.385C1213.78 235.355 1212.36 237.359 1208.16 241.473L1202.34 247.203V247.291H1212.46C1213.66 247.291 1214.4 248.029 1214.4 249.154C1214.4 250.262 1213.66 251 1212.46 251H1198.44Z" fill="#808080"></path>
<line y1="-1" x2="184" y2="-1" transform="matrix(4.37114e-08 -1 -1 -4.37114e-08 1760 284)" stroke="#808080" stroke-width="2"></line>
<path d="M1828 119.312C1826.75 119.312 1825.98 118.531 1825.98 117.219V98.5469C1825.98 97.2344 1826.75 96.4531 1828 96.4531H1834.94C1839.81 96.4531 1842.73 99.1562 1842.73 103.469C1842.73 106.406 1841.23 108.812 1838.62 109.828L1842.19 116.078C1842.53 116.656 1842.62 117 1842.62 117.469C1842.62 118.531 1841.75 119.312 1840.59 119.312C1839.64 119.312 1839.17 118.969 1838.55 117.859L1834.53 110.516H1830.02V117.219C1830.02 118.531 1829.25 119.312 1828 119.312ZM1830.02 107.422H1834.56C1837.12 107.422 1838.61 106 1838.61 103.562C1838.61 101.188 1837.03 99.7188 1834.48 99.7188H1830.02V107.422ZM1852.86 119.328C1847.8 119.328 1844.81 116.156 1844.81 110.781C1844.81 105.5 1847.86 102.094 1852.64 102.094C1857.17 102.094 1860.27 105.312 1860.27 109.812C1860.27 110.969 1859.61 111.656 1858.45 111.656H1848.69V111.781C1848.69 114.547 1850.3 116.328 1852.83 116.328C1854.58 116.328 1855.72 115.719 1856.97 114.125C1857.38 113.672 1857.73 113.5 1858.28 113.5C1859.16 113.5 1859.84 114.062 1859.84 115C1859.84 115.297 1859.75 115.641 1859.58 115.984C1858.48 118.094 1856.02 119.328 1852.86 119.328ZM1848.72 109.094H1856.45C1856.38 106.688 1854.84 105.109 1852.66 105.109C1850.47 105.109 1848.88 106.719 1848.72 109.094ZM1869.17 119.328C1865.67 119.328 1863.22 117.984 1862.42 116C1862.31 115.719 1862.27 115.469 1862.27 115.234C1862.27 114.297 1862.95 113.703 1863.89 113.703C1864.53 113.703 1865.08 114 1865.58 114.656C1866.45 115.922 1867.45 116.484 1869.31 116.484C1871.12 116.484 1872.33 115.719 1872.33 114.469C1872.33 113.469 1871.7 112.922 1870 112.531L1867.31 111.922C1864.08 111.188 1862.48 109.594 1862.48 107.188C1862.48 104.109 1865.14 102.094 1869.23 102.094C1872.42 102.094 1874.89 103.656 1875.41 105.562C1875.45 105.766 1875.48 105.953 1875.48 106.141C1875.48 106.953 1874.97 107.531 1873.98 107.531C1873.42 107.531 1872.86 107.328 1872.5 106.812C1871.73 105.672 1870.78 104.953 1869.14 104.953C1867.44 104.953 1866.27 105.781 1866.27 106.969C1866.27 107.938 1866.98 108.594 1868.7 108.984L1871.34 109.562C1874.84 110.359 1876.23 111.625 1876.23 114.078C1876.23 117.25 1873.39 119.328 1869.17 119.328ZM1880.62 124.891C1879.48 124.891 1878.69 124.156 1878.69 122.844V104.109C1878.69 102.828 1879.47 102.109 1880.58 102.109C1881.69 102.109 1882.48 102.828 1882.48 104.109V105.297H1882.56C1883.5 103.375 1885.38 102.156 1887.78 102.156C1891.98 102.156 1894.66 105.422 1894.66 110.719C1894.66 116 1892 119.266 1887.84 119.266C1885.44 119.266 1883.56 118.109 1882.66 116.25H1882.58V122.844C1882.58 124.156 1881.77 124.891 1880.62 124.891ZM1886.59 116.078C1889.11 116.078 1890.67 114 1890.67 110.719C1890.67 107.453 1889.11 105.359 1886.59 105.359C1884.17 105.359 1882.56 107.5 1882.55 110.719C1882.56 113.969 1884.17 116.078 1886.59 116.078ZM1904.48 119.328C1899.62 119.328 1896.47 116.094 1896.47 110.719C1896.47 105.375 1899.66 102.094 1904.48 102.094C1909.31 102.094 1912.5 105.359 1912.5 110.719C1912.5 116.094 1909.34 119.328 1904.48 119.328ZM1904.48 116.25C1906.95 116.25 1908.55 114.25 1908.55 110.719C1908.55 107.203 1906.95 105.188 1904.48 105.188C1902.03 105.188 1900.42 107.203 1900.42 110.719C1900.42 114.25 1902.02 116.25 1904.48 116.25ZM1916.94 119.312C1915.8 119.312 1915 118.578 1915 117.266V104.078C1915 102.875 1915.7 102.109 1916.86 102.109C1918 102.109 1918.78 102.875 1918.78 104.078V105.234H1918.86C1919.75 103.266 1921.47 102.125 1924.02 102.125C1927.67 102.125 1929.75 104.469 1929.75 108.297V117.266C1929.75 118.578 1928.95 119.312 1927.81 119.312C1926.67 119.312 1925.86 118.578 1925.86 117.266V109.078C1925.86 106.734 1924.77 105.422 1922.55 105.422C1920.31 105.422 1918.89 107.031 1918.89 109.406V117.266C1918.89 118.578 1918.08 119.312 1916.94 119.312ZM1939.27 119.328C1935.77 119.328 1933.31 117.984 1932.52 116C1932.41 115.719 1932.36 115.469 1932.36 115.234C1932.36 114.297 1933.05 113.703 1933.98 113.703C1934.62 113.703 1935.17 114 1935.67 114.656C1936.55 115.922 1937.55 116.484 1939.41 116.484C1941.22 116.484 1942.42 115.719 1942.42 114.469C1942.42 113.469 1941.8 112.922 1940.09 112.531L1937.41 111.922C1934.17 111.188 1932.58 109.594 1932.58 107.188C1932.58 104.109 1935.23 102.094 1939.33 102.094C1942.52 102.094 1944.98 103.656 1945.5 105.562C1945.55 105.766 1945.58 105.953 1945.58 106.141C1945.58 106.953 1945.06 107.531 1944.08 107.531C1943.52 107.531 1942.95 107.328 1942.59 106.812C1941.83 105.672 1940.88 104.953 1939.23 104.953C1937.53 104.953 1936.36 105.781 1936.36 106.969C1936.36 107.938 1937.08 108.594 1938.8 108.984L1941.44 109.562C1944.94 110.359 1946.33 111.625 1946.33 114.078C1946.33 117.25 1943.48 119.328 1939.27 119.328ZM1956.2 100.562C1955.45 100.562 1954.91 100.094 1954.91 99.4375C1954.91 99.0938 1954.98 98.8594 1955.2 98.5625L1957.22 95.6875C1957.75 94.9219 1958.09 94.7031 1958.72 94.7031C1959.58 94.7031 1960.17 95.25 1960.17 96.0312C1960.17 96.4062 1960.03 96.7344 1959.75 97.0938L1957.45 99.8906C1957.02 100.422 1956.75 100.562 1956.2 100.562ZM1953.64 119.266C1950.44 119.266 1948.11 117.25 1948.11 114.266C1948.11 111.328 1950.38 109.562 1954.41 109.312L1958.8 109.062V107.875C1958.8 106.141 1957.62 105.141 1955.7 105.141C1954.19 105.141 1953.2 105.656 1952.23 107.078C1951.83 107.609 1951.31 107.859 1950.66 107.859C1949.7 107.859 1949.02 107.234 1949.02 106.297C1949.02 105.938 1949.11 105.594 1949.28 105.234C1950.12 103.312 1952.69 102.094 1955.86 102.094C1959.97 102.094 1962.64 104.266 1962.64 107.594V117.359C1962.64 118.609 1961.84 119.312 1960.75 119.312C1959.69 119.312 1958.95 118.672 1958.89 117.516V116.359H1958.81C1957.86 118.156 1955.78 119.266 1953.64 119.266ZM1954.83 116.328C1957.02 116.328 1958.8 114.859 1958.8 112.859V111.594L1954.95 111.828C1953.08 111.953 1952 112.797 1952 114.109C1952 115.469 1953.14 116.328 1954.83 116.328ZM1972.34 119.312C1970.91 119.312 1970.12 118.734 1969.61 117.328L1964.95 104.984C1964.83 104.641 1964.73 104.25 1964.73 103.875C1964.73 102.812 1965.56 102.109 1966.69 102.109C1967.61 102.109 1968.23 102.609 1968.53 103.656L1972.31 115.391H1972.39L1976.17 103.625C1976.47 102.594 1977.09 102.109 1978 102.109C1979.09 102.109 1979.89 102.859 1979.89 103.859C1979.89 104.219 1979.81 104.594 1979.69 104.922L1975.03 117.328C1974.55 118.688 1973.72 119.312 1972.34 119.312ZM1988.98 119.328C1983.92 119.328 1980.94 116.156 1980.94 110.781C1980.94 105.5 1983.98 102.094 1988.77 102.094C1993.3 102.094 1996.39 105.312 1996.39 109.812C1996.39 110.969 1995.73 111.656 1994.58 111.656H1984.81V111.781C1984.81 114.547 1986.42 116.328 1988.95 116.328C1990.7 116.328 1991.84 115.719 1993.09 114.125C1993.5 113.672 1993.86 113.5 1994.41 113.5C1995.28 113.5 1995.97 114.062 1995.97 115C1995.97 115.297 1995.88 115.641 1995.7 115.984C1994.61 118.094 1992.14 119.328 1988.98 119.328ZM1984.84 109.094H1992.58C1992.5 106.688 1990.97 105.109 1988.78 105.109C1986.59 105.109 1985 106.719 1984.84 109.094ZM2000.94 100.109C1999.73 100.109 1998.78 99.1719 1998.78 98C1998.78 96.8125 1999.73 95.8906 2000.94 95.8906C2002.16 95.8906 2003.11 96.8125 2003.11 98C2003.11 99.1719 2002.16 100.109 2000.94 100.109ZM2000.94 119.312C1999.75 119.312 1999 118.531 1999 117.266V104.156C1999 102.906 1999.75 102.109 2000.94 102.109C2002.12 102.109 2002.89 102.906 2002.89 104.172V117.266C2002.89 118.531 2002.12 119.312 2000.94 119.312ZM2012.55 119.328C2009.05 119.328 2006.59 117.984 2005.8 116C2005.69 115.719 2005.64 115.469 2005.64 115.234C2005.64 114.297 2006.33 113.703 2007.27 113.703C2007.91 113.703 2008.45 114 2008.95 114.656C2009.83 115.922 2010.83 116.484 2012.69 116.484C2014.5 116.484 2015.7 115.719 2015.7 114.469C2015.7 113.469 2015.08 112.922 2013.38 112.531L2010.69 111.922C2007.45 111.188 2005.86 109.594 2005.86 107.188C2005.86 104.109 2008.52 102.094 2012.61 102.094C2015.8 102.094 2018.27 103.656 2018.78 105.562C2018.83 105.766 2018.86 105.953 2018.86 106.141C2018.86 106.953 2018.34 107.531 2017.36 107.531C2016.8 107.531 2016.23 107.328 2015.88 106.812C2015.11 105.672 2014.16 104.953 2012.52 104.953C2010.81 104.953 2009.64 105.781 2009.64 106.969C2009.64 107.938 2010.36 108.594 2012.08 108.984L2014.72 109.562C2018.22 110.359 2019.61 111.625 2019.61 114.078C2019.61 117.25 2016.77 119.328 2012.55 119.328Z" fill="#4C4096"></path>
<rect x="1836" y="172" width="64" height="64" rx="32" fill="url(#pattern0_2353_32595)"></rect>
<path d="M1925.83 212.172C1925.11 212.172 1924.62 211.731 1924.62 211.076C1924.62 210.894 1924.67 210.657 1924.77 210.367L1929.49 197.584C1929.8 196.725 1930.33 196.327 1931.18 196.327C1932.01 196.327 1932.53 196.714 1932.85 197.573L1937.58 210.367C1937.69 210.668 1937.73 210.872 1937.73 211.076C1937.73 211.71 1937.22 212.172 1936.53 212.172C1935.88 212.172 1935.53 211.871 1935.31 211.184L1934.13 207.843H1928.2L1927.03 211.173C1926.8 211.871 1926.45 212.172 1925.83 212.172ZM1928.81 205.877H1933.52L1931.19 199.077H1931.12L1928.81 205.877ZM1943.96 216.254C1941.91 216.232 1940.29 215.438 1939.51 214.213C1939.36 213.955 1939.3 213.719 1939.3 213.45C1939.3 212.913 1939.69 212.526 1940.29 212.526C1940.64 212.526 1940.87 212.645 1941.18 212.956C1942.1 213.923 1942.9 214.342 1944 214.363C1945.89 214.385 1947.04 213.311 1947.04 211.731V209.938H1946.99C1946.35 211.162 1945.02 211.968 1943.41 211.968C1940.56 211.968 1938.72 209.744 1938.72 206.253C1938.72 202.719 1940.54 200.517 1943.46 200.517C1945.07 200.517 1946.31 201.322 1947 202.601H1947.04V201.688C1947.04 200.936 1947.55 200.495 1948.21 200.495C1948.88 200.495 1949.37 200.936 1949.37 201.688V211.688C1949.37 214.481 1947.32 216.286 1943.96 216.254ZM1944.03 210.077C1945.85 210.077 1947.05 208.595 1947.05 206.274C1947.05 203.954 1945.85 202.429 1944.03 202.429C1942.25 202.429 1941.09 203.911 1941.09 206.264C1941.09 208.627 1942.25 210.077 1944.03 210.077ZM1954.97 212.193C1952.76 212.193 1951.2 210.818 1951.2 208.788C1951.2 206.812 1952.72 205.598 1955.4 205.447L1958.5 205.265V204.395C1958.5 203.138 1957.66 202.386 1956.24 202.386C1955.12 202.386 1954.38 202.783 1953.73 203.814C1953.5 204.158 1953.2 204.309 1952.79 204.309C1952.21 204.309 1951.79 203.922 1951.79 203.342C1951.79 203.105 1951.85 202.848 1951.99 202.59C1952.58 201.312 1954.29 200.495 1956.32 200.495C1959.06 200.495 1960.81 201.945 1960.81 204.212V211.033C1960.81 211.764 1960.35 212.204 1959.7 212.204C1959.05 212.204 1958.61 211.785 1958.59 211.098V210.142H1958.54C1957.88 211.398 1956.44 212.193 1954.97 212.193ZM1955.6 210.356C1957.23 210.356 1958.5 209.239 1958.5 207.768V206.876L1955.71 207.048C1954.33 207.145 1953.54 207.757 1953.54 208.724C1953.54 209.712 1954.37 210.356 1955.6 210.356ZM1963.75 209.293V202.536H1962.93C1962.33 202.536 1961.96 202.192 1961.96 201.623C1961.96 201.043 1962.33 200.699 1962.93 200.699H1963.75V199.023C1963.75 198.282 1964.21 197.788 1964.92 197.788C1965.62 197.788 1966.08 198.282 1966.08 199.023V200.699H1967.4C1968 200.699 1968.37 201.054 1968.37 201.623C1968.37 202.192 1968 202.536 1967.4 202.536H1966.08V208.777C1966.08 209.68 1966.39 210.088 1967.23 210.152L1967.41 210.163C1968.08 210.228 1968.41 210.496 1968.41 211.044C1968.41 211.742 1967.87 212.097 1966.73 212.097H1966.61C1964.71 212.097 1963.75 211.162 1963.75 209.293ZM1971.38 212.204C1970.71 212.204 1970.22 211.742 1970.22 210.979V197.498C1970.22 196.768 1970.66 196.295 1971.37 196.295C1972.09 196.295 1972.52 196.768 1972.52 197.498V202.59H1972.58C1973.2 201.269 1974.43 200.506 1976.15 200.506C1978.63 200.506 1980.12 202.16 1980.12 204.717V210.979C1980.12 211.742 1979.63 212.204 1978.95 212.204C1978.27 212.204 1977.79 211.742 1977.79 210.979V205.168C1977.79 203.503 1976.95 202.504 1975.32 202.504C1973.6 202.504 1972.54 203.686 1972.54 205.469V210.979C1972.54 211.742 1972.06 212.204 1971.38 212.204ZM1985.67 212.193C1983.46 212.193 1981.9 210.818 1981.9 208.788C1981.9 206.812 1983.43 205.598 1986.1 205.447L1989.21 205.265V204.395C1989.21 203.138 1988.36 202.386 1986.94 202.386C1985.82 202.386 1985.08 202.783 1984.44 203.814C1984.2 204.158 1983.9 204.309 1983.49 204.309C1982.91 204.309 1982.49 203.922 1982.49 203.342C1982.49 203.105 1982.56 202.848 1982.7 202.59C1983.29 201.312 1984.99 200.495 1987.02 200.495C1989.76 200.495 1991.51 201.945 1991.51 204.212V211.033C1991.51 211.764 1991.05 212.204 1990.4 212.204C1989.75 212.204 1989.31 211.785 1989.29 211.098V210.142H1989.24C1988.58 211.398 1987.14 212.193 1985.67 212.193ZM1986.3 210.356C1987.93 210.356 1989.21 209.239 1989.21 207.768V206.876L1986.41 207.048C1985.03 207.145 1984.24 207.757 1984.24 208.724C1984.24 209.712 1985.07 210.356 1986.3 210.356ZM1999.72 212.172C1998.97 212.172 1998.52 211.699 1998.52 210.926V197.745C1998.52 196.972 1998.97 196.499 1999.72 196.499H2004.33C2007.34 196.499 2009.43 198.572 2009.43 201.591C2009.43 204.62 2007.29 206.704 2004.25 206.704H2000.92V210.926C2000.92 211.699 2000.46 212.172 1999.72 212.172ZM2000.92 204.685H2003.69C2005.78 204.685 2006.97 203.557 2006.97 201.602C2006.97 199.646 2005.78 198.529 2003.7 198.529H2000.92V204.685ZM2011.56 212.118C2010.78 212.118 2010.15 211.495 2010.15 210.711C2010.15 209.927 2010.78 209.304 2011.56 209.304C2012.34 209.304 2012.97 209.927 2012.97 210.711C2012.97 211.495 2012.34 212.118 2011.56 212.118Z" fill="black"></path>
<defs>
<pattern id="pattern0_2353_32595" patternContentUnits="objectBoundingBox" width="1" height="1">
<use xlink:href="#image0_2353_32595" transform="scale(0.00195312)"></use>
</pattern>
<image id="image0_2353_32595" width="512" height="512" preserveAspectRatio="none"></image>
</defs>
</svg>